<?xml version="1.0" encoding="utf-8"?>
<!-- Generator: Adobe Illustrator 25.2.0, SVG Export Plug-In . SVG Version: 6.00 Build 0)  -->
<svg version="1.1" id="Layer_1" xmlns="http://www.w3.org/2000/svg" xmlns:xlink="http://www.w3.org/1999/xlink" x="0px" y="0px"
	 viewBox="0 0 189.5 186.2" style="enable-background:new 0 0 189.5 186.2;" xml:space="preserve">
<style type="text/css">
	.st0{fill:#9E843A;}
	.st1{fill:#13007B;}
	.st2{fill:#FEFEFE;}
</style>
<path class="st0" d="M2.7,132.3c0-26.1,0-52.2,0-78.2c0.2-0.9,0.1-1.8,0.1-2.7c0.1-3.5,0.9-6.9,1.8-10.3c0.9-3.2,2.1-6.2,3.5-9.2
	c2-4.1,4.5-7.9,7.5-11.4c4.3-5.1,9.4-9.3,15.2-12.5c6.3-3.6,13.1-5.8,20.3-6.6c1.6-0.2,3.3-0.2,4.9-0.2c0.2,0,0.5,0.1,0.7-0.1
	c25.3,0,50.6,0,75.9,0c0.2,0.1,0.3,0.1,0.5,0.1c10.5-0.1,20,3.2,28.7,8.8c3.2,2.1,6.2,4.5,8.8,7.2c3.9,3.9,7.1,8.2,9.7,13.1
	c3.2,5.9,5.2,12.2,6,18.9c0.2,1.4,0.2,2.8,0.2,4.2c0,0.2-0.1,0.5,0.1,0.7c0,26,0,52.1,0,78.1c-0.2,0.9-0.1,1.8-0.1,2.7
	c-0.1,3.2-0.7,6.3-1.5,9.4c-1.5,5.8-4,11.2-7.3,16.3c-2.8,4.3-6.2,8.1-10,11.4c-5.6,4.9-12,8.5-19.1,10.8c-3.2,1-6.4,1.8-9.7,2.2
	c-1.2,0.1-2.4,0.2-3.6,0.2c-0.2,0-0.5-0.1-0.7,0.1c-26.5,0-53.1,0-79.6,0c-0.8-0.2-1.6-0.1-2.3-0.1c-2.8,0-5.5-0.6-8.2-1.3
	c-6.2-1.5-12.1-4.1-17.4-7.7c-8.5-5.7-15-13.3-19.4-22.6C5.3,148.2,3.7,142.8,3,137c-0.2-1.4-0.2-2.7-0.2-4.1
	C2.8,132.7,2.9,132.5,2.7,132.3z"/>
<path class="st1" d="M8.4,93.5c0-12.4,0-24.8,0-37.2c0-2.2,0.4-4.5,0.7-6.7c0.4-2.4,1-4.7,1.7-7c0.5-1.6,1.1-3.3,1.8-4.8
	c1.3-3,2.9-5.8,4.7-8.5c1.1-1.7,2.4-3.3,3.7-4.8c1.4-1.6,2.9-3.2,4.5-4.6c2.5-2.2,5.2-4.2,8-5.9c3.5-2.1,7.3-3.8,11.2-5
	c2.5-0.8,5-1.3,7.5-1.7c3.5-0.6,7-0.5,10.5-0.5c22.8,0,45.6,0,68.4,0c2.8,0,5.6,0.4,8.3,1c3.1,0.6,6.1,1.6,9.1,2.8
	c2.7,1.1,5.3,2.4,7.8,4c2.9,1.8,5.5,3.9,8,6.2c2,1.9,3.7,3.9,5.4,6c2.5,3.1,4.5,6.6,6.2,10.2c1.6,3.4,2.8,7,3.6,10.8
	c0.4,1.7,0.6,3.5,0.8,5.3c0.2,1.6,0.2,3.1,0.3,4.7c0.3,23.3,0.1,46.7,0.1,70c0,2.4-0.1,4.8-0.5,7.1c-0.5,3.6-1.3,7.1-2.5,10.5
	c-1.8,5.1-4.3,9.8-7.6,14.1c-1.3,1.7-2.6,3.2-4,4.7c-3.5,3.7-7.5,6.7-11.9,9.3c-4.3,2.5-8.9,4.2-13.8,5.4c-2.1,0.5-4.2,0.8-6.3,1
	c-2.1,0.2-4.2,0.2-6.3,0.2c-23.4,0-46.7,0-70.1,0c-2.8,0-5.5-0.4-8.3-1c-3.3-0.7-6.4-1.6-9.5-2.9c-2.5-1.1-5-2.3-7.3-3.7
	c-2.2-1.4-4.4-2.9-6.3-4.6c-1.9-1.6-3.6-3.4-5.3-5.2c-1.6-1.8-3.1-3.7-4.4-5.6c-1.7-2.6-3.2-5.4-4.4-8.2c-1.3-3-2.3-6.1-3-9.3
	c-0.4-1.9-0.7-3.7-0.9-5.6c-0.6-5.7-0.2-11.4-0.3-17.1C8.4,109,8.4,101.2,8.4,93.5z"/>
<path class="st2" d="M137,52.4c-1.8,0-3.4,0-5.1,0c-2,0-4.1,0-6.1,0c-0.6,0-0.6-0.2-0.6-0.7c0-4.6,0-9.1,0-13.7
	c0-0.6,0.1-0.8,0.7-0.8c6.6,0,13.3,0,19.9,0c0.5,0,0.7-0.1,0.7-0.7c-0.1-1.1,0-2.1,0-3.2c0-0.4,0.1-0.5,0.5-0.5c4.8,0,9.6,0,14.5,0
	c0.4,0,0.5,0.1,0.5,0.5c0,0.1,0,0.2,0,0.3c0,20.8,0,41.5,0,62.3c0,0.7-0.2,0.8-0.8,0.8c-4.6,0-9.3,0-13.9,0c-0.6,0-0.7-0.2-0.7-0.7
	c0-9.9,0-19.7,0-29.6c0-0.8,0-0.8-0.8-0.6c-2.8,0.6-5.4,1.7-8,2.9c-4,1.9-7.6,4.2-11.1,6.9c-2,1.5-3.7,3.2-5.4,5
	c-0.2,0.2-0.4,0.5-0.7,0.8c0.3,0,0.6,0,0.8,0c6.9,0,13.8,0,20.7,0c0.5,0,0.7,0.1,0.7,0.7c0,4.7,0,9.3,0,14c0,0.6-0.2,0.6-0.7,0.6
	c-38.1,0-76.2,0-114.2,0c-0.5,0-0.6-0.2-0.6-0.7c0-9.5,0-19.1,0-28.6c0-0.6,0.2-0.6,0.7-0.6c4.6,0,9.2,0,13.8,0
	c0.6,0,0.7,0.2,0.7,0.7c0,4.4,0,8.9,0,13.3c0,0.4,0.1,0.6,0.5,0.6c8.5,0,16.9,0,25.4,0c0.1,0,0.1,0,0.3,0c-1.1-1.1-2.1-2.2-3.2-3.2
	c-1.5-1.3-3.1-2.6-4.7-3.7c-2.9-1.9-5.9-3.6-9-5.1c-4.1-1.9-8.3-3.4-12.7-4.4c-1.7-0.4-3.4-0.7-5.2-0.9c-2-0.2-3.9-0.4-5.9-0.4
	c-0.6,0-0.6-0.2-0.6-0.7c0-7.4,0-14.8,0-22.2c0-1.1,0-2.1,0-3.2c0-0.5,0.1-0.6,0.6-0.6c4.5,0,9,0,13.5,0c7.3,0,14.6,0,21.9,0
	c0.6,0,0.8,0.1,0.8,0.7c0,4.6,0,9.1,0,13.7c0,0.5-0.1,0.7-0.7,0.7c-3.7,0-7.4,0-11.1,0c20.7,8.1,35,22.5,42.3,43.5
	C102,74.9,116.2,60.5,137,52.4z"/>
<path class="st2" d="M108.4,69c0-11.6,0-23.2,0-34.7c0-0.6-0.1-0.8-0.8-0.8c-8.7,0-17.5,0-26.2,0c-0.6,0-0.7,0.1-0.7,0.7
	c0,11.3,0,22.6,0,33.8c0,0.2,0,0.3,0,0.5c0,0.1,0.1,0.3-0.1,0.3c-0.2,0-0.2-0.1-0.3-0.2c-0.8-0.8-1.6-1.6-2.4-2.4
	c-2.4-2.4-5-4.5-7.7-6.4c-1.3-0.9-2.6-1.8-3.9-2.6c-0.4-0.2-0.5-0.5-0.5-0.8c0-12.3,0-24.7,0-37c0-0.4,0.1-0.6,0.6-0.6
	c18.9,0,37.7,0,56.6,0c0.4,0,0.6,0.1,0.6,0.6c0,12.3,0,24.7,0,37c0,0.4-0.1,0.6-0.4,0.8c-2.2,1.3-4.3,2.8-6.3,4.4
	c-1.9,1.5-3.7,3.1-5.5,4.8C110.2,67.2,109.5,68.2,108.4,69z"/>
<path class="st0" d="M95.7,138c0-9.7,0-19.3,0-29c0-2.9,0.8-5.7,3.1-7.8c1.4-1.3,3-2,4.9-2c19.1,0,38.3,0,57.4,0
	c0.6,0,0.9,0.1,0.9,0.8c-0.1,1.6-0.1,3.1,0,4.7c0,0.7-0.2,0.8-0.8,0.8c-11.2,0-22.4,0-33.6,0c-7.8,0-15.6,0-23.4,0
	c-1,0-1.5,0.4-1.5,1.2c0,0.7,0.6,1.2,1.5,1.2c18.9,0,37.9,0,56.8,0c1,0,0.9-0.1,0.9,0.9c0,1.6,0,3.1,0,4.7c0,0.4-0.1,0.6-0.5,0.5
	c-0.5,0-1,0-1.5,0c-17.1,0-34.3,0-51.4,0c-2,0-3.8,0.6-5,2.4c-0.5,0.8-0.8,1.6-0.8,2.5c0,2.1,0,4.2,0,6.3c0,14,0,28,0,42
	c0,0.7-0.2,0.8-0.8,0.8c-1.8,0-3.7,0-5.5,0c-0.6,0-0.7-0.2-0.7-0.7C95.7,157.5,95.7,147.8,95.7,138z"/>
<path class="st0" d="M93.3,137.5c0,9.9,0,19.7,0,29.6c0,0.6-0.1,0.9-0.8,0.9c-1.8-0.1-3.5-0.1-5.3,0c-0.7,0-0.8-0.2-0.8-0.9
	c0-13.5,0-27.1,0-40.6c0-2.3,0-4.7,0-7c0-2.9-1.8-5-4.7-5.3c-0.7-0.1-1.3-0.1-2-0.1c-17.2,0-34.4,0-51.6,0c-1,0-0.8,0.1-0.9-0.9
	c0-1.5,0-3,0-4.5c0-0.6,0.2-0.7,0.7-0.7c7.7,0,15.4,0,23.2,0c11.2,0,22.4,0,33.6,0c0.6,0,1.2,0,1.5-0.7c0.3-0.8-0.1-1.6-1-1.7
	c-0.2,0-0.4,0-0.6,0c-18.9,0-37.7,0-56.6,0c-0.7,0-0.9-0.2-0.8-0.8c0.1-1.6,0-3.2,0-4.9c0-0.4,0.1-0.6,0.5-0.5c0.2,0,0.3,0,0.5,0
	c19.1,0,38.3,0,57.4,0c2.2,0,3.9,1,5.3,2.7c1.3,1.5,2,3.4,2.4,5.3c0,0.2,0,0.4,0,0.7C93.3,117.8,93.3,127.7,93.3,137.5z"/>
<path class="st0" d="M135.5,116.6c8.5,0,17.1,0,25.6,0c0.6,0,0.8,0.1,0.8,0.8c-0.1,1.6,0,3.2,0,4.7c0,0.5-0.1,0.6-0.6,0.6
	c-0.9,0-1.9,0-2.8,0c-14.9,0-29.8,0-44.7,0c-0.5,0-1,0.1-1.4,0.5c-0.3,0.4-0.4,0.8-0.1,1.2c0.3,0.4,0.6,0.7,1.2,0.7
	c15.8,0,31.7,0,47.5,0c1,0,0.9-0.1,0.9,0.9c0,1.5,0,3,0,4.5c0,0.7-0.2,0.8-0.8,0.8c-14.4,0-28.8,0-43.2,0c-1.3,0-2.5,0.3-3.6,1.1
	c-1.4,1-2.1,2.4-2.1,4c0,10.2,0,20.4,0,30.7c0,1,0.1,0.9-0.9,0.9c-1.8,0-3.5,0-5.3,0c-0.6,0-0.7-0.2-0.7-0.8c0-14.2,0-28.5,0-42.7
	c0-0.8-0.2-1.6-0.2-2.5c0-0.8,0.1-1.6,0.2-2.4c0.3-1.9,1.8-2.7,3.4-2.9c0.9-0.2,1.8-0.1,2.7-0.1
	C119.5,116.6,127.5,116.6,135.5,116.6z"/>
<path class="st0" d="M53.6,116.6c8.5,0,17,0,25.5,0c0.8,0,1.6,0.2,2.4,0.4c1.4,0.5,2.3,1.8,2.3,3.4c0,4.7,0,9.4,0,14.1
	c0,10.8,0,21.7,0,32.5c0,1,0.1,0.9-0.8,0.9c-1.7,0-3.4,0-5.1,0c-1,0-0.9,0.1-0.9-0.9c0-10.1,0-20.2,0-30.3c0-3-1.7-4.9-4.7-5.3
	c-0.7-0.1-1.5-0.1-2.2-0.1c-14,0-28,0-42,0c-0.6,0-0.9-0.1-0.8-0.8c0.1-1.5,0.1-3.1,0-4.6c0-0.7,0.1-0.9,0.8-0.9
	c5.7,0,11.4,0,17.1,0c10.1,0,20.3,0,30.4,0c0.8,0,1.4-0.4,1.4-1.1c0-0.6-0.5-1.2-1.3-1.3c-0.2,0-0.4,0-0.7,0c-15.6,0-31.3,0-46.9,0
	c-0.7,0-0.9-0.1-0.9-0.8c0.1-1.5,0-3,0-4.5c0-0.6,0.1-0.8,0.7-0.7C36.5,116.6,45,116.6,53.6,116.6z"/>
<path class="st0" d="M139.1,133.8c8.3,0,15.2,0,22,0c0.6,0,0.8,0.1,0.7,0.7c0,1.6,0,3.2,0,4.7c0,0.6-0.2,0.8-0.8,0.8
	c-11.8,0-23.6,0-35.5,0c-0.9,0-1.8,0-2.7,0c-0.7,0-1.3,0.5-1.3,1.2c-0.1,0.6,0.6,1.2,1.2,1.3c0.2,0,0.4,0,0.6,0c12.5,0,25,0,37.6,0
	c1,0,0.9-0.1,0.9,0.9c0,1.5,0,3,0,4.5c0,1,0.1,0.8-0.9,0.8c-11.3,0-22.7,0-34,0c-2.9,0-5,1.8-5.4,4.8c-0.1,0.7,0,1.3,0,1.9
	c0,4,0,7.9,0,11.9c0,0.6-0.2,0.7-0.7,0.7c-1.9,0-3.8,0-5.7,0c-0.5,0-0.6-0.1-0.6-0.6c0-9.7,0-19.4,0-29.1c0-0.9,0.1-1.8,0.6-2.6
	c0.8-1.3,2.1-1.7,3.5-1.8C126,133.5,133.3,133.9,139.1,133.8z"/>
<path class="st0" d="M48.5,133.8c6.8,0,13.6,0,20.5,0c1.1,0,2.2,0.2,3.2,0.5c1.4,0.5,2,1.7,2.2,3.2c0.2,1.3,0,2.7,0,4
	c0,8.5,0,17.1,0,25.6c0,0.7-0.2,0.8-0.8,0.8c-1.8,0-3.6,0-5.5,0c-0.5,0-0.6-0.2-0.6-0.6c0-4.5,0-9.1,0-13.6c0-2.5-1.8-4.6-4.3-5
	c-0.6-0.1-1.2-0.1-1.7-0.1c-11.2,0-22.3,0-33.5,0c-0.6,0-0.8-0.2-0.8-0.8c0-1.6,0-3.2,0-4.8c0-0.5,0.1-0.7,0.7-0.7
	c5.5,0,11.1,0,16.6,0c7.1,0,14.3,0,21.4,0c1.1,0,1.5-0.5,1.4-1.4c-0.1-0.6-0.5-0.9-1-1c-0.2,0-0.4,0-0.5,0c-12.6,0-25.2,0-37.8,0
	c-0.7,0-0.9-0.2-0.8-0.9c0.1-1.6,0-3.2,0-4.7c0-0.6,0.2-0.7,0.7-0.7C34.8,133.8,41.6,133.8,48.5,133.8z"/>
</svg>
