<?xml version="1.0" encoding="utf-8"?>
<!-- Generator: Adobe Illustrator 25.2.0, SVG Export Plug-In . SVG Version: 6.00 Build 0)  -->
<svg version="1.1" id="Layer_1" xmlns="http://www.w3.org/2000/svg" xmlns:xlink="http://www.w3.org/1999/xlink" x="0px" y="0px"
	 viewBox="0 0 500 500" enable-background="new 0 0 500 500" xml:space="preserve">
<circle fill="#FFFFFF" cx="249.7" cy="250.3" r="247.5"/>
<g>
	<g>
		<path fill="#FEFDFD" d="M261.1,108.1c65.9,0,131.8,0,197.7,0c1,0,1.2,0.2,1.2,1.2c0,93.8,0,187.6,0,281.3c0,1-0.2,1.2-1.2,1.2
			c-131.8,0-263.6,0-395.4,0c-1,0-1.2-0.2-1.2-1.2c0-93.8,0-187.6,0-281.3c0-1,0.2-1.2,1.2-1.2C129.3,108.1,195.2,108.1,261.1,108.1
			z"/>
		<path fill="#3C5EAB" d="M294,183.6c4.7,7.6,9,15.4,12.3,23.6c5.8,14.1,9,28.7,9.2,44c0.3,19.2-3.9,37.4-11.1,55
			c-2.7,6.6-5.8,12.9-9.1,19.2c-0.2,0.4-0.4,0.8-0.5,1.2c-2.9,3.4-6,6.7-8.9,10.1c-4.2,4.8-8.5,9.5-12.9,14.1
			c-3.3,3.5-6.5,7-10,10.4c-0.1,0.1-0.3,0.2-0.4,0.3c-4.5,2.5-9,5.1-13.6,7.3c-12.8,6.1-26.3,10.2-40.3,12.5
			c-12.4,2-24.8,2.7-37.3,2.2c-14.9-0.6-29.8-1.1-44.7-1c-12.8,0.1-25.5,0.6-38.2,1.5c-3.4,0.3-6.8,0.3-10.2-0.4
			c-7.4-1.4-11.2-5.3-12.6-12.7c-1.1-6-0.8-12-0.7-18.1c0-6.5,0.2-13,0.2-19.5c0.2-20.6,0.3-41.2,0.3-61.8c0-12.4,0.1-24.9,0.1-37.3
			c0-21.6-0.1-43.3-0.1-64.9c0-12,0-23.9,0-35.9c0-1.7,0.3-2.1,2-2.5c6.9-1.8,13.9-1.8,20.9-1c2.5,0.3,4.9,0.7,7.3,1.3
			c4.7,1.2,8.9,3.4,11.4,7.9c0.5,0.9,0.5,1.9,0.5,2.8c0.4,7.8,0.7,15.7,0.9,23.5c0.3,10.6,0.4,21.3,0.3,31.9
			c0,9.4-0.2,18.7-0.3,28.1c-0.1,7.1-0.1,14.3-0.3,21.4c-0.2,12.2-0.2,24.5-0.1,36.7c0.1,9.8,0,19.6,1,29.3c0.4,3.6,0.9,7.2,2,10.6
			c2,6.5,6.4,10.6,12.9,12.4c5.5,1.5,11.1,1.9,16.8,2.1c11,0.5,22,0.1,33,0.3c4.4,0.1,8.7,0.3,13.1,0.3c11,0.1,21.8-0.7,31.9-5.4
			c3.8-1.8,7.3-3.9,10.4-6.7c0.4-0.6,1.1-0.7,1.7-1c7.4-3.3,13.9-8,19.3-14.1c3.7-4,6.6-8.6,8.8-13.6c0.8-1.9,1.7-3.7,2.7-5.4
			c0.6-1,1-2.1,1.3-3.3c4.5-8,7.3-16.6,8.2-25.7c0.9-9.1-0.1-18.1-2-27.1c-1.3-5.8-3-11.5-4.9-17.2c-0.3-1-0.7-2-1-3
			c-0.2-0.6,0.1-1.1,0.4-1.6c3.5-7.5,8.3-14.1,14.3-19.8c4.5-4.2,9.6-7.8,14.9-10.9C293.2,183.6,293.6,183.3,294,183.6z"/>
		<path fill="#1D1E4D" d="M294,183.6c-3.3,1.6-6.4,3.7-9.3,5.9c-9.2,6.8-16.3,15.2-21.1,25.6c-0.1,0.3-0.2,0.6-0.3,0.9
			c-0.1,1.5-1.2,2.5-1.8,3.8c-4,7.5-7.2,15.2-8.1,23.8c-0.9,9-0.3,17.9,2.2,26.6c1.4,5.1,3.3,9.9,5.5,14.7c0.4,1,0.9,1.9,1.5,2.8
			c0.4,0.5,0.6,1.1,0.4,1.7c0,0.8-0.2,1.5-0.6,2.1c-2.4,4.1-4,8.6-6.5,12.7c-5.1,8.3-12,14.7-20.5,19.4c-2,1.1-4.1,2.3-6.3,3
			c-10.3-15.4-17.5-32-20.6-50.3c-1.9-11.2-2.1-22.4-0.7-33.7c2.8-21.9,10-42.3,20.4-61.7c0.1-0.1,0.1-0.2,0.2-0.4
			c0-1,0.8-1.6,1.1-2.5c0.3-0.4,0.7-0.8,1.1-1.2c9.8-9.8,19.6-19.6,29.5-29.5c0.5-0.5,1-1,1.6-1.4c0.3-0.4,0.7-0.7,1.1-0.9
			c14.3-8.2,29.4-14.8,45.5-18.8c12.3-3.1,24.8-4.4,37.5-3.8c24.1,1.3,45.7,9.6,65.1,23.6c13.4,9.6,24.8,21.3,34.8,34.4
			c1.6,2,3.3,3.9,5.1,5.7c1.5,1.5,1.7,3.5,1.9,5.4c0.1,1.8-0.1,3.7-0.5,5.5c-0.1,0.5-0.3,0.9-0.6,1.3c-5.2,5.8-10.5,11.6-16.8,16.3
			c-1.4,1-2.7,2.2-3.9,3.3c-1.7,1.5-3.6,2-5.7,1.2c-4.4-1.8-8.5-4.1-12-7.4c-5.3-5-11-9.5-16.7-14.1c-3.9-3.1-7.6-6.6-11.3-10
			c-11.4-10.7-25-16.6-40.6-17.7c-13.8-0.9-26.8,2.1-39.3,7.6C301.5,179.4,297.6,181.3,294,183.6z"/>
		<path fill="#3E60AC" d="M261.7,146c-0.1,0.2-0.2,0.5-0.4,0.6c-10.5,10.5-21,21-31.6,31.4c-0.6,0.2-1-0.1-1.5-0.3
			c-4.4-1.9-8.8-4-13.4-5.4c-6.6-2.1-13.3-4.1-20.1-5.1c-3.9-0.6-7.9-0.9-11.8,0.3c-3.9,1.2-6.5,3.7-8.1,7.4
			c-2.6,4.5-3,9.5-3.4,14.5c-0.7,8.4-0.5,16.7-0.5,25.1c-0.1,12.3-0.2,24.6-0.2,36.9c0,7.7,0.3,15.3,0.5,23c0.1,2.7-0.6,5.2-1.4,7.7
			c-1.8,3.3-4.8,4.4-8.3,4.6c-2.7,0.1-5.4,0-8-0.5c-3.5-0.6-6.9,0-10.4,0.3c-2.8,0.3-5.5,0.7-8.3,0.1c-3.4-0.7-5.8-2.4-6.9-5.8
			c-0.1-0.2-0.1,0.2-0.3,0.2c-0.4-2.5-0.6-5-0.6-7.5c0-11.7,0-23.4,0-35.1c0-10.5,0-21.1-0.2-31.6c-0.2-9.8-0.2-19.5-0.1-29.3
			c0.2-14.7,0.3-29.4,0.4-44.1c0-2.6,0.6-5.1,1.9-7.3c0.6-1,1.9-1.6,3.1-2c2-0.7,4.1-0.5,6.2-0.4c6,0.2,11.9,0,17.9-0.1
			c11.5-0.3,22.9-0.7,34.4-0.4c12.7,0.4,25.3,1.7,37.6,5.3c11.9,3.5,22.7,9.1,32.5,16.8C261,145.7,261.3,146,261.7,146z"/>
		<path fill="#1D1E4D" d="M262.6,361.5c0.2-0.7,0.9-1.1,1.3-1.6c5.2-5.5,10.4-10.9,15.5-16.4c4.8-5.2,9.4-10.5,14.1-15.8
			c0.4-0.4,0.7-1,1.4-1.1c9.5,4.3,19.4,7.7,29.7,9.4c19.3,3.2,37.2-0.4,53.7-11c11.2-7.2,20.4-16.5,28.8-26.7c2.4-3,4.4-6.1,6-9.6
			c0.6-1.4,1.4-2.7,2.3-3.9c2.5-3.3,5.3-4.1,9.2-2.7c4.5,1.6,8.8,3.7,13,6c6.3,3.5,12.1,7.5,17.7,12.1c1.7,1.4,2,2.8,1.3,4.8
			c-1.4,4.1-3.6,7.9-5.1,12c-0.6,1.5-1.4,2.8-2.5,4c-2.2,2.6-3.8,5.6-5.7,8.4c-4.3,6.4-9.6,11.8-15,17.2c-10.1,10-21.4,18.4-34.1,25
			c-13.2,6.9-27.1,11.4-41.9,13.3c-10.5,1.3-20.9,1.2-31.4-0.3c-13.5-1.9-26.3-6-38.6-11.8C275.4,369.6,268.9,365.7,262.6,361.5z"/>
		<path fill="#3B5DAB" d="M174.8,174.9c-0.5-0.4,0-0.7,0.1-1c2-4.1,5.3-6.5,9.8-7.2c4.3-0.7,8.5-0.2,12.7,0.6
			c6.2,1.2,12.3,2.9,18.3,5c4.8,1.6,9.4,3.8,14,5.8c-0.3,0.9-0.8,1.6-1.3,2.4c-4.4-2.3-8.9-4.4-13.7-5.9c-7.2-2.4-14.4-4.6-21.9-5.6
			c-2.8-0.4-5.6-0.5-8.4-0.1C180.4,169.4,177.1,171.4,174.8,174.9z"/>
		<path fill="#3B5DAB" d="M127.7,281.1c0-0.3,0-0.7,0-1c0.7,1.6,1.5,3,2.7,4.2c1.8,1.7,4,2.2,6.3,2.4c3,0.2,6-0.3,9-0.7
			c2.8-0.3,5.6-0.3,8.4,0.1c3.2,0.5,6.5,0.7,9.7,0.1c2.1-0.4,3.9-1.3,5.2-3.2c0.2-0.3,0.3-0.8,0.9-0.8c-0.7,4.4-4.1,7.2-9.3,7.4
			c-1.8,0.1-3.6,0-5.4-0.3c-4.2-0.9-8.2-0.4-12.3,0.2c-2.1,0.3-4.3,0.5-6.5,0.4C131.1,289.7,127.9,286.4,127.7,281.1z"/>
		<path fill="#FFFFFF" d="M263.1,289.3c-0.1-1-0.9-1.7-1.3-2.5c-5.6-11.3-9.2-23.2-9.2-36c0-11.5,3.4-22,9-31.9c0.6-1,1.2-2,1.8-2.9
			c1.9,4.6,3.3,9.4,4.6,14.1c2.7,9.7,4.3,19.6,3.8,29.7c-0.5,10.1-3.1,19.6-8,28.5C263.6,288.7,263.4,289,263.1,289.3z"/>
	</g>
</g>
</svg>
