<svg xmlns="http://www.w3.org/2000/svg" viewBox="0 0 500 500"  xmlns:v="https://vecta.io/nano"><style><![CDATA[.S{fill:#ba9035}.T{fill:#b78a28}.U{fill:#b4851d}.V{fill:#ceae70}.W{fill:#e6d4b5}.X{fill:#f9f5ef}.Y{fill:#6b472c}.Z{fill:#b18113}.a{fill:#b28216}.b{fill:#b38319}.c{fill:#633e22}.d{fill:#f9f8f7}.e{fill:#f8f7f6}.f{fill:#faf9f8}.g{fill:#faf7f3}.h{fill:#f8f6f3}.i{fill:#faf8f5}.j{fill:#faf8f3}]]></style><circle cx="250" cy="250" r="250" fill="#d20072"/><path d="M250.7 478.14c-125.64.01-228.04-102.07-228.35-227-.32-126.23 101.27-229.28 228.43-229.22 125.9.06 228.84 101.54 228.12 229.48-.71 126.18-102.7 226.47-228.2 226.74zM33.72 249.87c-.39 119.61 96.54 215.43 213.62 217.01 122.28 1.65 219.58-96.44 220.39-215.07.83-121.6-97.26-218.49-216.79-218.7-119.98-.22-217.63 97.5-217.22 216.76z" fill="#b07f12"/><path d="M33.72 249.87C33.31 130.61 130.96 32.89 250.93 33.1c119.53.21 217.63 97.1 216.79 218.7-.81 118.63-98.12 216.72-220.39 215.07-117.08-1.57-214.01-97.39-213.61-217zm15.99-14.03l-4.1.41-1.24 1.33-6.26 5.45c1.03.94 1.87 1.81 2.81 2.55 2.01 1.58 4.07 3.1 6.11 4.65 1.55.04 3.02.09 2.9 2.35-.02.32 1.2.71 1.85 1.07l2.62 4.73 2.87 1.74.47.86 3.18 5.09 3.64-5.03.58-1.31 1.94-.8 1.87-3.75 2.74-2.3c.06-.16.09-.32.11-.49l5.25-2.11 2.1-3.27 1.35-.57 3.84-2.61-6.52-6.18-4.29-1.69-4.15-4.23-1.52-3.49-2.7-1.31.01.01-3.6-5.85-5.98 6.37-2.51 5.48-3.37 2.9zM422.5 247l-.01-.01 1.21 2.1 5.2 1.91 5.47 8.76h.05l.94.23 4.63 5.48-.68-1.12 7.63-6.02c-.35-3.76 4.95-3.65 4.71-6.91l4.25-1.05 1.74-2.81.86-.65c3.92-1.47 4.33-2.97 1.55-5.79-.74-.75-1.56-1.42-2.35-2.12l-.38-.77.01-.07-5.11-2.44-4.16-4.05-.77-2.82-3.47-2.46v-.02l-3.26-5.43-5.35 6.68c-.06-.21-.1-.43-.19-.63-.02-.05-.26-.08-.28-.05-.54.92-1.29 1.79-1.55 2.79-.63 2.49-4.19 5.37-6.77 5.99-1.34.32-2.4 1.79-3.58 2.74l.12 1.05a.67.67 0 0 0-.39.15l-5.9 3.35 5.83 3.99zM102.1 400.72L98.73 396l3.94-2.2c-2.79-2.41-5.27-4.76-7.99-6.78-.74-.55-2.57-.53-3.3.02-1.11.83-2.63 2.72-2.32 3.52.77 2.03 2.11 4.3 3.89 5.38 2.62 1.59 4.15 3.86 5.48 6.28 1.77 3.21 5.14 5.1 7.46 3.68 4.42-2.71 5.36-4.9 4.21-9.75 2.39 2.09 4.59 1.7 6.74-.43 1.26-1.25 2.94-2.19 3.85-3.64 1.04-1.65 1.45-3.69 2.13-5.57l.66-.59 2.23 1.79c2.27-2.88 2.22-5.24-.24-8.09-2.02-2.34-4.19-4.56-6.31-6.83-4.79-5.13-7.85-5-12.4.54l2.51 3.45c-4.48-.18-7.17 1.73-5.98 4.31 1.33 2.88.37 4.64-2.08 7.17l7.9 6.92c-5.62-.92-6.91.05-6.45 4.85l-.56.69zm243.06 14.85l3.51-2.3c-1.74-3.29-4.15-4.44-7.3-3.02-3.62 1.63-7.22 3.36-10.6 5.43-3.24 1.99-3.76 4.64-2.12 8.01.66 1.36 1.42 2.67 2.18 4.11l11.47-5.76c.74-.35 1.76-.13 2.65-.17-.21.9-.18 1.98-.68 2.67-1.94 2.68-1.51 5.81 1.14 7 3.21 1.44 8.32-1.29 8.88-4.74.71-4.35-4.72-10.68-9.14-10.64.01-.2.01-.39.01-.59zm35.94-22.77l-.04-.08c-.07 5.83 4.98 7.96 7.72 11.32l4.79-4.3c-1.28-4.58-9.47-5.41-5.62-12.31l-2.45-2.22-2.91 2.3-.86-.58c.66-1 1.17-2.14 2-2.97 4.77-4.75 3.71-4.65 8.27-.14l8.94 9.04 5.19-5.31-11.35-10.87c-2.91-2.81-5.75-3.24-8.84-.67-3.05 2.54-5.92 5.37-8.49 8.4-2.38 2.8-2.06 5.68-.04 8.18 1.27 1.57 2.37 1.75 3.69.21zM307.03 66.57c-4.78-.51-5.86.13-7.53 4.45l-1.05 2.79c-1.53 4.37-.61 7.14 3.59 8.94 4.14 1.78 8.44 3.28 12.77 4.54 4.09 1.19 6.62-.23 8.14-4.16 1.39-3.6 2.66-7.25 3.9-10.91 1.35-4 .36-6.76-3.5-8.45-4.04-1.77-8.2-3.34-12.45-4.49-4.43-1.21-7.4.66-8.7 4.77l4.78 2.57.05-.05zm-123.38 7.18l4.99 11.63 7.05-3.01-6.76-16.5c-1.68-4.04-4.26-5.65-8.4-4.35-4.93 1.55-9.8 3.49-14.43 5.77-3.98 1.96-4.73 5.03-3.1 9.25l2.96 7.39c3.77 9.28 4.57 9.57 13.86 4.81l-1.24-9.24c3.11-.73 4.53-2.74 4.58-5.76l.24.01h.25zm63.5 349.67v-1.11l3.65-4.15c-1.64-.1-2.1-.24-2.49-.13-2.7.7-5.35 1.94-8.07 2.09-8.35.48-9.08 1.12-8.37 9.45.02.19.22.37.68 1.08 1.88-.59 3.9-1.28 5.96-1.83.75-.2 1.59-.14 2.39-.09l7.39.62.54.51-.64 14.95c-.35 5.75-.42 5.75-6.22 5.32-.11-.01-.22 0-.33-.01-2.03-.07-2.97-.86-2.71-3.13.42-3.63.63-7.3.73-10.95.08-3.01-1.89-4.8-5.41-5.1-2.74-.23-5.32.39-6.17 3.33-.89 3.07.96 4.76 3.73 5.65.28.09.5.37.78.58l-.61 5.65c-.49 5.35 1.44 7.67 6.73 8.05 2.99.22 5.98.43 8.97.5 4.07.1 6.72-1.41 6.99-4.62.71-8.24 1.04-16.51 1.5-24.41l-9.02-2.25zm3.5-11.09c87.16.62 161.37-70.13 162.51-160.12 1.16-91.56-72.91-163.96-161.14-164.64-90.28-.7-164.9 73.15-163.9 164.26.98 89.45 74.76 161.03 162.53 160.5zM382.41 93.55l9.44 10.88c-3.1 2.49-4.76.21-6.67-1.57-2.1-1.96-4.19-4-6.56-5.6-3.57-2.4-6.59-1.88-9.04 1.25 1.01.97 1.97 2.05 3.1 2.9.86.65 1.96 1.43 2.93 1.4 1.95-.04 8.2 4.19 8.45 6.16.06.5-.07 1.17-.38 1.55-1.08 1.32-2.27 2.55-3.42 3.81.07-3.89-2.13-5.96-4.49-8.05-7.41-6.57-8.35-6.53-14.78 1.07-2.51 2.97-2.53 5.39-.06 8.24 2.36 2.73 5.58 3.63 7.94 2.23 2.67-1.59 2.93-3.79.98-8.17-.04-.09-.02-.22-.02-.33 2.91-.18 4.08 1.05 3.37 3.75-.74 2.78-1.71 5.5-2.5 8.27-.23.81-.49 1.84-.19 2.52 1.92 4.34 7 5.03 10.22 1.5 1.94-2.13 3.98-4.18 5.86-6.37 1.84-2.15 3.53-4.42 5.37-6.74l5.72-1.09 2.5 2.28c4.19-3.78 2.54-11.51-2.73-17.13-4.85-5.14-9.8-6.22-15.04-2.76zm-37.72-5.71l2.87-4.74c2.92-4.9.52-10.15-5.17-10.6-1.76-.14-4.48.84-5.25 2.18-.78 1.37.19 3.82.61 5.75.14.63.96 1.11 1.5 1.71l-1.85 2.32c-4.48-1.22-7-.27-8.5 3.07-1.52 3.41-.43 5.93 3.64 8.44 4.41 2.71 4.87 2.58 9.44-2.92.78 3.04 1.05 6.15 2.41 8.66.95 1.76 3.23 3.16 5.21 3.84 1.02.35 3.26-.85 3.99-1.98 3.79-5.84 7.27-11.87 10.98-18.05l-6.61-4.01-9.41 15.38-3.86-9.05zm-223.36 32.4c-.29-.08-.43-.07-.5-.13l-8.1-8.33c-4.09-4.24-10.25-2.8-11.69 2.94-.37 1.46.1 3.74 1.09 4.76 1 1.03 3.11 1.16 4.77 1.3.85.07 1.78-.69 2.05-.81l11.31 10.33c5.24-2.44 5.83-7.58 6.84-12.27 1.66.19 3.06.56 4.42.46 2.93-.23 5.83-3.27 6-6.22.15-2.48-1.1-4.99-3.4-4.94-3.17.07-4.21-2.06-5.93-3.68l-8.61-8.02-5.27 6.32c2.89 2.52 6.05 5.14 9.03 7.96.63.59 1.02 2.01.78 2.83-.72 2.51-1.8 4.93-2.79 7.5zm265.33 20.65c1.79 5.92 6.69 7.4 11.63 9.21-2.61 3.21-1.93 6 .2 8.73 1.63 2.08 4.01 3.14 6.14 2.01 1.8-.96 2.87-3.3 4.26-5.02l-.44-.18 12.89-8.92-4.45-6.36-11.97 8.22-8.6-4.86c3.81-2.69 7.55-5.2 11.14-7.92 2.86-2.17 3.07-4.87.94-8.21-1.93-3.03-5.06-4.29-7.61-3.07-2.52 1.21-3.08 3.59-1.8 7.56.06.18-.04.41-.03.31l-12.3 8.5zm-118.1-81.86c-4.27 2.26-3.73 6.13-4.18 9.54-.49 3.74.93 6.18 4.57 6.97 4.95 1.08 10.01 1.75 15.06 2.19 3.28.29 5.46-1.57 6.02-4.93.69-4.14 1.42-8.28 1.92-12.45.5-4.15-.86-6.29-5.01-7.25-4.19-.97-8.48-1.76-12.75-1.96-2.1-.1-4.57.88-6.33 2.14-1.97 1.42-2.55 3.67.7 5.75zM88.97 152.47l4.05 2.85c3.35 2.23 6.08 2.2 8.56-.81 2.88-3.49 5.57-7.21 7.74-11.16.9-1.64 1.01-4.54.15-6.17-2.63-4.98-9.03-6.72-14-4.41-.09.04-.32-.23-.57-.42l2.53-4.19c-3.22-2.24-5.97-2.26-8.31.62-2.85 3.51-5.49 7.26-7.71 11.2-2.06 3.66-1.06 6.4 2.4 8.87 1.24.88 2.5 1.72 3.78 2.59l3.25-3.53.61.54-2.48 4.02zm108.4 284.66c-.76-5.38-.96-5.6-5.66-7.19-8.74-2.96-9.5-2.52-12.18 6.18-.82 2.66-.14 4.65 2.06 6.01 2.33 1.44 4.91 2.26 7.47.45 2.05-1.45 2.25-4.48.37-6.43-.63-.65-1.65-.93-2.49-1.38l1.08-1.26c1.75.04 3.38.29 3.73 2.74.34 2.41.81 4.82.93 7.24.18 3.57 3.1 3.26 5.26 3.77 2.15.51 3.56-.77 4.22-2.82l3.92-12.3c.94-2.92-.16-5.34-2.72-6.36-4.49-1.79-9.14-3.29-13.85-4.34-2.86-.64-5.41.64-6.55 4.44 2.82-.3 4.93 3.34 7.95.45.32-.31 1.31-.11 1.9.09 7.79 2.72 7.46 1.31 4.99 8.7-.11.4-.17.84-.43 2.01zM301.99 435l1.82 7.15c.79 3.23 2.99 4.89 6.1 4.22 4.51-.97 8.96-2.36 13.32-3.9 2.26-.8 3.64-2.92 3-5.33-2.16-8.09-4.57-16.1-6.95-24.36l-6.68 2.02 5.55 19.04c1.75 5.94 1.75 5.86-4.36 7.45-2.09.54-3.08-.02-3.58-2.08-.82-3.32-1.82-6.6-2.71-9.91-.65-2.4-1.98-3.86-4.66-3.85-2.83.01-5.34.68-6.71 3.37-1.22 2.39.32 5.28 3.03 5.93.92.23 1.92.18 2.83.25zm104.06-84.9l8.9 6.22c.65.47 1.53 1.31 1.49 1.91-.21 2.55-.73 5.07-1.19 7.99l-9.95-6.78c-2.61-1.67-5.27-1-7.19 1.68-1.66 2.3-2.7 4.89-.42 7.23 2.35 2.41 4.82 1.45 7.01-.6.12-.11.4-.05.34-.04l10.77 7.46c4.5-3.26 4.18-7.83 4.16-12.27 1.25 0 2.27.14 3.23-.03 2.66-.46 4.99-3.57 4.84-6.36-.13-2.43-1.58-4.64-3.77-4.12-2.89.68-4.16-1.15-5.93-2.28-2.77-1.77-5.43-3.72-8.33-5.74l-3.96 5.73zM270.67 453.31c5.64 1.63 8.6-2.13 11.97-4.93.61.78 1.05 1.54 1.67 2.09 2.13 1.89 6.59 1.62 8.56-.45 1.89-1.98 1.51-4.33-.91-6.84-.5-.52-.65-1.47-.76-2.25l-1.67-12.32-6.84 1.01 1.42 10.89c.09.79.1 2.04-.36 2.36-2.12 1.45-4.42 2.65-6.92 4.09l-1.65-11.7c-.47-3.08-2.55-4.5-6.02-4.23-3.37.26-5.57 1.98-5.6 4.56-.04 3.44 2.18 4.54 5.18 4.73.15.01.29.29.25.25l.83 6.79.85 5.95zm-14.9-396.78c-.06-4.81-1.29-6.54-5.38-7-2.94-.33-5.96-.09-8.94-.02-9.9.24-11.57 2.26-10.14 12.24l13.87-.04c2.23-.06 3.42.54 2.97 2.97-4.69 1.45-6.62 4.45-4.75 7.61 1.74 2.95 4.7 3.16 7.63 2.63 2.85-.51 4.88-2.12 4.85-5.38l-.09-7.31c-.07-2.45-1.46-3.97-3.74-4.44-1.81-.38-3.71-.4-5.57-.45-2.6-.07-5.21-.02-7.84-.02.44-2.68 6.23-4.83 8.12-2.69 2.82 3.19 5.9 1.06 9.01 1.9zM131.12 397.85c-1.5 1.87-3.08 3.72-4.54 5.67-2.17 2.9-2.23 5.3.43 7.67 3.22 2.86 6.63 5.63 10.37 7.7 1.62.89 5.22.8 6.29-.35 4.1-4.42 7.54-9.45 11.31-14.35l-5.62-4.23-7.48 9.92c-3.85 5.12-3.81 5.08-8.74 1.03-1.56-1.28-1.71-2.33-.46-3.87 2.1-2.58 4.03-5.3 6.12-7.89 1.53-1.9 2.56-4.14.76-5.98-1.64-1.68-3.99-3.18-6.25-3.62-2.76-.53-4.61 2.34-3.77 5.13.33 1.13 1.05 2.14 1.58 3.17zm-27.7-33.6c3.22-1.96 4.28-4.23 2.63-7.13-2.14-3.73-4.64-7.29-7.3-10.67-1.61-2.06-4.07-2.79-6.58-1.4-1.72.95-3.28 2.19-5 3.36 2.49 3.71 4.93 7.14 7.11 10.73.49.81.07 2.16.07 3.87-4.44-3.19-7.38-3.43-8.45-.74-.69 1.73-.47 4.5.53 6.05 1.01 1.56 3.53 3.12 5.3 3.02 4.73-.27 9.02-5.65 9.03-10.7l2.66 3.61zm122.3-288.31l-3.85-18.67c-.69-3.32-2.86-5.24-6.12-4.84-4.69.58-9.44 1.38-13.93 2.83-4.17 1.35-5.12 4.59-3.45 8.88l6.7-1.33c.22-3.99.65-4.29 5.84-5.05 2.13-.31 3.27.17 3.69 2.53 1.01 5.64 2.27 11.23 3.48 17.1l7.64-1.45zm-62.14 20.58l-10.19-15.7c-2.16-3.23-4.91-4.17-8.31-2.35-3.78 2.03-7.48 4.36-10.81 7.06-3.61 2.91-3.59 6.33-.56 10.2l6.01-3.88c-1.41-3.7-.92-4.3 3.77-6.98 3-1.72 3.67.68 4.77 2.31l8.84 13.57 6.48-4.23zm5.45 340.58c2.71-5.35 5.48-10.49 7.92-15.77 1.07-2.31.43-4.85-1.83-6.15-3.81-2.18-7.72-4.31-11.83-5.8-3.46-1.25-5.62.38-6.94 4.22.42.27.85.6 1.32.84l4.09 2.04c2.39-2.44 4.45-2.34 7.68.18 2.33 1.83.35 3.4-.37 4.9-1.98 4.13-4.13 8.17-6.26 12.33l6.22 3.21zm45.58-8.99l-2.95 16.33c-.89 5.06 1.6 7.92 6.77 7.25 1.53-.2 3.64-1.66 4.06-2.99.41-1.33-.82-3.29-1.63-4.81-.34-.64-1.44-.88-1.9-1.14l2.45-13.08c-.64-.32-.92-.54-1.23-.6l-5.57-.96zM112.4 354.08c.26-.19.48-.4.74-.53 2.73-1.41 3.03-3.61 1.91-6.16-1.15-2.63-4.2-4.4-6.39-3.64-3 1.03-3.58 3.47-2.91 6.18 1.4 5.63 4.92 9.62 10.36 11.56 2.76.98 5.62.68 7.98-1.96l-4.08-5.15c-3.96 2.15-4.89 2.1-7.61-.3zm257.96 59.6c-.4-.72-.63-1.22-.94-1.66-1.58-2.2-3.64-2.25-5.86-1.17-2.5 1.21-4.19 3.13-3.64 6.03.48 2.55 2.49 3.41 4.98 3.37 5.29-.08 12.51-5.96 13-11.04.2-2.12-.56-4.33-1-7.3l-6.87 4.89c1.72 2.29 2.94 4.38.33 6.88zm-1.6-21.07l-5.69 4.09c2.11 3.85 2.52 4.89.12 6.66-2.27-3.32-4.12-3.95-7.06-2.4-2.89 1.52-4.19 4.43-3.04 6.81 1.17 2.44 4.2 3.6 7.48 1.78 3.36-1.87 6.57-4.41 9.06-7.34 2.49-2.92 1.84-6.14-.87-9.6zm14.06-23.1c-.35-.24-.68-.37-.85-.6-1.85-2.5-4.07-2.35-6.35-.77-2.49 1.73-3.58 5.24-2.21 7.26 1.65 2.42 4.08 2.62 6.48 1.42 5.04-2.52 8.27-6.6 9.26-12.18.55-3.12-.41-5.84-3.38-7.79l-4.47 5.25c2.64 2.13 3.4 4.49 1.52 7.41z" class="c"/><path d="M250.65 412.33c-87.78.53-161.55-71.05-162.53-160.5-1-91.11 73.62-164.96 163.9-164.26 88.23.68 162.3 73.08 161.14 164.64-1.14 89.99-75.35 160.74-162.51 160.12zm-.2-2.86c87.99-.14 159.51-70.98 159.7-159.06.2-89.73-73.39-161.07-161.92-159.74-85.62 1.28-156.86 70.98-157.09 159.31-.23 87.53 71.79 159.51 159.31 159.49z" class="h"/><path d="M382.41 93.55c5.24-3.46 10.19-2.39 15.03 2.77 5.27 5.62 6.92 13.34 2.73 17.13l-2.5-2.28-5.72 1.09c-1.84 2.32-3.53 4.59-5.37 6.74-1.88 2.19-3.91 4.24-5.86 6.37-3.22 3.53-8.3 2.83-10.22-1.5-.3-.69-.04-1.72.19-2.52.79-2.77 1.76-5.49 2.5-8.27.72-2.71-.46-3.93-3.37-3.75.01.11-.02.23.02.33 1.95 4.38 1.69 6.58-.98 8.17-2.35 1.4-5.57.5-7.94-2.23-2.47-2.85-2.45-5.27.06-8.24 6.42-7.59 7.36-7.64 14.78-1.07 2.36 2.09 4.56 4.17 4.49 8.05 1.15-1.26 2.34-2.49 3.42-3.81.31-.38.44-1.05.38-1.55-.25-1.97-6.5-6.2-8.45-6.16-.98.02-2.07-.75-2.93-1.4-1.13-.85-2.09-1.94-3.1-2.9 2.45-3.13 5.47-3.65 9.04-1.25 2.37 1.6 4.46 3.64 6.56 5.6 1.91 1.78 3.57 4.05 6.67 1.57l-9.43-10.89zm15.39 12.5c-.02-5.35-3.77-9.48-8.15-9.3l8.15 9.3zM365.05 110c-.79 1.26-1.82 2.27-1.62 2.71.37.82 1.41 1.45 2.31 1.83.21.09 1.5-1.27 1.38-1.72-.22-.88-1.1-1.58-2.07-2.82zm14.81 4.69l-.3-.58-.8.44c.09.15.21.42.28.41.28-.03.54-.17.82-.27zM248.27 429.36l-7.39-.62c-.79-.06-1.64-.12-2.39.09l-5.96 1.83c-.46-.71-.66-.89-.68-1.08-.71-8.33.02-8.97 8.37-9.45 2.72-.16 5.38-1.39 8.07-2.09.4-.1.86.03 2.49.13l-3.65 4.15c-2.73.19-5.47.44-8.21.54-2.17.08-2.8.99-2.23 2.64 2.01-.11 3.77-.01 5.44-.35 1.71-.35 3.33-1.12 5-1.71l8.98 2.25-1.5 24.41c-.28 3.2-2.93 4.71-6.99 4.62-2.99-.07-5.99-.28-8.97-.5-5.29-.38-7.22-2.7-6.73-8.05.17-1.87.4-3.74.61-5.65-.28-.21-.5-.49-.78-.58-2.77-.89-4.62-2.58-3.73-5.65.86-2.94 3.44-3.57 6.17-3.33 3.52.3 5.49 2.1 5.41 5.1-.09 3.66-.3 7.32-.73 10.95-.26 2.27.68 3.06 2.71 3.13.11 0 .22 0 .33.01 5.8.43 5.87.43 6.22-5.32.3-4.98.43-9.97.64-14.95l.09-.77c-.18.07-.38.16-.59.25z" class="e"/><path d="M183.16 73.74c-.06 3.02-1.48 5.03-4.58 5.76l1.24 9.24c-9.28 4.76-10.09 4.47-13.86-4.81L163 76.54c-1.64-4.22-.88-7.29 3.1-9.25a102.64 102.64 0 0 1 14.43-5.77c4.14-1.3 6.72.31 8.4 4.35l6.76 16.5-7.05 3.01-4.99-11.63c-.19-.21-.38-.43-.56-.64l-.4-1.59c-.96-1.84-.43-5.14-4.05-4.42-8.58 1.69-9.58 3.5-6.47 11.4l.65 1.62c-.12-3.36-1.67-6.96 2.49-9.12 2.56-1.33 4.88-.86 7.07.82l.78 1.24c-.01.22 0 .45 0 .68z" class="d"/><path d="M344.69 87.84l3.88 9.07 9.41-15.38 6.61 4.01-10.98 18.05c-.73 1.12-2.97 2.33-3.99 1.98-1.99-.68-4.27-2.08-5.21-3.84-1.36-2.52-1.63-5.62-2.41-8.66-4.57 5.5-5.03 5.63-9.44 2.92-4.07-2.5-5.16-5.03-3.64-8.44 1.5-3.34 4.02-4.29 8.5-3.07l1.85-2.32c-.55-.59-1.37-1.08-1.5-1.71-.42-1.93-1.39-4.39-.61-5.75.77-1.34 3.49-2.32 5.25-2.18 5.69.45 8.1 5.7 5.17 10.6l-2.89 4.72zm-2.02-7.34c.85-1.18 1.91-2.09 1.74-2.55-.32-.86-1.24-1.71-2.12-2.05-.35-.13-1.82 1.2-1.73 1.69.15.87 1.09 1.6 2.11 2.91z" class="f"/><path d="M121.33 120.24l2.79-7.5c.24-.83-.15-2.24-.78-2.83-2.98-2.82-6.14-5.44-9.03-7.96l5.27-6.32 8.61 8.02c1.71 1.62 2.76 3.75 5.93 3.68 2.3-.05 3.54 2.46 3.4 4.94-.17 2.95-3.08 5.99-6 6.22-1.36.11-2.76-.27-4.42-.46-1.01 4.68-1.61 9.83-6.84 12.27l-11.31-10.33c-.27.12-1.19.88-2.05.81-1.66-.14-3.77-.27-4.77-1.3-.99-1.02-1.46-3.3-1.09-4.76 1.45-5.74 7.6-7.17 11.69-2.94l8.1 8.33c.07.06.21.05.5.13zm-15.17-2.28c1.05-1.29 2.04-2.01 2.16-2.85.08-.55-1.19-1.87-1.71-1.8-.77.11-1.78 1.05-1.98 1.81-.15.62.76 1.5 1.53 2.84zm24.89-2.47c1.02-1.22 1.91-1.9 2.19-2.77.14-.42-1.09-1.81-1.31-1.73-.91.35-1.96.94-2.38 1.74-.22.41.76 1.46 1.5 2.76z" class="d"/><path d="M386.66 140.89l12.31-8.5c-.01.1.08-.13.03-.31-1.28-3.97-.72-6.35 1.8-7.56 2.54-1.23 5.68.04 7.61 3.07 2.13 3.34 1.92 6.04-.94 8.21-3.59 2.72-7.33 5.23-11.14 7.92l8.6 4.86 11.97-8.22 4.45 6.36-12.89 8.92.44.18c-1.39 1.73-2.46 4.06-4.26 5.02-2.13 1.14-4.51.07-6.14-2.01-2.13-2.72-2.81-5.51-.2-8.73-4.95-1.81-9.85-3.3-11.64-9.21zm19.91-10.48c-1.24-1.07-1.92-2-2.81-2.28-.43-.14-1.87 1.14-1.77 1.43.3.92.96 1.98 1.77 2.38.45.22 1.5-.77 2.81-1.53zm-1.45 25.02c-1.22-1.05-1.91-1.95-2.8-2.26-.41-.14-1.82 1.09-1.74 1.35.31.92.91 2 1.71 2.38.48.22 1.53-.76 2.83-1.47zm-136.56-96.4c-3.25-2.08-2.67-4.33-.7-5.75 1.76-1.26 4.23-2.24 6.33-2.14 4.28.2 8.57.99 12.75 1.96 4.15.96 5.51 3.11 5.01 7.25-.5 4.17-1.23 8.31-1.92 12.45-.56 3.36-2.74 5.22-6.02 4.93-5.05-.45-10.11-1.12-15.06-2.19-3.63-.79-5.05-3.24-4.57-6.97.44-3.41-.09-7.28 4.18-9.54zm.59-.74l-.76.18.74.5c.99-.01 1.99-.06 2.98-.03 3.03.11 5.63 2.24 5.89 4.79.32 3.13-.96 4.58-4.78 5.48-.48.11-.92.43-1.43.67 1.59 1.92 8.12 3.66 9.71 2.58.53-.36.9-1.2 1.03-1.88.54-2.93 1.12-5.86 1.38-8.82.13-1.47-.11-4.16-.68-4.3-2.79-.69-6.8-1.97-8.38-.65-2.07 1.74-3.67 1.53-5.7 1.48zm3.01 8.52c.8-1.27 1.71-2.09 1.6-2.71-.12-.66-1.23-1.56-1.9-1.56-.65 0-1.93 1.18-1.83 1.55.22.84 1.12 1.51 2.13 2.72z" class="f"/><path d="M88.97 152.47l2.47-4.02-.61-.54-3.25 3.53-3.78-2.59c-3.46-2.47-4.47-5.21-2.4-8.87 2.22-3.94 4.86-7.69 7.71-11.2 2.34-2.87 5.09-2.86 8.31-.62l-2.53 4.19c.25.19.48.46.57.42 4.98-2.31 11.37-.57 14 4.41.86 1.63.76 4.53-.15 6.17-2.17 3.95-4.86 7.68-7.74 11.16-2.48 3-5.21 3.03-8.56.81-1.28-.85-2.52-1.78-4.04-2.85zm5.68-18.56l.4-.95-1 .4-.43.86c-2.62.26-6.1 3.17-6.54 5.8-.13.77.61 1.69 1.21 3.19l5.87-8.49.49-.81zm-1.04 12.35c1.2.83 2.25 1.45 3.17 2.24 1.52 1.3 2.73 1.13 3.84-.49.87-1.28 1.99-2.44 2.59-3.83.33-.76.12-2.18-.42-2.77-1.02-1.12-2.4-1.96-3.75-2.7-.52-.29-1.74-.25-2.02.11-2.21 2.87-4.27 5.85-6.38 8.8l.67.52 2.3-1.88z" class="d"/><path d="M306.98 66.61l-4.78-2.56c1.3-4.11 4.27-5.98 8.7-4.77 4.24 1.16 8.41 2.73 12.45 4.49 3.85 1.69 4.84 4.45 3.5 8.45-1.23 3.66-2.51 7.31-3.9 10.91-1.51 3.93-4.05 5.35-8.14 4.16-4.33-1.26-8.63-2.76-12.77-4.54-4.19-1.81-5.12-4.57-3.59-8.94.33-.94.69-1.86 1.05-2.79 1.67-4.32 2.75-4.96 7.53-4.45 2.87.87 5.44 2.12 5.49 5.64.07 4.88-3.93 4.65-7.22 5.19 1.13 2 7.1 4.97 8.81 4.38.68-.24 1.37-1.07 1.65-1.79 1.29-3.28 2.52-6.59 3.56-9.95.26-.85.02-2.53-.53-2.82-2.13-1.12-4.42-2.09-6.76-2.57-.87-.18-2 1.26-3.1 1.78-.56.27-1.3.13-1.95.18zm2.4 5.35c-1.45-.98-2.25-1.9-3.11-1.97-.54-.04-1.7 1.26-1.63 1.85.08.68 1.14 1.63 1.89 1.75.65.1 1.46-.79 2.85-1.63z" class="f"/><path d="M197.37 437.13l.46-2.01c2.47-7.4 2.8-5.98-4.99-8.7-.59-.21-1.58-.4-1.9-.09-3.02 2.88-5.13-.75-7.95-.45 1.14-3.8 3.69-5.07 6.55-4.44 4.71 1.05 9.36 2.55 13.85 4.34 2.56 1.02 3.66 3.44 2.72 6.36l-3.92 12.3c-.66 2.05-2.07 3.33-4.22 2.82s-5.07-.2-5.26-3.77c-.12-2.42-.59-4.83-.93-7.24-.35-2.45-1.98-2.7-3.73-2.74l-1.08 1.26c.84.45 1.86.72 2.49 1.38 1.88 1.95 1.68 4.99-.37 6.43-2.57 1.81-5.14.99-7.47-.45-2.2-1.36-2.88-3.35-2.06-6.01 2.68-8.7 3.44-9.14 12.18-6.18 4.67 1.59 4.87 1.81 5.63 7.19z" class="e"/><path d="M301.99 435c-.91-.07-1.91-.02-2.85-.25-2.72-.64-4.25-3.54-3.03-5.93 1.37-2.69 3.89-3.35 6.71-3.37 2.67-.01 4.01 1.45 4.66 3.85l2.71 9.91c.51 2.06 1.49 2.62 3.58 2.08 6.11-1.59 6.11-1.51 4.36-7.45l-5.55-19.04 6.68-2.02 6.95 24.36c.64 2.4-.74 4.53-3 5.33-4.36 1.54-8.8 2.93-13.32 3.9-3.1.66-5.31-.99-6.1-4.22l-1.8-7.15z" class="d"/><path d="M434.37 259.76L428.9 251l-5.2-1.91c.87-.06 1.77-.01 2.61-.19 3.63-.81 5.82-4.23 4.05-6.66-.65-.88-2.54-.86-3.86-1.25l.96-1.32 2.53-.48c-2.75-1.64-4.87-2.31-7.19-.74 1.19-.95 2.25-2.42 3.58-2.74 2.58-.61 6.15-3.5 6.77-5.99.25-1 1.01-1.87 1.55-2.79.02-.03.25 0 .28.05.09.2.13.42.19.63v3.55l1.06-.33 1.8 2.78c1.08 2.89 2.76 2.12 4.53.74 2.91-.7 4.46-2.55 4.69-5.53l.77 2.82 4.16 4.05 5.11 2.45c-3.51-.5-4.99 2.67-7.31 4.24-.53.35-.47 2.76.16 3.42 1.66 1.75 3.79 3.07 5.73 4.55l-4.25 1.05c.25 3.27-5.06 3.15-4.71 6.91l-4.16-6.31c-1.54-1.88-4.09-1.25-4.95 1-.18.47-.26 1.37-.47 1.39-3.51.43-2.51 3.3-2.96 5.37zm6.05-19.82c-1.07 1.91-2.13 2.96-2.06 3.93.06.81 1.65 2.26 2.21 2.11.98-.26 2.26-1.48 2.35-2.4.08-.86-1.2-1.86-2.5-3.64zm-4.44 10.92c-1.49-1.11-2.37-2.27-3.25-2.26-.72 0-1.44 1.39-2.15 2.16.79.71 1.5 1.82 2.39 2 .67.14 1.57-.93 3.01-1.9zm11.65-2.86c-.85 1.7-1.73 2.66-1.64 3.52.08.73 1.51 2.01 1.94 1.87.93-.32 2.15-1.35 2.22-2.17.05-.78-1.22-1.65-2.52-3.22zm3.58-11.46c-1.5-.94-2.4-1.91-3.34-1.95-.63-.03-1.32 1.27-1.98 1.97.8.73 1.51 1.85 2.41 2.04.64.13 1.54-1.03 2.91-2.06zm-14.62-.56c-1.52-.82-2.34-1.63-2.96-1.5-.86.18-1.56 1.08-2.34 1.66.62.71 1.3 2.06 1.83 2 .96-.1 1.81-1.05 3.47-2.16z" class="S"/><path d="M406.05 350.1l3.96-5.73c2.9 2.01 5.56 3.97 8.33 5.74 1.77 1.13 3.04 2.96 5.93 2.28 2.18-.52 3.64 1.69 3.77 4.12.15 2.79-2.18 5.9-4.84 6.36-.96.17-1.98.03-3.23.03.01 4.44.34 9.01-4.16 12.27l-10.77-7.46c.06-.01-.22-.07-.34.04-2.19 2.05-4.66 3.02-7.01.6-2.28-2.34-1.24-4.93.42-7.23 1.93-2.67 4.59-3.34 7.19-1.68 3.25 2.08 6.39 4.34 9.95 6.78.47-2.91.98-5.44 1.19-7.99.05-.6-.84-1.44-1.49-1.91-2.85-2.07-5.77-4.05-8.9-6.22zM270.67 453.31l-.85-5.94-.83-6.79c.04.04-.09-.24-.25-.25-3-.2-5.22-1.29-5.18-4.73.03-2.57 2.23-4.3 5.6-4.56 3.47-.27 5.55 1.15 6.02 4.23l1.65 11.7 6.92-4.09c.46-.31.45-1.57.36-2.36-.4-3.51-.9-7.01-1.42-10.89l6.84-1.01 1.67 12.32c.11.78.26 1.73.76 2.25 2.42 2.51 2.79 4.86.91 6.84-1.97 2.07-6.43 2.33-8.56.45-.62-.55-1.06-1.31-1.67-2.09-3.36 2.79-6.33 6.55-11.97 4.92zM109.1 395.18l-7.9-6.92c2.45-2.53 3.41-4.29 2.08-7.17-1.2-2.58 1.5-4.49 5.98-4.31l-2.51-3.46c4.55-5.53 7.62-5.66 12.4-.53 2.11 2.27 4.28 4.48 6.31 6.83 2.46 2.85 2.51 5.22.24 8.09l-2.23-1.79-.83-.91-.39.24.56 1.26c-.68 1.87-1.09 3.92-2.13 5.57-.92 1.44-2.59 2.39-3.85 3.64-2.15 2.13-4.35 2.52-6.74.43l-.99-.97zm3.44-14.78c-.38 1.53-.5 3.03-1.13 4.26-.68 1.34-1.85 2.43-2.9 3.76l2.22 2.85c8.35-6.33 7.69-5.75 1.81-10.87zm1.2-4.58l6.99 7.51c.75-3.79-3.48-8.42-6.99-7.51z" class="e"/><path d="M255.77 56.53c-3.11-.84-6.2 1.29-9-1.89-1.89-2.14-7.69.01-8.12 2.69l7.84.02c1.86.05 3.76.07 5.57.45 2.28.47 3.67 2 3.74 4.44l.09 7.31c.02 3.26-2 4.87-4.85 5.38-2.93.53-5.89.31-7.63-2.63-1.87-3.16.06-6.16 4.75-7.61.46-2.43-.73-3.03-2.96-2.98-4.62.12-9.25.04-13.87.04-1.43-9.98.24-12 10.14-12.24 2.98-.07 5.99-.31 8.94.02 4.07.45 5.3 2.19 5.36 7zm-6.54 10.96c-.94 1.04-1.96 1.67-1.96 2.3 0 .65 1.1 1.9 1.53 1.82.84-.15 1.79-.91 2.2-1.68.16-.33-.93-1.32-1.77-2.44z" class="f"/><path d="M131.12 397.85c-.53-1.02-1.24-2.04-1.58-3.16-.84-2.79 1.01-5.66 3.77-5.13 2.26.43 4.6 1.94 6.25 3.62 1.8 1.84.77 4.08-.76 5.98l-6.12 7.89c-1.25 1.54-1.1 2.6.46 3.87 4.94 4.05 4.89 4.1 8.74-1.03l7.48-9.92 5.62 4.23c-3.77 4.9-7.2 9.93-11.31 14.35-1.07 1.15-4.67 1.25-6.29.35-3.74-2.06-7.16-4.84-10.37-7.7-2.66-2.36-2.6-4.76-.43-7.67 1.45-1.96 3.04-3.82 4.54-5.68zm249.98-5.05c-1.32 1.54-2.42 1.36-3.68-.21-2.02-2.5-2.33-5.38.04-8.18 2.57-3.03 5.43-5.86 8.49-8.4 3.1-2.57 5.93-2.14 8.84.67l11.35 10.87-5.19 5.31-8.94-9.04c-4.57-4.51-3.51-4.61-8.27.14-.83.83-1.34 1.97-2 2.97l.86.58 2.91-2.3 2.45 2.22c-3.85 6.9 4.34 7.73 5.62 12.31l-4.79 4.3c-2.74-3.36-7.79-5.49-7.72-11.32l.47.21c.03-.1.07-.2.1-.3-.19.06-.36.12-.54.17z" class="d"/><path d="M103.42 364.25l-2.68-3.61c-.01 5.05-4.3 10.43-9.03 10.7-1.77.1-4.29-1.46-5.3-3.02-1-1.54-1.22-4.31-.53-6.05 1.07-2.7 4.02-2.45 8.45.74 0-1.71.42-3.06-.07-3.87-2.18-3.59-4.62-7.02-7.11-10.73 1.72-1.17 3.28-2.42 5-3.36 2.51-1.38 4.97-.65 6.58 1.4 2.66 3.39 5.16 6.94 7.3 10.67 1.68 2.9.61 5.17-2.61 7.13zm-3.64-4.72l.29.68c.07-.07.14-.13.21-.2l-.57-.42c1.79-3.47-.51-5.76-2.5-8-.4-.45-1.73-.06-3.45-.06l6.02 8z" class="e"/><path d="M345.16 416.16c4.42-.03 9.85 6.29 9.14 10.64-.56 3.45-5.68 6.18-8.88 4.74-2.65-1.19-3.09-4.32-1.14-7 .5-.69.47-1.77.68-2.67-.89.04-1.91-.19-2.65.17-3.79 1.8-7.5 3.75-11.47 5.76-.77-1.43-1.52-2.75-2.18-4.11-1.64-3.37-1.12-6.03 2.12-8.01 3.38-2.07 6.98-3.8 10.6-5.43 3.14-1.41 5.56-.27 7.3 3.02l-3.51 2.3-.71.38.7.21zm-10.19 5.14l8.87-4.64c-3.68-2.14-6.28-.11-8.82 1.72-.39.29-.05 1.61-.05 2.92z" class="d"/><path d="M225.72 75.94l-7.63 1.45-3.48-17.1c-.42-2.36-1.55-2.84-3.69-2.53-5.19.75-5.63 1.05-5.84 5.05l-6.7 1.33c-1.67-4.3-.72-7.53 3.45-8.88 4.48-1.45 9.23-2.25 13.93-2.83 3.26-.4 5.43 1.52 6.12 4.84l3.84 18.67zm-62.14 20.58l-6.49 4.23-8.84-13.57c-1.09-1.64-1.76-4.03-4.77-2.31-4.69 2.68-5.17 3.28-3.77 6.98l-6.01 3.88c-3.03-3.87-3.04-7.29.56-10.2 3.34-2.69 7.03-5.03 10.81-7.06 3.4-1.82 6.16-.88 8.31 2.35l10.2 15.7z" class="f"/><path d="M169.03 437.1l-6.22-3.2 6.26-12.33c.72-1.5 2.71-3.07.37-4.9-3.23-2.52-5.29-2.62-7.68-.18l-4.09-2.04c-.47-.24-.9-.57-1.32-.84 1.32-3.85 3.48-5.48 6.94-4.22 4.11 1.49 8.02 3.62 11.83 5.8 2.27 1.3 2.9 3.84 1.83 6.15-2.45 5.28-5.21 10.42-7.92 15.76z" class="d"/><path d="M109.1 395.18l1 .97c1.16 4.85.22 7.04-4.21 9.75-2.32 1.42-5.69-.47-7.46-3.68-1.34-2.42-2.87-4.69-5.48-6.28-1.78-1.08-3.11-3.35-3.89-5.38-.31-.81 1.21-2.69 2.32-3.52.73-.55 2.56-.57 3.3-.02 2.73 2.02 5.21 4.37 7.99 6.78l-3.94 2.2 3.37 4.72a23.61 23.61 0 0 0 .76.29l-.22-.97c-.45-4.8.84-5.78 6.46-4.86z" class="X"/><path d="M214.61 428.11l5.56.96c.31.06.59.28 1.23.6l-2.45 13.08c.46.25 1.56.49 1.9 1.14.81 1.53 2.05 3.49 1.63 4.81-.41 1.33-2.53 2.79-4.06 2.99-5.17.67-7.66-2.2-6.77-7.25l2.96-16.33z" class="e"/><path d="M112.4 354.08c2.72 2.4 3.65 2.45 7.62.3l4.08 5.15c-2.35 2.63-5.21 2.94-7.98 1.96-5.45-1.94-8.96-5.92-10.36-11.56-.67-2.71-.09-5.14 2.91-6.18 2.19-.75 5.24 1.02 6.39 3.64 1.11 2.55.82 4.75-1.91 6.16-.27.13-.49.34-.75.53zm257.96 59.6c2.61-2.5 1.38-4.59-.34-6.87l6.87-4.89c.44 2.97 1.21 5.18 1 7.3-.49 5.08-7.7 10.96-13 11.04-2.49.04-4.5-.82-4.98-3.37-.55-2.9 1.15-4.82 3.64-6.03 2.22-1.08 4.28-1.03 5.86 1.17.32.43.55.93.95 1.65z" class="h"/><path d="M368.76 392.61c2.71 3.45 3.37 6.68.87 9.61-2.49 2.92-5.7 5.47-9.06 7.34-3.29 1.82-6.31.66-7.48-1.78-1.14-2.38.16-5.29 3.04-6.81 2.94-1.55 4.79-.92 7.06 2.4 2.41-1.77 2-2.82-.12-6.66l5.69-4.1z" class="e"/><path d="M382.82 369.51c1.88-2.91 1.12-5.28-1.52-7.41l4.47-5.25c2.97 1.95 3.93 4.66 3.38 7.79-.99 5.58-4.22 9.66-9.26 12.18-2.4 1.2-4.83 1-6.48-1.42-1.38-2.02-.29-5.53 2.21-7.26 2.28-1.58 4.5-1.73 6.35.77.17.23.49.35.85.6z" class="h"/><path d="M77.05 250.28l-5.25 2.11c-.07-3.2-2.03-3.78-4.7-3.4l-.05-1.43c1.86-5.28.99-7.88-3.29-9.91l.02.02-.58-.61-1.42-1.35c3.07-1.64 6.37-3.09 6.08-7.47l1.52 3.49 4.15 4.23 4.29 1.69c-3.77-.28-4.53 3.95-7.43 5.08-.3.12-.19 2.28.3 3.19 1.32 2.47 3.3 4.28 6.36 4.36zm-4.88-13.5c-1.56-1.13-2.39-2.2-3.17-2.16-.91.05-1.78 1.05-2.67 1.64.93.87 1.76 1.95 2.86 2.51.38.19 1.42-.91 2.98-1.99z" class="T"/><path d="M434.37 259.76c.45-2.07-.55-4.94 2.98-5.35.21-.02.29-.92.47-1.39.86-2.25 3.41-2.88 4.95-1 1.59 1.94 2.79 4.19 4.16 6.31l-7.63 6.02.68 1.12-4.63-5.48-.94-.23h-.04zm3.71-2.96c-.58 2.78.39 4.29 2.46 4.06.98-.11 2.69-2.15 2.49-2.91-.84-3.3-3.19-.06-4.95-1.15zM67.86 228.24c.3 4.38-3 5.83-6.08 7.47l-1.97-.11-.8-.02-.47-.58v-3.53l-2.55.8-.4-4.8 5.98-6.37 3.6 5.85c-.72-.23-1.43-.62-2.17-.66-1.08-.07-2.52-.31-3.18.26-.84.71-1.06 2.16-1.54 3.26l6.88.74v-3.6l2.7 1.29z" class="V"/><path d="M67.05 247.55l.05 1.43v4.18l4.58-.28-2.74 2.3-1.87 3.75c.36-3.36-2.22-5.07-4.06-7.2-2.67-1.2-4.01-.39-3.93 2.59-1.05.56-2.22.98-3.12 1.72-.7.57-1.06 1.55-1.57 2.34l-2.62-4.73.07-.96 3.62-.72-.97-3.81.04-2.63 2.58 1.48-.03-.03.67.67c.81.67 1.73 1.99 2.41 1.88 2.35-.39 4.6-1.28 6.89-1.98z" class="S"/><path d="M455.89 250.37c-1.94-1.49-4.06-2.8-5.73-4.55-.63-.66-.69-3.07-.16-3.42 2.32-1.57 3.81-4.74 7.31-4.24l-.01.07.39.77 2.35 2.12c2.78 2.82 2.37 4.32-1.55 5.79.24-1.17.7-2.34.68-3.5-.05-2.59-1.98-3.43-3.66-2.5l-1.22 6.65h3.34l-1.74 2.81zm-378.84-.09c-3.07-.08-5.04-1.89-6.37-4.37-.49-.91-.59-3.08-.3-3.19 2.9-1.13 3.66-5.36 7.43-5.08l6.52 6.18-3.84 2.61c-.16-5.72-.97-6.62-5.14-5.56-.3 1.57 3.16 3.41-.27 4.78-.01-.33.1-.75-.07-.96-.63-.82-1.36-1.58-2.04-2.36l-1.78 1.58 2.61 1.71c.34.18.86.02 1.29.02-.7 1.31-.53 2.16 1.17 1.99.97-.1 1.91-.4 2.87-.62l-2.08 3.27zm-30.03-.05l-6.11-4.65c-.94-.74-1.78-1.61-2.81-2.55l6.26-5.45 6.07.95-1.93 2.97-.74 4.15-2.36-2.23 1.14-1.58 1.53-2.15c-1.57.11-2.79-.17-3.32.32-.98.89-2.16 2.24-2.13 3.37.03 1.09 1.31 2.4 2.38 3.09.53.34 1.82-.49 2.77-.79l3.13.53-3.88 4.02zm391.02-16.61l-1.8-2.78-1.06.33v-3.55l5.35-6.68 3.26 5.43c-.86-.2-1.71-.5-2.58-.58-2.47-.23-4.06 1.78-3.35 4.52 2.44-2.59 4.02-.31 5.77 1.15l1.02-.41-.85-4.67 3.47 2.45c-.23 2.97-1.78 4.83-4.69 5.52l-1.86-3.12-2.68 2.39z" class="V"/><path d="M59.09 254.31c-.09-2.98 1.25-3.79 3.93-2.59l2.12 8-.58 1.31-6.82-.06-.47-.86.86-3.62 3.8.39.11-.85-2.95-1.72z" class="W"/><path d="M47.02 250.23l3.88-4.04 1.32-3.73-.48-1.42 1.53-2.2 3.59-2.91-1.13 5.6-1.22 4-.04 2.63c-3.27.12-4.09 1.67-2.65 4.53l-.07.96c-.65-.36-1.87-.74-1.85-1.07.14-2.27-1.32-2.31-2.88-2.35z" class="T"/><path d="M426.51 240.99c1.32.39 3.22.37 3.86 1.25 1.77 2.43-.43 5.85-4.05 6.66-.84.19-1.74.14-2.61.19l-1.21-2.1 2.88-.14 1.13-5.86z" class="V"/><path d="M75.09 245.66c3.43-1.37-.03-3.22.27-4.78 4.17-1.06 4.99-.16 5.14 5.56l-1.35.57c-.95.21-1.9.52-2.87.62-1.69.17-1.87-.68-1.17-1.99l-.02.02zm351.42-4.67l-1.14 5.86-2.88.14c-1.25-2.44-1.31-4.89.05-7.33a.67.67 0 0 1 .39-.15l4.54.16-.96 1.32zm31.11 6.57h-3.34l1.22-6.65c1.68-.93 3.62-.09 3.66 2.5.02 1.16-.44 2.33-.68 3.5l-.86.65z" class="W"/><path d="M53.29 238.83l-1.53 2.2-.83.22-2.42.25 1.93-2.97-6.07-.95 1.25-1.33 4.1-.41 3.36-2.89.03 1.39c-1.31 1.56-1.8 3.08.18 4.49z" class="S"/><path d="M53.1 234.34l-.03-1.39 2.51-5.49.4 4.8 2.55-.8v3.53l-1.68.71-3.75-1.36z" class="T"/><path d="M71.69 252.88l-4.58.28v-4.18c2.66-.38 4.63.2 4.7 3.4-.03.18-.07.34-.12.5zm-12.6 1.43l2.95 1.71-.11.85-3.8-.39-.86 3.62-2.87-1.74c.51-.8.87-1.77 1.57-2.34.9-.73 2.06-1.15 3.12-1.71z" class="V"/><path d="M247.15 423.42c-1.66.59-3.28 1.37-5 1.71-1.67.34-3.44.24-5.44.35-.57-1.65.06-2.56 2.23-2.64l8.21-.54v1.12z" class="Y"/><path d="M422.54 239.66c-1.35 2.44-1.29 4.89-.04 7.34l-5.86-4 5.9-3.34zm-364.8 21.31l6.82.06-3.64 5.03-3.18-5.09zm7.4-1.24l-2.12-8c1.84 2.13 4.42 3.84 4.06 7.2l-1.94.8zm362.33-20.06l-4.54-.16-.12-1.05c2.31-1.57 4.44-.9 7.19.74l-2.53.47z" class="V"/><path d="M49.71 235.84l-4.1.41 4.1-.41z" class="T"/><path d="M434.42 259.76l.94.23-.94-.23z" class="S"/><path d="M183.16 73.74l-.01-.69-.06.06.56.64h-.24l-.25-.01zm162 342.42l-.71-.21.71-.38v.59z" class="Y"/><path d="M457.69 239l-.39-.77.39.77z" class="S"/><path d="M250.45 409.47c-87.52.02-159.54-71.95-159.31-159.5.24-88.33 71.47-158.03 157.09-159.31 88.53-1.33 162.12 70.01 161.92 159.74-.19 88.08-71.71 158.92-159.7 159.07zm-1.41-238.03l.04-73.28c.01-2.85-.55-4.28-3.86-4.13-13.03.59-25.83 2.44-38.36 6.11-94.54 27.63-140.16 133.65-95.25 221.41 2.33 4.55 2.36 4.57 6.93 1.93l127.18-73.3c2.41-1.39 3.39-2.95 3.38-5.79l-.06-72.95zm2.1-.19l-.07 73.29c-.01 2.86.99 4.37 3.39 5.74l128.15 73.6c3.58 2.06 3.96 1.99 5.83-1.6 15.3-29.31 20.96-60.42 16.51-93.13-4.88-35.86-20.54-66.49-46.73-91.54-28.7-27.45-63.05-41.86-102.75-43.48-4.08-.17-4.33.08-4.33 4.16v72.96zm-1.88 234.91l18.44-1.26a70.2 70.2 0 0 0 6.61-.83c46.28-8 82.19-31.75 107.9-70.97 2.63-4.02 2.56-4.19-1.52-6.56l-127.19-73.9c-2.56-1.49-4.4-1.48-6.95-.01l-127.51 73.33c-3.81 2.19-3.9 2.23-1.42 6.03 31.19 47.84 75.53 72.13 131.64 74.17z" class="U"/><path d="M397.8 106.05l-8.15-9.3c4.38-.18 8.13 3.95 8.15 9.3zM365.05 110c.96 1.24 1.84 1.94 2.07 2.82.12.45-1.17 1.81-1.38 1.72-.9-.38-1.94-1.01-2.31-1.83-.2-.44.83-1.45 1.62-2.71z" class="Y"/><path d="M379.86 114.69c-.28.1-.54.23-.82.27-.07.01-.19-.27-.28-.41l.8-.44.3.58zM248.27 429.36l.63-.26-.09.77-.54-.51z" class="c"/><g class="Y"><path d="M182.37 71.82c-2.19-1.68-4.52-2.15-7.07-.82-4.16 2.16-2.61 5.76-2.49 9.12l-.65-1.62c-3.1-7.9-2.11-9.71 6.47-11.4 3.63-.72 3.09 2.58 4.05 4.42a8.92 8.92 0 0 1-.31.3z"/><path d="M182.69 71.52l.4 1.59s.06-.06.06-.05l-.78-1.24.32-.3zm159.98 8.98c-1.02-1.31-1.96-2.04-2.11-2.91-.08-.48 1.39-1.82 1.73-1.69.87.34 1.8 1.19 2.12 2.05.17.46-.89 1.37-1.74 2.55zm-236.51 37.46c-.77-1.34-1.68-2.22-1.52-2.83.2-.77 1.21-1.71 1.98-1.81.52-.07 1.79 1.25 1.71 1.8-.13.84-1.13 1.55-2.17 2.84zm24.89-2.47c-.75-1.3-1.72-2.35-1.51-2.76.43-.8 1.47-1.4 2.38-1.74.22-.08 1.45 1.31 1.31 1.73-.27.87-1.16 1.55-2.18 2.77zm275.52 14.92c-1.31.76-2.36 1.75-2.81 1.53-.82-.4-1.47-1.46-1.77-2.38-.09-.28 1.34-1.56 1.77-1.43.89.28 1.57 1.2 2.81 2.28zm-1.45 25.02c-1.3.72-2.35 1.69-2.83 1.47-.8-.38-1.4-1.47-1.71-2.38-.09-.26 1.33-1.49 1.74-1.35.89.31 1.58 1.21 2.8 2.26zM269.15 58.29c2.03.05 3.62.25 5.7-1.48 1.58-1.32 5.59-.04 8.38.65.57.14.81 2.83.68 4.3-.26 2.96-.83 5.9-1.38 8.82-.13.68-.5 1.52-1.03 1.88-1.59 1.07-8.12-.66-9.71-2.58.51-.24.95-.56 1.43-.67 3.82-.9 5.1-2.35 4.78-5.48-.26-2.55-2.86-4.68-5.89-4.79-.99-.04-1.99.02-2.98.03.01-.22.02-.45.02-.68zm3.01 8.52c-1.01-1.21-1.91-1.88-2.14-2.73-.1-.37 1.18-1.55 1.83-1.55.68 0 1.78.91 1.9 1.56.13.63-.78 1.44-1.59 2.72z"/></g><g class="c"><path d="M269.15 58.29l-.02.68-.74-.5.76-.18zM93.61 146.26l-2.29 1.88-.67-.52c2.11-2.95 4.17-5.93 6.38-8.8.28-.36 1.5-.4 2.02-.11 1.35.74 2.73 1.58 3.75 2.7.54.59.74 2.02.42 2.77-.6 1.39-1.72 2.55-2.59 3.83-1.1 1.62-2.32 1.79-3.84.49-.92-.79-1.98-1.41-3.18-2.24zm.55-11.54l-5.88 8.49c-.6-1.5-1.35-2.42-1.21-3.19.44-2.62 3.92-5.54 6.54-5.8l.55.5zm-.12-1.36l1-.4-.4.95-.6-.55z"/><path d="M93.62 134.22l.43-.86.6.54-.49.81-.54-.49z"/></g><path d="M306.98 66.61c.65-.05 1.39.09 1.95-.18 1.1-.52 2.23-1.96 3.1-1.78 2.34.47 4.63 1.45 6.76 2.57.55.29.79 1.97.53 2.82-1.03 3.36-2.27 6.67-3.56 9.95-.28.72-.96 1.55-1.65 1.79-1.72.59-7.68-2.38-8.81-4.38 3.3-.54 7.3-.32 7.22-5.19-.05-3.52-2.62-4.77-5.49-5.64l-.05.04zm2.4 5.35c-1.39.84-2.2 1.73-2.86 1.62-.75-.12-1.81-1.06-1.89-1.75-.07-.59 1.1-1.89 1.63-1.85.87.08 1.67 1 3.12 1.98z" class="Y"/><path d="M440.42 239.94c1.29 1.78 2.58 2.78 2.5 3.64-.09.92-1.37 2.14-2.35 2.4-.56.15-2.15-1.3-2.21-2.11-.07-.97.99-2.02 2.06-3.93zm-4.44 10.92c-1.44.96-2.35 2.04-3.01 1.9-.9-.18-1.6-1.29-2.39-2 .72-.77 1.43-2.16 2.15-2.16.88-.01 1.77 1.15 3.25 2.26zm11.65-2.86c1.3 1.57 2.57 2.44 2.51 3.21-.06.82-1.29 1.85-2.22 2.17-.42.15-1.86-1.14-1.94-1.87-.08-.85.8-1.81 1.65-3.51zm3.58-11.46c-1.37 1.03-2.27 2.19-2.9 2.06-.91-.19-1.62-1.31-2.41-2.04.66-.7 1.35-1.99 1.98-1.97.93.04 1.83 1.01 3.33 1.95zm-13.17-2.92l2.68-2.38 1.86 3.12c-1.78 1.38-3.46 2.16-4.54-.74zm-1.45 2.36c-1.66 1.11-2.51 2.06-3.46 2.17-.53.06-1.22-1.29-1.83-2 .77-.59 1.48-1.48 2.34-1.66.6-.14 1.42.67 2.95 1.49z" class="W"/><path d="M112.54 380.4c5.88 5.12 6.54 4.54-1.81 10.87l-2.22-2.85c1.06-1.33 2.22-2.42 2.9-3.76.63-1.23.75-2.72 1.13-4.26zm1.2-4.58c3.51-.91 7.73 3.71 6.99 7.51l-6.99-7.51z" class="Y"/><path d="M122.82 386.52l-.56-1.26.39-.24.83.91-.66.59z" class="c"/><path d="M249.23 67.49c.85 1.13 1.94 2.11 1.77 2.45-.4.77-1.36 1.53-2.2 1.68-.43.08-1.53-1.17-1.53-1.82 0-.64 1.02-1.27 1.96-2.31z" class="Y"/><path d="M381.1 392.8l.54-.16-.1.3-.47-.21c-.01-.01.03.07.03.07z" class="c"/><path d="M99.78 359.53l-6.01-8c1.71 0 3.05-.38 3.45.06 1.99 2.24 4.29 4.53 2.5 8l.06-.06z" class="Y"/><path d="M99.72 359.59l.57.42-.21.2-.29-.68c-.01 0-.07.06-.07.06z" class="c"/><path d="M334.97 421.3c0-1.31-.34-2.63.06-2.92 2.54-1.83 5.14-3.86 8.82-1.72l-8.88 4.64z" class="Y"/><path d="M102.65 400.04l.22.97-.76-.29.54-.68z" class="c"/><path d="M56.86 235.7l1.68-.71.48.58.8.02 1.97.11 1.42 1.35.56.59 1.56 1.98c2.25 2.81 1.21 7.59-2.13 8.44-1.67.43-3.62-.25-5.44-.43l.03.03-.67-.67-1.36-5.48 1.13-5.59c-.01.01-.03-.22-.03-.22zm4.7 4.53c-1.05 1.71-2.19 2.75-2.05 3.57.15.85 1.54 1.49 2.38 2.22.63-.77 1.79-1.56 1.76-2.3-.03-.93-1.03-1.83-2.09-3.49zm-.97-2.16v-.24l-.85.01c-.01 0-.02.15-.03.23h.88z" class="S"/><path d="M57.75 247.64c1.82.18 3.77.85 5.44.43 3.33-.85 4.38-5.62 2.13-8.44l-1.56-1.98c4.28 2.03 5.14 4.63 3.29 9.91-2.29.69-4.54 1.58-6.88 1.96-.69.11-1.61-1.22-2.42-1.88z" class="V"/><path d="M72.17 236.78c-1.57 1.08-2.6 2.18-2.98 1.99-1.09-.56-1.92-1.63-2.86-2.51.89-.59 1.75-1.6 2.67-1.64.78-.04 1.61 1.03 3.17 2.16z" class="W"/><path d="M63.78 237.66l-.58-.61.58.61z" class="V"/><path d="M438.08 256.8c1.76 1.09 4.11-2.15 4.96 1.15.2.76-1.51 2.8-2.49 2.91-2.08.23-3.05-1.28-2.47-4.06zM65.16 226.93v3.6l-6.88-.74c.48-1.1.7-2.55 1.54-3.26.66-.56 2.1-.33 3.18-.26.73.05 1.44.44 2.16.66z" class="W"/><path d="M59.81 235.59l-.8-.02.8.02z" class="T"/><path d="M51.84 252.68c-1.44-2.86-.62-4.41 2.65-4.53l.97 3.82-3.62.71z" class="W"/><g class="V"><path d="M55.75 241.52l1.36 5.48-2.58-1.48 1.22-4z"/><path d="M57.08 246.97l.7.7-.7-.7z"/></g><g class="W"><path d="M75.12 245.64c-.44 0-.96.17-1.29-.02-.91-.49-1.75-1.13-2.61-1.71l1.78-1.58 2.04 2.36c.16.21.05.64.07.96-.02.01.01-.01.01-.01zm-27.35.02c-.95.3-2.24 1.14-2.77.79-1.07-.69-2.35-2-2.38-3.09-.03-1.13 1.15-2.48 2.13-3.37.53-.48 1.75-.2 3.32-.32l-1.53 2.15-1.14 1.58 2.37 2.26z"/><path d="M48.5 241.5l2.42-.25 1.31 1.2-1.32 3.73-3.14-.53-.01-.01.74-4.14zm395.3-15.11l.85 4.67-1.02.41c-1.75-1.46-3.33-3.74-5.77-1.15-.7-2.75.88-4.75 3.35-4.52.87.08 1.72.38 2.58.58zM56.86 235.7l.02.22-3.6 2.91c-1.97-1.42-1.49-2.94-.19-4.49l3.77 1.36z"/></g><path d="M52.23 242.45l-1.31-1.2.83-.22.48 1.42z" class="V"/><path d="M249.04 171.44l.06 72.95c.01 2.84-.97 4.41-3.38 5.79l-127.18 73.3c-4.58 2.64-4.6 2.62-6.93-1.93-44.9-87.76.71-193.79 95.25-221.41 12.53-3.66 25.33-5.52 38.36-6.11 3.32-.15 3.87 1.28 3.86 4.13l-.04 73.28zm-134.1 150.35c1.39-.74 2.28-1.18 3.13-1.68l124.9-71.93c2.24-1.29 2.98-2.65 2.97-5.2l-.06-146.06c-54.84 3.53-97.74 27.33-126.13 73.92-29.76 48.87-29.55 99.62-4.81 150.95z" class="X"/><path d="M251.14 171.25V98.3c0-4.09.25-4.33 4.33-4.16 39.7 1.62 74.05 16.02 102.75 43.48 26.18 25.05 41.84 55.68 46.73 91.54 4.45 32.71-1.21 63.82-16.51 93.13-1.87 3.59-2.26 3.65-5.83 1.6l-128.15-73.6c-2.4-1.37-3.4-2.88-3.39-5.74l.07-73.3zM385 321.61c25.05-45.04 26.63-108.66-9.71-159.35-29.53-41.18-70.16-62.45-121.09-65.28l-.06 146.5c0 2.41.94 3.51 2.85 4.6L385 321.61z" class="i"/><path d="M249.26 406.16c-56.11-2.04-100.45-26.34-131.64-74.17-2.48-3.8-2.39-3.84 1.42-6.03l127.51-73.33c2.55-1.47 4.38-1.48 6.95.01l127.19 73.9c4.08 2.37 4.15 2.54 1.52 6.56-25.71 39.22-61.62 62.97-107.9 70.97a69.38 69.38 0 0 1-6.61.83l-18.44 1.26zm131.33-75.91l-2.84-1.8-125.46-72.87c-1.87-1.09-3.12-.78-4.77.17l-128.2 73.67c31.83 47.58 75.53 73.85 132.89 73.19 55.24-.64 97.48-26.49 128.38-72.36z" class="g"/><path d="M61.56 240.23c1.06 1.66 2.06 2.56 2.09 3.5.03.74-1.13 1.53-1.76 2.3-.85-.73-2.23-1.37-2.38-2.22-.14-.83 1-1.87 2.05-3.58z" class="W"/><path d="M60.59 238.07h-.88c.01-.08.01-.23.03-.23l.85-.01v.24z" class="V"/><path d="M114.94 321.79c-24.75-51.32-24.96-102.08 4.81-150.94 28.39-46.59 71.29-70.39 126.13-73.92v4.14l.06 141.92c0 2.54-.73 3.91-2.97 5.2l-124.9 71.93c-.85.48-1.73.92-3.13 1.67zm105.55-143.41l-4.37-1.45-.78.39c.41.77.64 1.79 1.28 2.27 1.3.98 2.76 1.79 4.25 2.46.85.38 1.88.32 2.83.46l-1.41-2.32c-.22-.38-.36-.81-.53-1.21l2.8-.64-.03-1-7.47-4.59-.95.67c.41.79.68 1.71 1.26 2.34.94.98 2.07 1.76 3.12 2.62zm-7.39 17.26l10.12 10.81 1.32-.66c-.1-.8.1-1.88-.35-2.37l-14.28-15.1-1.44 2.73c-2.28.2-2.69 1.09-1.28 2.98l14.29 19.31 2.03-1.18-9.64-14.2c-.42-.66-.52-1.54-.77-2.32zm3.34 53.3l3.26.88c-.47-.99-.76-2.12-1.43-2.93-1.34-1.62-2.93-3.03-4.34-4.59-4.26-4.69-8.04-9.47-8.83-16.26-.79-6.8-2.63-13.47-3.87-20.23-.38-2.07-1.07-2.68-3.07-1.55l2.48 12.49c1.95 9.58 2.93 19.55 10.53 26.93l-1.85.96c-1.12-1.57-1.87-3.23-3.13-4.27-3-2.49-4.54-5.5-4.88-9.38-.29-3.3-.99-6.57-1.52-9.84l-2.22-13.1c-.14-.73-1.03-1.33-1.57-1.98-.29.81-.62 1.61-.86 2.44-.08.29.06.66.11.98l4.12 23.9c.35 1.87.81 4.21 2.09 5.34 3.81 3.35 5.43 7.05 3.76 11.96-.06.18.06.43.24 1.46l6.75-2.24-.22-.84 3.96 3.57.49-3.7zm-72.28-28.21l.78.66-2.13 4.28 2.55 1.37 15.84-28.65c.36-.66.22-2.33-.16-2.51-1.19-.55-2.61-.6-3.94-.85l2.02-3.91-.42-.85c-.87.49-1.93.79-2.58 1.49-4.05 4.37-8.1 8.74-11.93 13.31-.85 1.02-.78 2.8-1.14 4.24l1.11.32 2.57-2.96 9.08-10.36c-.39.96-.65 2-1.2 2.86l-13.17 20.64c-.48.76-.17 2.02-.23 3.04l1.13.15 1.82-2.27zm75.42 10.55l2.38.99c.16-.24.32-.48.47-.73l-6.3-13.81 3.67-1.45-14.28-21.16c-4.22 3.28-4.21 3.28-1.71 7.42l6.27 10.41-3.53 1.51 11.09 20.55c.29.52 1.63.45 2.99.78l-1.65-4c.21-.18.4-.35.6-.51zm-70.2 18l.56.51.6 1.9 3.55-1.8c1.14 1.93 4.68 2.63 6.92 1.25-3.19-8.68-3.18-8.68-1.31-15.69l2.36-9.34-3.46.36c-.17-.15-.34-.3-.5-.46l1.81-5.02 1.8 2.76 7.41-18.23-5.16-1.8-1.45 3.59c-.49 1.23-.88 3.47-1.48 3.53-3.58.36-3.33 3.56-4.36 5.56-3.07 5.93-5.77 12.06-8.78 18.44l4.35-.75c.12.13.25.25.38.37.06 5.14-2.24 9.31-5.25 13.27-.5.66-.28 1.86-.39 2.81l2.4-1.26zm14.97-58.19l-.03-.42c-.03.05-.08.11-.07.14.04.09.1.17.16.25.69 1.6 2.06 3.26 1.94 4.8-.26 3.26 1.18 5.2 3.53 6.97 2 1.51 3.1 3.34 1.16 5.24.82 1.35 1.91 2.38 1.99 3.48.11 1.58-.54 3.21-.83 4.82-.61 3.43 1.58 6.63.84 10.09-.26 1.22-.35 2.47-.54 3.71-.04.27-.18.52-.33.92l2.84.47v11.93l-2.02.27c0 2.18-.08 4.05.03 5.91.07 1.15.4 2.29.65 3.43.13.57.49 1.14.46 1.7-.18 3.24-.52 6.47-.62 9.71-.02.78.63 1.61 1.03 2.38.54 1.03 1.13 2.03 1.7 3.04l5.46 9.56 1.49-.1 3.91-7.23c1.04-1.85 2.39-3.55 3.23-5.48.57-1.33.57-2.93.69-4.42.06-.71-.55-1.65-.27-2.15 1.68-2.96-1.33-6.45 1.11-9.29.15-.17.04-.69-.11-.96-1.24-2.34-.76-4.3 1.68-5.88l-3.55-.51v-12.23l4.37-.37c-3.26-1.15-2.9-2.49-2.64-4.79.33-2.87.86-5.72 1.23-8.58.05-.39-.42-.84-.41-1.25.12-2.76-2.51-6 1.76-8.03-2.36-1.87-1.58-3.71.12-4.7 4.81-2.79 3.83-7.6 4.93-12.21l-4.36 1.63-.75-.44c.66-1.33 1-3.34 2.06-3.83 1.73-.81 3.92-.62 5.92-.86l.42.95c9.13-10.74 11.2-22.91 6.8-36.25-3-9.1-10.16-17.56-15.53-18.11l2.64 3.29c4.56 5.54 7.06 11.86 6.24 19.05-.75 6.59-1.74 13.3-9.71 15.87 1.1-19.42-2.65-37.77-10.67-55.93-8.43 18.17-11.26 36.75-10.41 57.04-1.1-1.39-1.92-2.62-2.04-2.56-2.68 1.43-3.02-1.16-3.8-2.36-6.37-9.86-5.21-22.72 2.71-31.78.71-.81 1.31-1.71 1.96-2.56l-.96-.69c-8.43 5.34-13.39 13.2-15.57 22.91-2.71 12.07.1 22.78 8.39 31.53 2.18-.23 4.32-.35 6.01.46 1.03.49 1.36 2.43 2.24 4.19l-6.48-1.77zm-27.5-6.42l16.61-8.52c-1.71-1.39-3.29-3.44-4.06-3.17-4.84 1.68-9.51 3.88-14.74 6.13l3.05 1.44-.86 4.12zm18.66 4.41l-.18-.67c-.69.23-1.53.28-2.03.72-4.31 3.81-8.62 7.63-12.76 11.63-.7.67-.54 2.24-.93 4.17l15.9-15.85zm-5.07-22.5c-3.81.92-7.75.84-9.67 4.95 3.35 1.83 6.41-.24 9.67-.62v-4.33zm74.16 21.51l-9.81-8.28-1.03.97c1.11 3.76 5.16 5.09 7.7 7.65.33.33 1.47-.13 3.14-.34z" class="Z"/><path d="M385 321.61l-128.02-73.53c-1.9-1.09-2.85-2.19-2.85-4.6l.06-146.5c50.93 2.83 91.56 24.1 121.09 65.28 36.35 50.69 34.76 114.31 9.72 159.35zm-36.59-92.04v-24.81H324.7l-.01-.86h15.33v-21.8h-15.47l-.08-1.33 11.09-.49v-20.13h-11.69l-.04-1.06 7.05-.63v-20.09h-6.27c.23-1 .19-1.91.61-2.45 1.71-2.17 1.97-4.15-.28-6.1-.22-.19-.51-.62-.43-.8 1.78-4.26-2.16-6.78-3.13-10.31-.85 3.43-4.9 5.74-3.11 9.97.11.27-.39.92-.75 1.25-2.05 1.85-2.09 3.69-.28 5.78.55.63.67 1.62 1.14 2.83h-6.63v20.02l7.29.51-.12 1.35h-11.58v20.06c2.16 0 4.05-.05 5.93.02 1.6.06 3.2.26 4.8.4l-.12 1.45h-15.21v21.8h15.06l-.04.95h-23.74v24.41l-.34 1.11h-11.55v28.72h34.28c-.92 6.62 2.09 11.69 4.91 17.5 2.66-5.88 5.9-10.88 4.78-17.52h34.17v-28.7H348.7c-.12-.36-.21-.7-.29-1.05z" fill="#b18112"/><path d="M380.59 330.25c-30.9 45.87-73.14 71.72-128.39 72.35-57.35.66-101.06-25.61-132.89-73.19l25.5-14.64 102.7-59.03c1.66-.95 2.91-1.26 4.77-.17l125.46 72.87c.77.45 1.5.95 2.85 1.81zm-200.85-22.68l-1 1.03c-.77.39-1.61.69-2.31 1.18-1.15.79-3.03 1.63-3.11 2.58-.11 1.29 1.04 2.8 1.92 4.02.71.99 1.81 1.7 3.17 2.93-3.28 1.24-5.85 2.86-8.54 3.07-3.93.31-7.06 2.13-10.44 3.68-1.99.91-4.15 1.51-6.28 2.04-3.21.8-6.47 1.38-9.7 2.12-2.37.55-3.6 1.86-3.02 4.51.71 3.28 5.75 5.53 8.71 3.91 1.01-.55 2.26-.65 3.39-.99.89-.27 1.77-.61 2.65-.91l-.09-.89c-1.54-.4-3.08-1.09-4.63-1.12-1.44-.02-2.89.67-4.33 1.04l-.48-1.1c.87-.68 1.66-1.69 2.64-1.96 1.22-.34 2.64.09 3.93-.1 4.21-.63 7.99-2.2 11.08-5.29 1.35-1.35 2.78-1.57 4.77-.56 1.63.82 3.83.73 5.75.59.43-.03.67-1.98 1.08-3.01.19-.48.59-.88.36-.55 3.92.39 7.22.99 10.51.93 1.35-.03 3.43-1.22 3.86-2.37 1.64-4.39 6.09-4.94 9.25-7.05 2.08-1.39 6.46-2.74 8.16-4.57.09-.1.38-.01.72-.01l1.2 3.98c1.38-.76 2.5-1.43 3.68-2 .92-.44 2.12-1.31 2.81-1.03 2.49 1 4.81 2.41 7.64 3.91-1.46 1.29-2.46 2.49-3.73 3.23-3.3 1.9-6.46 4.18-10.65 3.92-1.73-.11-4.61 1.22-3.17 2.76 1.69 1.8 5.15 1.99 7.89 2.72.51.14 1.57-.35 1.79-.82.95-2.12 2.61-1.86 4.46-1.89 1.17-.02 2.38-.95 3.48-1.63 1.65-1.01 3.33-3.2 4.78-3.03 2.56.3 5.05 2.02 5.05 5.25 0 2.57-.35 5.14-.57 8.09h-9.05l.42-5.49c-3.63 3.9-3.63 3.9-9.42 2.92-.76-.13-1.61.01-2.3-.27-2.93-1.21-3.8-.06-3.07 3.08-5.64-.77-8.78-4.65-11.56-7.29l-7.13 1.79c-.25.05-.49.11-.74.16-.12.13-.28.19-.45.18-6.48-2.32-16.31.97-18.07 6.81 1.72-.9 2.93-1.45 4.06-2.13 3.71-2.24 5.41-1.96 8.6.72 1.32 1.11 3.26 1.46 4.9 2.2 1.37.62 2.7 1.3 4.53 2.18-5.63 4.4-9.11-1.54-13.68-1.11l-.43 3.37c-1.91 1.79-3.39 2.93-4.58 4.33-1.91 2.25-4.09 1.2-6.13.62-1.28-.37-2.38-1.4-4.29-2.58 7.11-1.82 8.83-3.4 7.22-6.4-2.68 3.76-6.35 3.81-10.42 3.28-3.07-.4-6.29 2.36-9.37-.27-.04-.04-.2.07-.6.21l-1.52 2.05c3.35 4.68 8.52 8.25 6.55 15.35l1.7-.47c-.11-2.21.11-4.5-.41-6.6-.96-3.84-.99-4.01 3-4.22 1.2 2.55 2.47 4.57 6.05 3.2 1.94-.74 3.7.33 3.56 2.94-.14 2.54-.41 5.1-.33 7.63.04 1.2.78 2.38 1.2 3.57l.84-.37.01-8.48c.06-4.63 3.86-8.07 9.02-8-1.67 2.32-3.52 4.4-4.75 6.8-.65 1.26-.66 4.27-.19 4.45 4.6 1.72 5.92 5.17 5.88 9.59 0 .16.28.32.94 1.02l2.85-7.29c4.54.84 7.27-2.02 8.94-6.9 3.52 3.46 1.95 7 2.01 10.21.07 3.29.01 6.58.01 9.87l1.16-.01c1.49-4.13-.01-8.91 2.27-12.89.79 1.77 1.23 3.47 1.58 5.19.36 1.73.63 3.48.94 5.22l1.06-.14c-.27-2.28-.67-4.56-.76-6.85-.09-2.16-.51-4.67.41-6.4 1.14-2.14 3.48-3.65 5.36-5.37.21-.2.83.05 1.77.13-.78 6.85-4.16 13.47-1.65 20.43-4.65 2.82-8.47 2.99-13.87 1.18-1.46-.49-3.28.08-4.94.17l.07.95c1.39.25 2.88.26 4.14.79 4.38 1.86 8.98 1.62 12.99-.11 5.55-2.39 10.53-.84 15.77.32 1.75.39 4.12.83 5.4.01 3.99-2.57 8.41-4.43 9.89-10.2 1.52-5.93.68-11.4-.15-17.06-.13-.88-.81-2.07-1.55-2.42-4.2-1.94-8.42-3.86-12.77-5.4-5-1.77-10.68-.1-15.55-2.82v-.52c1.17-.25 2.38-.83 3.52-.71 6.6.7 13.21 1.35 19.75 2.41 8.25 1.35 8.17 1.51 7.99-7.09-.12-5.53-1.19-11.1-4.9-14.99-3.3-3.46-8.09-5.55-12.3-8.1-3.88-2.35-8.07-3.43-12.62-2.35-1.39.33-2.75.82-4.13 1.19-.92.25-1.95.73-2.77.5-.56-.16-1.35-1.6-1.14-2.01.44-.86 1.37-1.67 2.29-2.03.87-.34 1.98-.07 2.99-.07l.32-.97c-2.64-1.19-2.73-5.64-7.07-5.15l.81 4.59c-2.09-.3-3.94-.19-5.32-.94-.64-.35-.93-2.97-.35-3.56 1.35-1.38 3.33-2.16 5.87-3.68.6-2.19 2.16-4.31 5.74-6.16 4.56-2.35 8.79-2.81 13.51-2.57 2.51.13 4.49-.3 4.78-3.56.19-2.12 1.11-4.17 4.11-3.4 3.09.8 4.69-.71 5.72-3.54 1.34-3.71 3.86-5.12 7.9-5.11 1.05 0 2.09-.52 3.14-.74 2.2-.46 4.41-1.21 6.62-1.21 2.14 0 4.34.6 6.39 1.29 1.68.56 3.19 1.64 5.39 2.83l-4.17 1.94 3.84 3.18-5.84 2.56c1.44.85 2.39 1.24 3.11 1.88.48.43 1.02 1.64.86 1.79-1.96 1.84-3.81 4.1-6.17 5.13-2.25.98-5.08.55-7.65.87-4.67.58-5.88 2.17-5.95 6.93-.04 2.86-.49 5.72-.76 8.58l-1.17.08c-.5-2.61-1.5-5.26-1.34-7.83.11-1.86 0-3.24-1.63-3.73-1.45-.43-3.12-.08-4.7-.08l.22 4.19c.01.18-.2.36-.37.65l-2.91-1.98-1.02 5.14-1.17-.15c0-1.15.23-2.37-.08-3.43-.22-.76-1.11-1.41-1.86-1.86-.18-.11-1.36.77-1.42 1.27-.38 3.64-2.83 2.66-4.96 2.31-.94-.16-2.09-1.05-2.71-.74-2.51 1.25-3.32-.53-4.48-2.02-.99-1.27-2.03-2.58-3.32-3.5-.56-.4-2.14-.17-2.64.36-.54.57-.81 2.18-.39 2.72 1.94 2.5 3.82 5.19 7.35 5.76 4.48.73 9.04 1.23 12.73 4.35.52.44 1.46.34 2.18.58 5 1.63 9.67 3.78 12.81 8.27 1.75 2.5 3.42 5.05 5.13 7.58-.09-4.16-1.27-8.08-1.54-12.06-.26-3.84.42-7.74.69-11.61l1.65-.68c.33.7.59 1.44 1 2.09 2.22 3.56 2.68 8.35 7.2 10.32.22.1.37.58.39.89.22 3.64.8 7.38-2.71 10.27l-3.42-7.52c-2.48 5.49 2.53 8.44 2.86 13.06l2.89-2.38.67 6.31c.21 1.57.73 3.12.78 4.68.07 2.29-.14 4.6-.28 6.9-.48 8.01 3.9 15.99.14 24.03-.14.3.17.85.35 1.24 2.69 5.72 6.48 9.91 13.31 10.66 2.77.3 5.62 1.22 8.11 2.49 3.65 1.86 7.25 2.31 10.9 1.44l-10.95-4.35.51-1.69c2.48.5 5.02.81 7.43 1.54 4.66 1.41 9.21 1.82 14.47-.44l-6.19-1.75c2.25-.35 4.33-.12 6.41.11 1.16.12 2.38.54 3.46.3 2.83-.63 5.59-1.54 8.37-2.36.62-.18 1.21-.49 1.81-.74l-.12-1.35h-17.27l-.12-.82c.19-1.47.34-2.94.59-4.4.26-1.52.92-3.03.89-4.53-.08-3.2-.77-6.4-.7-9.59.07-3.38 2.65-4.92 4.95-2.7 2.58 2.5 4.81 5.79 4.71 9.9-.06 2.61.2 5.18 2.58 7.06.24-1.4.11-2.72-.13-4.02-.53-2.88 3.69-9.28 6.18-8.8 2.71.53 4.92.64 6.83-1.66.3-.35 1.21-.19 2.8-.38-3.02 5.75-.1 10.13 2.5 15.6.3-2.25.75-3.63.61-4.94-.4-3.89-1.26-7.74-1.45-11.63-.09-1.79.22-4.43 3.1-4.17 2.35.22 5.4-.42 5.75 3.58.22 2.51 1.14 4.96 1.75 7.44l1.31-.19v-15.58l10.53.6-.47-4.38c1.32-.13 2.61-.03 3.73-.42 1.3-.45 3.17-1.11 3.47-2.08.31-1.01-.62-3.03-1.61-3.68-2.49-1.61-5.37-2.62-8-4.03-1.12-.6-2.48-1.4-2.94-2.45-1.33-3.04-3.7-3.52-6.3-2.65-2.31.77-3.38.25-3.83-1.99-.52-2.6-2.48-3.53-4.68-3.12-3.97.75-7.84 1.98-11.76 2.97-.57.14-1.26.2-1.79.01-2.34-.84-4.63-1.78-7.19-2.78.47-.53.98-1.69 1.73-1.88 3.27-.83 6.63-1.33 9.93-2.05.88-.19 2.02-.51 2.43-1.16.43-.68.48-2 .1-2.73-1.88-3.59-3.41-7.54-7.87-8.92-.46-.14-.99-.72-1.1-1.19-.51-2.16-2.06-2.3-3.78-2.05-3.19.47-5.64-.62-7.44-3.26-2.84-4.17-6.84-4.9-11.39-3.71-1.61.42-2.29.12-3.4-1.36-1.85-2.47-4.99-4.02-6.72-6.54-2.57-3.73-6.27-6.14-9.23-9.37-.77-.84-1.13-2.07-1.96-2.82-5.65-5.17-13.21-5.03-20.02-6.98-.64-.18-1.5.3-2.22.56-2.58.92-5.22 1.74-7.69 2.88-1.51.7-2.93 1.77-4.1 2.96-2.33 2.37-4.32 4.99-8.17 5.1-1.17.03-3.03 1.24-3.3 2.25-.75 2.82-2.74 3.07-4.98 3.53-4.45.92-9.56.06-12.78 4.53-.29.4-1 .47-1.45.79-1.22.85-2.41 1.74-3.59 2.64-.78.6-1.45 1.71-2.28 1.83-4.23.6-6.8 2.82-7.38 7.02-6.54-.17-9.47 1.56-10.92 6.33a24.83 24.83 0 0 0-.46.89zm65.18 22c2.07 3.33 4.43 5.47 1.75 8.78-.64.79-.36 2.61-.06 3.85 1.1 4.59 2.5 9.04 3.04 13.83.53 4.74.5 9.01-1.25 13.5-1.93 4.95-.14 9.33 3.98 10.35 3.32.82 5.93 2.33 8.57 4.52 4.43 3.69 10.16 2.74 15.52 2.87-2.44-.89-4.97-1.7-7.5-1.71-3.2-.01-5.54-.89-7.11-3.8-.48-.89-1.46-1.94-2.36-2.11-3.8-.72-5.61-3.45-7.19-6.5.42-1.01 1.11-2 1.2-3.05.57-6.65-1.44-12.99-2.51-19.44-.03-.17-.28-.32-.44-.46-2.21-2.06-1.49-4.02-.02-6.18.69-1.01 1.33-2.48 1.15-3.59-.63-3.75-1.55-7.47-2.56-11.14-.69-2.51-2.07-4.09-5.13-2.88-.83.33-2.01-.24-3.41-.46-.09 5.48-.16 10.99 1.28 16.35l1.01.01 2.04-12.74zm.14 19.56l-1.34.14c-.12 4.08-.06 8.19-.43 12.25-.36 3.89-.01 8.55-2.03 11.44-4 5.74-9.56 10.21-17.4 9.95-1.66-.05-3.37-.22-4.99.06-1.98.35-3.88 1.13-5.82 1.72l.25.93c.4.1.82.3 1.21.28 2.18-.14 4.5-.92 6.49-.4 4.57 1.2 8.53 1.12 11.81-2.74.32-.38 1.02-.41 1.44-.74 3.27-2.52 6.56-5.01 9.72-7.66.68-.57.89-1.72 1.25-2.63 2.81-7.16-.27-14.52.7-21.74.05-.25-.55-.57-.86-.86zm-14.13 37.64c.35.31.86 1.01 1.1.93 4.2-1.44 8.48-2.72 12.47-4.61 1.71-.81 3.22-1.85 3.8.36.74 2.84 2.4 2.8 4.66 2.96 2.2.15 4.36 1.01 6.53 1.58.97.26 1.91.59 2.87.88-1.5-2.78-3.1-5.09-6.42-4.7-2.9.34-5.41.08-6.97-3.08-.48-.98-2.75-2.11-3.56-1.74-4.88 2.23-9.58 4.86-14.48 7.42zm24.35-108.04c-3.75-.48-6.79-1.18-9.82-1.15-2.55.02-5.1.9-7.65 1.4l-.43-.92-1.97 3.81c2.29 1.64 4.31 2.16 6.3 0 2.26-2.45 4.93-2.89 7.71-1.19 2.18 1.33 3.65.82 5.86-1.95zm-49.76 103.73c1.22-.33 2.64-.36 3.6-1.04 1.8-1.29 3.39-1.57 5.54-.8 3.09 1.11 7.96.49 9.75-.72-6.5-1.7-13.13-3.34-18.89 2.56zm-41.96-50.96c-1.19.82-2.4 1.56-3.49 2.45-.4.33-.52 1-.76 1.52.53.25 1.04.62 1.6.73 1.2.22 2.42.45 3.63.41.99-.03 1.97-.44 2.95-.67-.43-.89-.7-1.92-1.34-2.62-.7-.77-1.72-1.23-2.59-1.82zm70.62-44.16c1.06 3.27 6.49 5.18 8.34 3.28.43-.44-.06-2.73-.31-2.77-2.53-.33-5.1-.37-8.03-.51zm-6 3.71c-2.05-2.92-4.77-2.95-10.12.63 1.13.51 2.34.92 3.49.77 2.2-.29 4.36-.9 6.63-1.4zM208 321.07l.8-.89c-.71-.88-1.47-2.51-2.13-2.47-1.43.08-2.82 1.02-4.23 1.6l.33 1.38 5.23.38zm11.23-23.74c-1.97-1.83-3.7-2.51-5.87-.44 1.98 1.77 3.63 3.16 5.87.44zm-23.96 24.8c2.45.33 4.25 2.79 6.79.44-2.29-1.62-4.03-3.75-6.79-.44zm61.94-44.56l1.06-1.15-2.31-3.15-1.99 2.2 3.24 2.1z" class="a"/><path d="M164.34 191.09l6.48 1.81c-.88-1.76-1.21-3.7-2.24-4.19-1.69-.81-3.83-.69-6.01-.46-8.29-8.76-11.1-19.47-8.39-31.53 2.18-9.71 7.14-17.57 15.57-22.91l.96.69c-.65.86-1.25 1.75-1.96 2.56-7.92 9.06-9.08 21.92-2.71 31.78.77 1.2 1.11 3.79 3.8 2.36.13-.07.94 1.17 2.04 2.56-.84-20.29 1.99-38.87 10.41-57.04 8.02 18.16 11.77 36.51 10.67 55.93 7.97-2.57 8.96-9.28 9.71-15.87.82-7.19-1.69-13.51-6.24-19.05l-2.64-3.29c5.37.55 12.53 9.02 15.53 18.11 4.4 13.34 2.33 25.51-6.8 36.25l-.42-.95c-2 .23-4.19.05-5.92.86-1.05.49-1.39 2.5-2.06 3.83l.75.44 4.36-1.63c-1.1 4.61-.12 9.42-4.93 12.21-1.7.99-2.48 2.83-.12 4.7-4.27 2.03-1.64 5.27-1.76 8.03-.02.41.46.86.41 1.25l-1.23 8.58c-.27 2.3-.62 3.64 2.64 4.79l-4.37.37v12.23l3.55.51c-2.44 1.59-2.93 3.54-1.68 5.88.15.27.26.79.11.96-2.44 2.84.57 6.33-1.11 9.29-.28.5.32 1.43.27 2.15-.12 1.49-.12 3.09-.69 4.42-.84 1.93-2.18 3.63-3.23 5.48-1.35 2.39-2.61 4.82-3.91 7.23l-1.49.1-5.46-9.56c-.58-1.01-1.17-2.01-1.7-3.04-.4-.77-1.05-1.6-1.03-2.38.1-3.24.44-6.47.62-9.71.03-.56-.33-1.12-.46-1.7-.25-1.14-.58-2.28-.65-3.43-.11-1.86-.03-3.74-.03-5.91l2.02-.27V231.6l-2.84-.47c.15-.4.29-.65.33-.92.19-1.23.27-2.49.54-3.71.74-3.46-1.45-6.66-.84-10.09.29-1.61.94-3.24.83-4.82-.08-1.1-1.17-2.13-1.99-3.48 1.93-1.9.84-3.73-1.16-5.24-2.35-1.77-3.79-3.72-3.53-6.97.12-1.54-1.25-3.2-1.94-4.8l-.06-.01zm28.43-4.56l-1.04 2.42-1.66 5.67 1.1.23.64-5.82 1.44-1.9.68-.65 5.64-2.44c-3.65-2.9-4.71.41-6.36 2a19.43 19.43 0 0 0-.44.49zm-20.58 1.37l.6 1.03c.14-.08.28-.17.41-.25l-.62-1.1c-1.16-1.41-2.2-2.94-3.5-4.21-1.66-1.61-2.79-.85-3.35.49l6.46 4.04zm8.05-2.06v-45.76c-4.71 12.25-5.95 24.04-5.74 36.04.01.6.31 1.26.64 1.79l5.1 7.93zm4.27-44.03v43.81l5.45-8.04c.28-.42.37-1.02.39-1.55.6-11.81-1.55-23.18-5.84-34.22zm2.92-1.22l.98-.38-5.44-17.78h-1.35l-5.63 19.39.74.26 5.69-10.12 5.01 8.63zm-8.16 105.82c3.2-3.9 2.73-14.89-.59-17.25-2.37 2.62-2.07 15 .59 17.25zm.04-38.78h5.44c.95-4.85.22-9.64-2.28-14.15l-1.14-.06-2.02 14.21zm6.75 21.43c-3.26 2.5-3.39 14.32-.41 17.27 1.97-1.91 2.35-14.3.41-17.27zm22.02-67.73c-.99 7.13-2.91 13.87-7.95 19.23l1.79 2.68c.11.15.34.22.8.51 4.38-6.87 6.06-14.32 5.36-22.42zm-38.73 15.2c-1.05 2.06-.79 3.44 1.29 4.96 4.51 3.3 6.34 8.04 6.1 13.62-.04 1.01.22 2.04.34 3.05 2.91-6.54-.54-15.52-7.73-21.63zm-12.34-9.89c-.15 6.15 1.72 11.79 5.3 17.33l1.86-2.78-7.16-14.55zm39.23 10.56l-1.06-.35c-6.83 5.7-10.62 15.9-7.51 22.01.16-1.46.36-2.24.32-3-.35-6.04 1.68-10.95 6.49-14.79.99-.79 1.19-2.56 1.76-3.87zm-.19 18.78c-.22-.15-.45-.29-.67-.44-1.25.66-2.56 1.23-3.74 2-2.87 1.89-4.49 5.62-3.77 8.62.13.53.68.96 1.03 1.43.4-.31.91-.54 1.18-.93 1.58-2.31 3.19-4.61 4.61-7.01.66-1.1.92-2.44 1.36-3.67zm-26.51-.16l-1.01.53c.79 1.39 1.52 2.81 2.39 4.15 1.13 1.72 2.38 3.37 3.57 5.05l1.47 2.07c.38-.84 1.01-1.66 1.09-2.53.35-4.06-2.36-7.32-7.51-9.27zm13.11 60.4c-1.76 0-3.53-.1-5.28.06-.57.05-1.07.76-1.6 1.18.48.47.95 1.33 1.45 1.35 3.41.12 6.82.12 10.23 0 .55-.02 1.08-.78 1.61-1.2-.6-.46-1.15-1.24-1.8-1.32-1.51-.21-3.07-.08-4.61-.07zm22.58-91.06l-1.32-.62c-.22 4.8-5.26 7.37-5.75 12.05l1.32.61 5.75-12.04zm-44.42.63l-.88.51 5.5 10.75 1.54-.82-6.16-10.44zm24.82 52.5c-1.56-1.19-2.46-2.42-3.22-2.34-.89.1-1.66 1.33-2.48 2.07.76.79 1.43 2.06 2.31 2.23.76.16 1.76-.95 3.39-1.96zm-2.82 28.78c-.33 0-.66-.01-.99-.01-.41 1.27-1.1 2.54-1.12 3.81-.01.7 1.13 1.41 1.75 2.11.48-.69 1.37-1.39 1.34-2.05-.05-1.3-.62-2.58-.98-3.86zm-4.74 22.24H186l.26-.93c-.76-.31-1.5-.85-2.27-.89-1.29-.06-2.6.19-3.91.3l-.29-.95-1.72 2.47zm1.72 2.51l2.74 4.41.93-.12.89-3.8-4.56-.49zm4.41-58.41l.61-.87-2.78-2.26-2.23 3.13h4.4zm-1.57 16.02l1.65-3.96-3.73-.62-.45.88 2.53 3.7zm-9.16-34.54l1.13-.03-.81-5.04-.64.1.32 4.97zm-13.26-30.97c-.13.15-.31.27-.31.39 0 .18.12.36.19.55.12-.11.32-.21.33-.32 0-.19-.13-.38-.21-.62z" class="g"/><g class="X"><path d="M152.22 234.09l-4.35.75c3-6.38 5.71-12.5 8.78-18.44 1.04-2 .79-5.21 4.36-5.56.61-.06.99-2.3 1.48-3.53l1.45-3.59 5.16 1.8-7.41 18.23-1.8-2.76-1.8 5.02.05.76c.15-.1.3-.2.45-.31l3.46-.36-2.36 9.34c-1.87 7.01-1.88 7 1.31 15.69-2.24 1.38-5.78.69-6.92-1.25l-3.55 1.8-.6-1.9.81-1.17.43-.91.73-1.11c-.14-.09-.28-.18-.42-.26l-.66.99-.53.84-.92 1.11-2.43 1.26c.11-.95-.11-2.15.39-2.81 3.01-3.95 5.32-8.12 5.25-13.27.06-.16.11-.32.17-.48l-.53.12zm.81 10.14l-.64 1.12.42.21.49-1.03.52-.82c.45-.33 1.2-.57 1.32-.99l3.41-12.71-.7-.71c-.68.6-1.8 1.1-1.95 1.81-.9 4.09-1.56 8.22-2.3 12.35l-.57.77zm65.96-12.45l1.65 4c-1.36-.33-2.7-.26-2.99-.78l-11.09-20.55 3.53-1.51-6.27-10.41c-2.5-4.14-2.51-4.14 1.71-7.42l14.28 21.16-3.67 1.45 6.3 13.81-.47.73-2.38-.99-2.16-4.54-4.8-11.03 3.33-.9-4.38-6.22-1.32-1.78-.52.39 1.28 1.93 2.73 5.19-2.26 1.15c-.15.55-.61 1.25-.41 1.63 1.8 3.5 3.71 6.95 5.58 10.41l2.33 4.28zm-11.23-28.07l.46.89.75 1.23.56.56-.17-.95-.83-1.17-.6-.76-.83-1.15a12.24 12.24 0 0 0-.22-.54c-.08.11-.15.22-.23.33l.5.15.61 1.41zm-1.69-2.77c.07-.06.18-.11.19-.18s-.09-.15-.14-.23c-.07.06-.18.11-.19.18s.09.15.14.23zm-61.91 19.79l-1.81 2.27-1.13-.15c.06-1.03-.25-2.28.23-3.04l13.17-20.64c.55-.86.8-1.9 1.2-2.86l-.06.06.73-.71-.06.06.73-.72-.05.06c1.33.25 2.75.3 3.94.85.38.17.52 1.85.16 2.51l-15.84 28.65-2.55-1.37 2.13-4.28.93-1.6 2.84-4.56-.89-.52-2.61 4.32-1.06 1.67zm8.3-12.39l.59-.99-.43-.18-.2 1.12-.67.67-1.64 2.36-.49.84-1.26 2.06.66.33 1.09-1.92.45-.87 1.39-2.58a31.01 31.01 0 0 0 .51-.84zm63.98 40.6l-.49 3.71-3.96-3.57.22.84-6.75 2.24c-.18-1.03-.31-1.28-.24-1.46 1.67-4.92.05-8.61-3.76-11.96-1.28-1.13-1.74-3.47-2.09-5.34l-4.12-23.9c-.06-.33-.2-.69-.11-.98.23-.83.57-1.63.86-2.44.54.66 1.43 1.25 1.57 1.98.84 4.35 1.51 8.73 2.22 13.1.53 3.28 1.23 6.54 1.52 9.84.34 3.87 1.88 6.89 4.88 9.38 1.26 1.04 2.01 2.7 3.13 4.27l1.85-.96-.05-.06 1.32 1.32.71.72-.05-.05 3.37 3.37-.03-.05z"/><path d="M211.17 243.68c-7.6-7.38-8.58-17.35-10.53-26.93l-2.48-12.49c2.01-1.14 2.69-.53 3.07 1.55 1.23 6.76 3.08 13.43 3.87 20.23.79 6.78 4.57 11.56 8.83 16.26 1.42 1.56 3 2.97 4.34 4.59.67.81.97 1.94 1.43 2.93l-3.26-.88.06.07-3.32-3.32-.66-.67-1.37-1.37.02.03zm-74.32-59.01l.88-4.11-3.05-1.44c5.23-2.24 9.89-4.44 14.74-6.13.77-.27 2.35 1.78 4.06 3.17l-16.63 8.51zm76.25 10.97c.25.78.35 1.67.79 2.33l9.64 14.2-2.03 1.18-14.29-19.31c-1.41-1.89-1-2.78 1.28-2.98l-.05-.06 1.39 1.38-.06-.05 1.34 1.34.72.71-.04-.05 1.31 1.31zm-57.28.67l-9.08 10.36-2.57 2.96-1.11-.32c.35-1.43.28-3.22 1.14-4.24 3.82-4.57 7.87-8.94 11.93-13.31.64-.69 1.71-1 2.58-1.49l.42.85-2.02 3.91.05-.06-.73.72.06-.06-.73.71c0 .03.06-.03.06-.03z"/><path d="M208.48 191.05l1.44-2.73 14.28 15.1c.45.48.25 1.56.35 2.37l-1.32.66-10.06-10.76-1.37-1.37.04.05-.72-.71.05.05-1.39-1.39.06.05-1.39-1.38.03.06z"/></g><path d="M155.51 189.08l-15.9 15.85c.4-1.93.23-3.49.93-4.17 4.13-4 8.45-7.82 12.76-11.63.5-.44 1.35-.49 2.03-.72l.18.67zm-5.07-22.5v4.33c-3.26.38-6.32 2.45-9.67.62 1.92-4.11 5.86-4.03 9.67-4.95z" class="h"/><g class="X"><path d="M224.6 188.09c-1.66.2-2.81.67-3.14.33-2.54-2.56-6.58-3.89-7.7-7.65l1.03-.97 9.81 8.29zm-2.83-9.11c.17.4.31.83.53 1.21l1.41 2.32c-.95-.14-1.99-.08-2.83-.46-1.49-.66-2.96-1.47-4.25-2.46-.64-.48-.86-1.5-1.28-2.27l.78-.39 4.37 1.45-.04-.04 1.39.69-.08-.05z"/><path d="M220.49 178.38c-1.05-.86-2.18-1.64-3.1-2.62-.59-.62-.85-1.55-1.26-2.34l.95-.67 7.47 4.59.03 1-2.8.64.06.04-1.39-.69.04.05z"/></g><path d="M164.41 191.05c-.05-.08-.12-.16-.16-.25-.01-.03.04-.09.07-.14l.03.43c-.01 0 .06-.04.06-.04z" class="g"/><path d="M348.66 230.61h11.57v28.7h-34.17c1.12 6.64-2.12 11.63-4.78 17.52-2.82-5.81-5.83-10.88-4.91-17.5h-34.28v-28.72h35.54l-.01-1.11h-23.64v-24.41h23.74l.04-.95H302.7v-21.8h15.21l.12-1.45c-1.6-.14-3.2-.34-4.8-.4-1.88-.07-3.77-.02-5.93-.02v-20.06h11.58l.12-1.35-7.29-.51v-20.02h6.63c-.47-1.21-.6-2.2-1.14-2.83-1.81-2.08-1.77-3.93.28-5.78.36-.32.86-.98.75-1.25-1.79-4.23 2.27-6.54 3.11-9.97.97 3.53 4.91 6.06 3.13 10.31-.08.18.21.61.43.8 2.26 1.95 2 3.93.28 6.1-.42.54-.38 1.45-.61 2.45h6.27v20.09l-7.05.63.04 1.06h11.69v20.13l-11.09.49.08 1.33h15.47v21.8h-15.33l.01.86h23.71v24.81h-23.66v1.04l23.95.01zm-28.17-78.1l-.01-1.41 2.67-.73 3.53-.46c.27 2.99 1.9.16 3.01.48l.66-.66-1.99-3.38-3.21-4-1.24-.36-3.42-1.33c-.23.01-.46.01-.7.02l-3.78-.34c-.5 1.85-.98 3.3-1.27 4.79-.2 1.03-.15 2.11-.21 3.16-1.26 2.89-1.5 5.77-.02 8.68 2.16-.83 5.54.82 5.78-3.17.17 3.35 2.42 2.63 4.61 2.43l.59-3.35-5-.37zm19.35 96.72l7.68-7.25-7.95-7.37-6.92 7.04 7.19 7.58zm-37.76-.98l7.33-6.3-6.56-7.22-7.95 6.93 7.18 6.59zm26.62-6.4l-7.48-7.73-7 7.4 7.26 7.37 7.22-7.04zm.62-27.3l4.88 5.9 4.75-6.05-4.88-5.78-4.75 5.93zm-3.29-.06l-4.8-5.85-4.75 5.82 4.81 6.02 4.74-5.99zm-22.35-.12l4.79 5.93 4.75-5.92-4.76-5.73-4.78 5.72zm45.86 28.92l-6.46 6.79h12.63l-6.17-6.79zm-43.82 6.82h12.84l-6.68-6.46-6.16 6.46zm-12.21-6.02l-6.71 5.99h12.23l-5.52-5.99zm64.63 4.08v-12.35l-6.44 5.75 6.44 6.6zm-21.01 2.03l-6.24-6.45-6.7 6.45h12.94zm-.44-16.91H323.9l6.42 6.06 6.37-6.06zm-37.31-.12h-11.7l5.42 6.6 6.28-6.6zm56.63-.1h-12.44l6.09 6.29 6.35-6.29zm-37.29.09h-13.19l6.4 6.29 6.79-6.29zm-34.19 15.16l6.4-6.71-6.4-6.72v13.43zm43.28-35.68l3.98-5.22h-8.23l4.25 5.22zm-10.71-40.66l2.91-4.03-1.89-2.77c-.29-.46-.49-.99-.76-1.53-3.7 4.19-3.7 4.19-.26 8.33zm8.63-.26l2.85-3.96-2.94-4.02c-2.87 2.71-3.64 5.22.09 7.98zm-7.32 18.32l2.81 4.22c3.34-4.31 3.34-4.31-.03-8l-2.78 3.78zm-5.84 4.19c3.17-4.25 3.17-4.25-.1-8.02l-2.75 3.98 2.85 4.04zm17.29-8.19l-2.78 3.98c.49.76.87 1.42 1.32 2.03.48.65 1.04 1.25 1.6 1.92 3.11-3.91 3.11-3.91-.14-7.93zm-10.9 21.39h-8.21l4.18 5.04 4.03-5.04zm-21.15-.19l4.28 5.22 4.04-5.22h-8.32zm48.28 12.05v-9.82l-3.94 5 3.94 4.82zm-9.76-12.07l4.18 5.18 4.13-5.18h-8.31zm8.44 14.25l-4.39-5.05-3.91 5.05h8.3zm-38.73-.04l-3.99-5.11-3.93 5.11h7.92zm25.85.18l-4.17-5.09-4.07 5.09h8.24zm-16.88-5.19l-4.09 4.96h7.88l-3.79-4.96zm-18.32-6.38v8.98l3.66-4.65-3.66-4.33z" class="j"/><path d="M348.66 230.61h-23.91v-1.04h23.66l.25 1.04zm-54.67-1.11h23.64l.01 1.11h-23.99l.34-1.11z" class="V"/><path d="M190.32 328.91l7.13-1.79c2.77 2.64 5.92 6.51 11.56 7.29-.72-3.14.14-4.3 3.07-3.08.69.28 1.54.15 2.3.27 5.79.97 5.79.98 9.42-2.92l-.42 5.49h9.05c.22-2.95.57-5.52.57-8.09 0-3.24-2.49-4.96-5.05-5.25-1.45-.17-3.13 2.01-4.78 3.03-1.1.68-2.31 1.6-3.48 1.63-1.86.04-3.51-.22-4.46 1.89-.21.47-1.28.95-1.79.82-2.74-.73-6.2-.92-7.89-2.72-1.44-1.54 1.43-2.87 3.17-2.76 4.19.26 7.35-2.02 10.65-3.92 1.27-.73 2.27-1.94 3.73-3.23-2.83-1.49-5.16-2.9-7.64-3.91-.69-.28-1.89.59-2.81 1.03-1.17.57-2.3 1.24-3.68 2l-1.2-3.98c-.34 0-.63-.08-.72.01-1.7 1.83-6.09 3.18-8.16 4.57-3.16 2.11-7.61 2.66-9.25 7.05-.43 1.15-2.51 2.34-3.86 2.37-3.29.07-6.59-.53-10.51-.93.23-.33-.17.07-.36.55-.41 1.03-.66 2.98-1.08 3.01-1.92.14-4.12.23-5.75-.59-1.99-1.01-3.43-.78-4.77.56-3.09 3.08-6.86 4.66-11.08 5.29-1.29.19-2.71-.24-3.93.1-.99.27-1.77 1.28-2.64 1.96l.48 1.1c1.45-.38 2.9-1.07 4.33-1.04 1.55.02 3.09.72 4.63 1.12l.09.89c-.88.31-1.76.64-2.65.91-1.13.34-2.38.44-3.39.99-2.97 1.62-8-.63-8.71-3.91-.58-2.65.66-3.96 3.02-4.51l9.7-2.12c2.13-.53 4.29-1.13 6.28-2.04 3.37-1.54 6.5-3.37 10.44-3.68 2.69-.21 5.26-1.83 8.54-3.07-1.36-1.23-2.47-1.94-3.17-2.93-.88-1.22-2.03-2.73-1.92-4.02.08-.95 1.96-1.79 3.11-2.58.71-.49 1.54-.79 2.31-1.18l.57.5c-.54.81-1.22 1.57-1.59 2.45-.31.73-.65 2.04-.31 2.35 1.75 1.6 3.59 3.22 5.68 4.27.93.47 3.3.01 3.68-.72 1.54-2.99 3.6-3.83 6.57-2.51 1.99-3.75 1.02-6.53-1.54-9.58-2.15-2.56-3.96-.89-5.82-.48-1.87.42-3.6 1.45-5.39 2.21l-.4-.43c1.46-4.76 4.38-6.5 10.93-6.33.58-4.21 3.15-6.42 7.38-7.02.83-.12 1.5-1.23 2.28-1.83 1.18-.91 2.37-1.79 3.59-2.64.45-.32 1.16-.39 1.45-.79 3.22-4.47 8.33-3.6 12.78-4.53 2.24-.47 4.24-.71 4.98-3.53.27-1.01 2.13-2.22 3.3-2.25 3.86-.11 5.84-2.73 8.17-5.1 1.17-1.19 2.59-2.26 4.1-2.96 2.48-1.15 5.11-1.96 7.69-2.88.73-.26 1.59-.74 2.22-.56 6.81 1.94 14.37 1.8 20.02 6.98.82.75 1.19 1.98 1.96 2.82 2.95 3.23 6.66 5.64 9.23 9.37 1.74 2.52 4.87 4.07 6.72 6.54 1.11 1.49 1.8 1.78 3.4 1.36 4.55-1.19 8.55-.46 11.39 3.71 1.8 2.64 4.26 3.74 7.44 3.26 1.73-.26 3.27-.12 3.78 2.05.11.47.64 1.05 1.1 1.19 4.45 1.38 5.99 5.33 7.87 8.92.38.73.34 2.05-.1 2.73-.41.65-1.55.97-2.43 1.16-3.3.72-6.66 1.22-9.93 2.05-.75.19-1.27 1.35-1.73 1.88l7.19 2.78c.53.19 1.22.13 1.79-.01 3.92-.98 7.8-2.22 11.76-2.97 2.2-.41 4.16.52 4.68 3.12.45 2.25 1.53 2.77 3.83 1.99 2.6-.87 4.96-.4 6.3 2.65.46 1.05 1.82 1.85 2.94 2.45 2.64 1.41 5.51 2.42 8 4.03.99.64 1.92 2.67 1.61 3.68-.3.97-2.17 1.63-3.47 2.08-1.12.39-2.41.29-3.73.42l.47 4.38-10.53-.6v15.58l-1.31.19c-.61-2.48-1.53-4.93-1.75-7.44-.35-4-3.4-3.37-5.75-3.58-2.88-.26-3.19 2.37-3.1 4.17.19 3.89 1.06 7.74 1.45 11.63.13 1.32-.31 2.7-.61 4.94-2.6-5.48-5.52-9.85-2.5-15.6-1.58.19-2.5.03-2.8.38-1.91 2.3-4.12 2.18-6.83 1.66-2.48-.48-6.7 5.92-6.18 8.8.24 1.3.37 2.62.13 4.02-2.38-1.88-2.64-4.45-2.58-7.06.1-4.11-2.12-7.4-4.71-9.9-2.3-2.23-4.88-.69-4.95 2.7-.06 3.19.62 6.39.7 9.59.04 1.5-.62 3.01-.89 4.53-.25 1.46-.4 2.93-.59 4.4-2.17.92-2.51-.3-2.45-2.06l.41-13.61c0-1.13-.52-2.84-1.33-3.26-1.31-.68-3.06-.51-4.62-.69-.13 1.39-.36 2.77-.37 4.16-.01 1.3.68 3.51.22 3.76-2.93 1.58-1.57 3.77-1.32 5.89.07.61-.43 1.28-.67 1.92-1.13-1.78-1.7-3.56-1.8-5.37-.17-3.1.1-6.22-.12-9.31-.1-1.36-.95-2.66-1.46-3.99l-1.55.37 1.25 17.49-1.17.24c-1.4-3.93-2.38-7.99-2.85-12.32-.63 2.03-.76 4.03-.81 6.04-.05 2-.01 4-.01 6l-1.42.09c-.32-3.3-1.11-6.63-.83-9.88.29-3.24 1.68-6.38 2.54-9.58 1.27-4.7-.32-6.4-4.97-5.76l-.03 24.57c-.01.88-.49 1.77-.75 2.65l-1.1-.3-1.1-26.56c-2.83 1.41-4.07 2.62-4.09 5.34-.03 5.96.09 11.93.56 17.87.11 1.37 1.61 3.03 2.92 3.84 6.17 3.86 13.39 2.71 20.14 3.74 2.23.34 4.61-.29 6.91-.48h17.27l.12 1.35c-.6.25-1.19.56-1.81.74-2.78.83-5.55 1.73-8.37 2.36-1.08.24-2.3-.18-3.46-.3-2.08-.22-4.16-.45-6.41-.11l6.19 1.75c-5.26 2.26-9.81 1.85-14.47.44-2.41-.73-4.95-1.04-7.43-1.54l-.51 1.69 10.95 4.35c-3.64.87-7.24.42-10.9-1.44-2.49-1.27-5.34-2.19-8.11-2.49-6.83-.75-10.62-4.94-13.31-10.66-.18-.39-.49-.94-.35-1.24 3.75-8.04-.62-16.02-.14-24.03.14-2.3.34-4.6.28-6.9-.05-1.57-.57-3.11-.78-4.68-.26-1.96-.42-3.94-.67-6.31l-2.89 2.38c-.33-4.62-5.34-7.57-2.86-13.06l3.42 7.52c3.51-2.89 2.94-6.63 2.71-10.27-.02-.31-.17-.8-.39-.89-4.52-1.97-4.98-6.76-7.2-10.32-.41-.65-.67-1.39-1-2.09l-1.65.68c-.27 3.87-.95 7.77-.69 11.61.27 3.98 1.45 7.9 1.54 12.06l-5.13-7.58c-3.14-4.49-7.81-6.64-12.81-8.27-.72-.23-1.66-.14-2.18-.58-3.69-3.12-8.25-3.63-12.73-4.35-3.54-.57-5.41-3.26-7.35-5.76-.42-.53-.14-2.14.39-2.72.49-.53 2.07-.76 2.64-.36 1.29.91 2.32 2.23 3.32 3.5 1.16 1.49 1.97 3.27 4.48 2.02.62-.31 1.77.58 2.71.74 2.13.36 4.58 1.33 4.96-2.31.05-.5 1.23-1.38 1.42-1.27.75.44 1.64 1.1 1.86 1.86.31 1.06.08 2.28.08 3.43l1.17.15 1.02-5.14 2.91 1.98c.17-.29.38-.47.37-.65-.05-1.4-.14-2.79-.22-4.19 1.58-.01 3.25-.35 4.7.08 1.63.49 1.74 1.87 1.63 3.73-.16 2.57.84 5.22 1.34 7.83l1.17-.08c.27-2.86.71-5.72.76-8.58.07-4.76 1.28-6.35 5.95-6.93 2.56-.32 5.4.1 7.65-.87 2.37-1.03 4.21-3.29 6.17-5.13.16-.15-.39-1.36-.86-1.79-.72-.64-1.66-1.03-3.11-1.88l5.84-2.56-3.84-3.18 4.17-1.94c-2.21-1.18-3.71-2.26-5.39-2.83-2.05-.69-4.25-1.29-6.39-1.29-2.21 0-4.42.75-6.62 1.21-1.06.22-2.1.74-3.14.74-4.04-.01-6.56 1.4-7.9 5.11-1.02 2.84-2.62 4.34-5.72 3.54-2.99-.77-3.92 1.28-4.11 3.4-.28 3.25-2.27 3.68-4.78 3.56-4.72-.24-8.95.22-13.51 2.57-3.58 1.84-5.14 3.96-5.74 6.16-2.55 1.52-4.52 2.3-5.87 3.68-.58.59-.29 3.21.35 3.56 1.38.76 3.23.64 5.32.94l-.81-4.59c4.33-.49 4.42 3.96 7.07 5.15l-.32.97c-1 0-2.11-.27-2.99.07-.92.36-1.85 1.17-2.29 2.03-.21.41.58 1.86 1.14 2.01.82.23 1.85-.26 2.77-.5 1.39-.37 2.74-.86 4.13-1.19 4.54-1.08 8.74-.01 12.62 2.35 4.21 2.56 9 4.64 12.3 8.1 3.71 3.89 4.78 9.46 4.9 14.99.18 8.6.27 8.43-7.99 7.09-6.54-1.07-13.15-1.72-19.75-2.41-1.13-.12-2.34.45-3.52.71-3.03-.37-6.63-.59-7.88-3.58-1.55-3.7-4.14-4.36-7.47-4.71-.77-.03-1.43-1.15-2.14-1.79zm104.41-33.8c-2.14.99-3.54 1.7-5 2.28-.72.29-1.9.73-2.24.42-3.01-2.78-5.05-1.27-7.25 1.16-1.08 1.2-2.66 1.97-4.08 2.82-.51.3-1.34.57-1.8.36-3.1-1.41-6.16-.8-8.51 1.56-1.52 1.52-3.13 2.81-.73 5.25.92-.55 1.85-1.36 2.92-1.71 2.14-.69 4.36-1.54 6.54-1.5 1.11.02 2.55 1.63 3.15 2.86.38.78-.21 2.86-.91 3.18-2.07.95-4.41 1.74-6.65 1.78-1.58.02-3.41-2.14-4.71-1.79-1.55.43-3 2.31-3.87 3.9-1.9 3.47-3.41 7.16-5.07 10.76-.03.07.05.22.12.3 2.22 2.49 2 5.38 1.75 8.44-.16 1.92.54 3.91.86 5.88-.38-4.92 2.45-10.04-.79-14.73-.36-.53.02-1.72.3-2.51.44-1.24 1.2-2.37 1.63-3.62.72-2.14 1.91-1.97 2.77-1.48l1.23 6.69 5.86-1.3c1.37 1.41 2.84 3.96 3.98 3.82 1.59-.19 2.91-2.43 4.41-3.72.61-.53 1.72-1.38 2.07-1.17 3.13 1.83 6.38 2.64 9.97 1.81.08-.02.19.16.28.16l3.07-.14c-.27-.97-.37-2.03-.84-2.9-.77-1.44-1.77-2.77-2.68-4.14l1.03-1.26c1.44.74 3.16 1.19 4.26 2.28 3.02 2.98 5.12 3.15 7.7.39 3.25-3.47 5.36-8.4 11.07-8.84.41-.03.78-.69 1.14-1.04-5.21-8.33-14.09-7.25-19.86-1.2-1.93 2.03-3.22 1.73-5.03.41-2.29-1.67-.88-3.29.38-4.37 1.08-.93 2.74-1.56 4.17-1.62 2.12-.08 3.17-.94 3.98-3.3h-6.52c.58-.96.89-1.39 1.11-1.86s.33-.96.79-2.31zm34.44 49.62l2.99-6.22c2.96-.53 6.13-3.9 9.57-.28.17.18.8-.08 1.26-.14v-4.69c-1.84-.89-3.87-2.13-4.02-3.57-.29-2.78-1.72-2.83-3.05-1.61-1.87 1.72-4.09 1.62-6.18 2.28-2.47.77-3.39-.42-4.14-2.46.77-.5 1.49-.83 2.04-1.35.76-.73 1.38-1.6 2.06-2.41-1.15.05-2.31.03-3.45.17-1.07.12-2.48.94-3.12.52-2.32-1.55-3.79-1.36-4.91 1.3-.19.46-1.35 1.03-1.56.87-3.43-2.49-7.26-1.21-10.95-1.5-2.57-.21-8.1 2.03-8.92 4.63-.8 2.54-1.51 5.11-2.39 7.62-.22.62-.85 1.18-1.43 1.57-.96.64-2.02 1.12-3.05 1.64l-6.07 3.02 8 6.52c1.3-3.96 1.35-3.97 5.48-1.79 1.76-4.52 2.73-5 7.15-3.46l-.6 4.9c5.62-2.39 2.65 3.47 5.6 4.95l3.1-7.05 6.93.46c.87-2.6 1.4-5.69 2.01-5.71 2.16-.04 4.39.93 7.65 1.79zm-38.79-15.09c-4.45 2.81-5.78-1.36-8.27-3.23-1.93 1.8-3.46 3.94-5.54 4.95-2.25 1.09-4.79.62-5.38-2.05l-4.56 1.23c-1.13.3-3.15.39-3.25.89-.39 1.86-.15 3.84-.15 5.78 1.56-.09 3.15 0 4.66-.31 1.33-.28 2.72-1.67 3.83-1.42 3.74.83 7.37 2.16 10.91 3.26l6.41-4.06 1.34-5.04zm-24.83-37.07c.65-5 1.04-5.27 5.4-4.29.64.14 1.44.35 1.96.1.77-.37 1.69-1.02 1.92-1.74.29-.93.36-2.59-.18-3-2.2-1.66-4.67-2.95-7.31-4.54.16 3-5.74 4.05-2.17 7.62-1.74 2.69-6.1 2.69-5.91 6.62 2.89 3.31 3.93-1.56 6.29-.77zm12.59-4.2c-1.96 1.07-4.3 1.71-5.63 3.23-1.56 1.78-2.63 3.43-5.37 3.63-.83.06-1.56 2.57-2.13 4.04-.13.35.82 1.49.85 1.47 1.93-1.02 4.79-1.7 5.51-3.32 1.42-3.19 2.87-4.49 6.27-3.34 1.02.34 2.11.83 3.13.76.86-.06 2.26-.73 2.36-1.32.16-.89-.35-2.2-1.04-2.85-.98-.93-2.38-1.42-3.95-2.3zm-14.37 52.21l-.79-.67c-.16.85-.41 1.7-.45 2.56-.05.98.07 1.97.11 2.96.92-.38 1.87-.69 2.74-1.16 2.18-1.15 4.23-2.6 6.5-3.49 1.53-.6 3.36-.46 5.15-.66-1.74-2.35-5.33-3.8-6.82-2.96-2.13 1.2-4.3 2.29-6.44 3.42zm-6.91-29.72c3.74-4.37-1.6-9.85 4.33-13.06-6.26.92-6.24.92-5.98 5.97.05.99-.24 2.04-.02 2.98.29 1.22.93 2.37 1.67 4.11zm-18.58-1.37l.73-.34c-.94-1.98-1.43-5.06-2.92-5.66-1.87-.76-4.57.51-6.91.9l.17.75 8.93 4.35zm24.41 61.95c-1.09 2.07-1.46 3.71 1.54 4.37.78.17 1.53.8 2.14 1.37 2.17 2.06 3.03 2.28 5.65 1.44l-9.33-7.18zm-2.08-5.95c.76-3.67 3.31-7.51-.83-11.1l.83 11.1z" class="i"/><path d="M207.8 339.56c4.87 2.72 10.55 1.05 15.55 2.82 4.35 1.54 8.57 3.46 12.77 5.4.75.35 1.42 1.53 1.55 2.42.84 5.66 1.68 11.14.15 17.06-1.48 5.77-5.9 7.62-9.89 10.2-1.28.83-3.64.38-5.4-.01-5.25-1.16-10.23-2.71-15.77-.32-4 1.72-8.61 1.97-12.99.11-1.26-.54-2.75-.54-4.14-.79l-.07-.95c1.66-.09 3.47-.66 4.94-.17 5.4 1.81 9.22 1.64 13.87-1.18-2.52-6.95.87-13.58 1.65-20.43-.95-.09-1.56-.33-1.77-.13-1.88 1.72-4.22 3.23-5.36 5.37-.92 1.73-.49 4.24-.41 6.4.09 2.29.5 4.57.76 6.85l-1.06.14-.94-5.22c-.35-1.72-.79-3.42-1.58-5.19-2.27 3.98-.78 8.76-2.27 12.89l-1.16.01-.01-9.87c-.06-3.21 1.51-6.75-2.01-10.21-1.67 4.89-4.4 7.74-8.94 6.9l-2.85 7.29c-.66-.7-.95-.87-.94-1.02.04-4.42-1.28-7.87-5.88-9.59-.47-.17-.45-3.19.19-4.45 1.23-2.4 3.08-4.48 4.75-6.8-5.16-.07-8.95 3.36-9.02 8l-.01 8.48-.84.37c-.42-1.19-1.16-2.37-1.2-3.57-.08-2.54.19-5.09.33-7.63.14-2.6-1.62-3.67-3.56-2.94-3.58 1.37-4.85-.65-6.05-3.2-3.99.22-3.96.38-3 4.22.52 2.1.3 4.39.41 6.6l-1.7.47c1.97-7.1-3.19-10.67-6.55-15.35l1.52-2.05c.4-.14.55-.24.6-.21 3.08 2.63 6.3-.13 9.37.27 4.07.53 7.74.47 10.42-3.28 1.61 2.99-.11 4.58-7.22 6.4 1.91 1.18 3.01 2.21 4.29 2.58 2.03.59 4.22 1.64 6.13-.62 1.18-1.4 2.67-2.55 4.58-4.33l.43-3.37c4.56-.43 8.05 5.51 13.68 1.11l-4.53-2.18c-1.64-.74-3.58-1.09-4.9-2.2-3.19-2.68-4.89-2.96-8.6-.72-1.13.68-2.34 1.24-4.06 2.13 1.75-5.84 11.59-9.14 18.07-6.81l.11.77c-1.01 3.65 2.08 4.87 6.75 5.1 1.73 3.39 3.41 6.77.26 10.38l11.55-5.95zm23.52 32.16c-3.13-3.25-5.99-6.64-4.55-11.79.2-.73-1.75-2.06-2.71-3.11-.72 1.23-1.54 2.41-2.09 3.7-.22.52.21 1.29.21 1.95l.01 10.32-1.36.07c-2.89-3.4.6-8.12-2.31-12.24l-1.13 11.46-2.66-17.23c-.12-.72-.91-1.32-1.39-1.98-.51.73-1.31 1.4-1.49 2.2-.48 2.26-.64 4.58-1.06 6.86l-2.11 10.73c4.72.69 9.01.84 12.99 2.03 4.05 1.2 6.84.07 9.65-2.97zm-53.26-13.96c.67.17 1.21.27 1.72.45 3.61 1.31 6.01.43 8.11-2.68 1.17-1.73 2.18-4 5.18-2.66.57.26 1.75-.85 2.97-1.49-12.09-4.44-17.09-.13-17.98 6.38zm23.53-4.26c2.55-1.42 5.03-2.48 7.07-4.09.92-.73.95-2.58 1.38-3.92-1.11-.28-2.21-.77-3.33-.82-3.85-.18-5.04 3.27-7.36 5.43l2.24 3.4zm19.83-4.43l5.96 3.13v-5.23c-.99-.45-1.97-.95-3.01-1.34-1.14-.43-2.3-.82-3.49-1.07-.57-.12-1.39-.11-1.8.21-1.23.95-1.5 7.07-.39 8.18.33.33.99.57 1.41.47.4-.09.89-.64.97-1.06.23-1.13.26-2.3.35-3.29zm10.94 4.5v16.24c3.57-2.9 4.1-11.77 0-16.24zm-42.65-7.42c-2.85-2.82-5.19-2.5-7.71 0h7.71z" class="j"/><path d="M296.49 374.09c-2.31.19-4.69.82-6.91.48-6.76-1.04-13.97.12-20.14-3.74-1.31-.82-2.81-2.47-2.92-3.84-.47-5.93-.59-11.91-.56-17.87.01-2.72 1.26-3.93 4.09-5.34l1.1 26.56 1.1.3c.26-.88.75-1.76.75-2.65l.03-24.57c4.65-.64 6.24 1.05 4.97 5.76-.86 3.2-2.25 6.34-2.54 9.58s.51 6.58.83 9.88l1.42-.09.01-6c.05-2.01.18-4.01.81-6.04a54.21 54.21 0 0 0 2.85 12.32l1.17-.24-1.25-17.49 1.55-.37c.51 1.33 1.37 2.63 1.46 3.99.22 3.09-.05 6.21.12 9.31.1 1.81.67 3.59 1.8 5.37.24-.64.74-1.32.67-1.92-.25-2.12-1.61-4.31 1.32-5.89.46-.25-.24-2.46-.22-3.76.02-1.39.24-2.77.37-4.16 1.56.19 3.31.02 4.62.69.81.42 1.33 2.13 1.33 3.26 0 4.54-.24 9.07-.41 13.61-.07 1.76.27 2.98 2.45 2.06l.13.8z" class="U"/><path d="M244.92 329.57l-2.03 12.74c-.34 0-.68-.01-1.01-.01-1.44-5.36-1.36-10.87-1.28-16.35 1.39.22 2.58.79 3.41.46 3.05-1.21 4.44.37 5.13 2.88 1.01 3.67 1.92 7.39 2.56 11.14.19 1.12-.45 2.58-1.15 3.59-1.47 2.15-2.19 4.12.02 6.18.16.15.41.29.44.46 1.07 6.45 3.08 12.79 2.51 19.44-.09 1.04-.79 2.03-1.21 3.05 1.58 3.06 3.39 5.78 7.19 6.5.9.17 1.88 1.22 2.36 2.11 1.57 2.91 3.9 3.79 7.11 3.8 2.53.01 5.06.82 7.5 1.71-5.36-.13-11.08.81-15.52-2.87-2.64-2.19-5.25-3.7-8.57-4.52-4.12-1.02-5.91-5.4-3.98-10.35 1.75-4.49 1.78-8.76 1.25-13.5-.53-4.79-1.94-9.24-3.04-13.83-.3-1.24-.59-3.06.06-3.85 2.68-3.31.32-5.45-1.75-8.78zm.14 19.56c.31.29.91.61.88.85-.97 7.23 2.11 14.59-.7 21.74-.36.91-.57 2.07-1.25 2.63-3.16 2.65-6.45 5.14-9.72 7.66-.42.33-1.12.36-1.44.74-3.28 3.86-7.24 3.94-11.81 2.74-1.99-.52-4.32.26-6.49.4-.4.03-.81-.18-1.21-.28l-.25-.93c1.94-.59 3.84-1.37 5.82-1.72 1.62-.29 3.32-.12 4.99-.06 7.85.26 13.41-4.21 17.4-9.95 2.01-2.9 1.67-7.55 2.03-11.44.37-4.06.3-8.16.43-12.25l1.32-.13z" class="X"/><path d="M207.8 339.56l-11.54 5.94c3.15-3.6 1.47-6.99-.26-10.38-4.67-.22-7.76-1.44-6.75-5.1l.34-.95c.25-.05.49-.11.74-.16.71.64 1.36 1.76 2.13 1.84 3.33.34 5.92 1.01 7.47 4.71 1.25 2.99 4.85 3.21 7.88 3.58-.01.17-.01.34-.01.52z" class="U"/><path d="M230.93 386.77c4.9-2.57 9.6-5.2 14.48-7.41.8-.36 3.07.76 3.56 1.74 1.56 3.16 4.07 3.42 6.97 3.08 3.32-.39 4.92 1.91 6.42 4.7-.96-.3-1.9-.63-2.87-.88-2.17-.58-4.33-1.43-6.53-1.58-2.26-.16-3.93-.12-4.66-2.96-.57-2.21-2.08-1.17-3.8-.36-3.99 1.89-8.28 3.17-12.47 4.61-.24.08-.75-.63-1.1-.94z" class="X"/><path d="M255.28 278.73c-2.21 2.77-3.68 3.29-5.85 1.95-2.77-1.71-5.45-1.26-7.71 1.19-1.99 2.16-4.01 1.64-6.3 0l1.97-3.81.43.92c2.55-.5 5.09-1.37 7.65-1.4 3.03-.04 6.06.67 9.81 1.15z" class="g"/><path d="M205.52 382.46c5.75-5.9 12.39-4.26 18.9-2.56-1.8 1.21-6.66 1.83-9.75.72-2.15-.77-3.74-.5-5.54.8-.96.68-2.39.71-3.61 1.04zm-41.96-50.96c.87.59 1.9 1.05 2.59 1.81.64.7.91 1.74 1.34 2.62-.98.24-1.96.64-2.95.67-1.21.04-2.43-.19-3.63-.41-.56-.11-1.07-.48-1.6-.73.25-.52.36-1.2.76-1.52 1.09-.88 2.3-1.62 3.49-2.44zm70.62-44.16l8.03.52c.25.03.75 2.32.31 2.77-1.86 1.89-7.28-.02-8.34-3.29zm-6 3.71l-6.63 1.4c-1.14.15-2.36-.26-3.49-.77 5.35-3.58 8.08-3.56 10.12-.63zM208 321.07l-5.23-.38-.33-1.38c1.41-.59 2.79-1.52 4.23-1.6.66-.04 1.42 1.6 2.13 2.47l-.8.89zm11.23-23.74c-2.24 2.72-3.89 1.34-5.87-.44 2.17-2.07 3.9-1.4 5.87.44zm-23.96 24.8c2.76-3.31 4.5-1.17 6.79.44-2.54 2.34-4.34-.12-6.79-.44zm61.94-44.56l-3.24-2.11 1.99-2.2 2.31 3.15-1.06 1.16z" class="X"/><g class="i"><path d="M178.74 308.6l1-1.03.34.31-.78 1.22-.56-.5z"/><path d="M179.74 307.57l.45-.9.4.43-.51.78-.34-.31zm9.84 21.5l-.34.95-.11-.77a.54.54 0 0 0 .45-.18z"/></g><path d="M180.24 185.84l-5.11-7.93c-.33-.53-.63-1.18-.64-1.79-.21-12.01 1.04-23.79 5.74-36.04l.01 45.76zm4.27-44.03c4.29 11.03 6.44 22.4 5.84 34.23-.03.53-.12 1.13-.39 1.55l-5.45 8.04v-43.82z" class="a"/><path d="M187.43 140.59l-5.02-8.64-5.69 10.12-.74-.26 5.63-19.39h1.35l5.44 17.78-.97.39zm-8.16 105.82c-2.66-2.25-2.95-14.63-.59-17.25 3.32 2.36 3.79 13.35.59 17.25zm.04-38.78l2.02-14.21 1.14.06c2.5 4.5 3.23 9.3 2.28 14.15h-5.44z" class="U"/><path d="M186.06 229.06c1.93 2.97 1.55 15.36-.41 17.27-2.97-2.95-2.84-14.77.41-17.27z" class="a"/><path d="M208.08 161.33c.7 8.1-.98 15.55-5.36 22.41-.46-.29-.69-.35-.8-.51-.57-.81-1.11-1.64-1.79-2.68 5.04-5.35 6.96-12.1 7.95-19.22z" class="T"/><path d="M169.35 176.53c7.19 6.11 10.64 15.09 7.72 21.63-.12-1.02-.38-2.04-.34-3.05.25-5.58-1.59-10.31-6.1-13.62-2.07-1.52-2.32-2.9-1.28-4.96z" class="S"/><path d="M157.01 166.64l7.15 14.55-1.86 2.78c-3.57-5.54-5.44-11.18-5.29-17.33zm39.23 10.56c-.57 1.31-.77 3.08-1.76 3.87-4.81 3.85-6.84 8.75-6.49 14.79.04.76-.15 1.54-.32 3-3.11-6.1.68-16.31 7.51-22.01l1.06.35z" class="T"/><path d="M196.05 195.98c-.44 1.23-.7 2.57-1.35 3.67l-4.61 7.01c-.27.39-.78.62-1.18.93-.35-.48-.9-.9-1.03-1.43-.72-3 .9-6.73 3.77-8.62 1.18-.77 2.49-1.34 3.74-2l.66.44zm-26.51-.16c5.14 1.95 7.86 5.21 7.51 9.27-.07.87-.71 1.69-1.09 2.53l-1.47-2.07c-1.19-1.68-2.44-3.32-3.57-5.05-.87-1.33-1.6-2.76-2.39-4.15a32.12 32.12 0 0 0 1.01-.53zm13.11 60.4c1.54 0 3.1-.14 4.61.06.65.08 1.2.86 1.8 1.32-.54.42-1.06 1.19-1.61 1.2-3.41.11-6.82.11-10.23 0-.5-.02-.97-.88-1.45-1.35.53-.41 1.04-1.13 1.6-1.18 1.75-.15 3.52-.05 5.28-.05z" class="U"/><path d="M205.23 165.16l-5.75 12.05-1.32-.61c.49-4.68 5.53-7.25 5.75-12.05l1.32.61zm-44.42.63l6.17 10.44-1.54.82-5.5-10.75.87-.51z" class="S"/><path d="M185.63 218.29c-1.64 1.01-2.64 2.12-3.39 1.97-.88-.18-1.55-1.44-2.31-2.23.82-.74 1.59-1.98 2.48-2.07.76-.09 1.67 1.14 3.22 2.33zm-2.82 28.78c.36 1.29.93 2.56.99 3.86.03.66-.87 1.37-1.34 2.05-.62-.7-1.76-1.41-1.75-2.11.02-1.27.71-2.54 1.12-3.81l.98.01z" class="T"/><path d="M172.18 187.9l-6.46-4.05c.56-1.34 1.69-2.1 3.35-.49 1.3 1.27 2.34 2.8 3.5 4.21-.12.12-.25.22-.39.33z" class="S"/><path d="M178.07 269.31l1.72-2.46.29.95c1.3-.12 2.61-.37 3.91-.3.77.04 1.51.57 2.27.89l-.26.93-7.93-.01z" class="T"/><path d="M179.79 271.82l4.56.49-.89 3.8-.93.12-2.74-4.41zm13.41-85.78c1.66-1.58 2.72-4.9 6.37-2l-5.64 2.44-.73-.44z" class="S"/><path d="M184.2 213.41h-4.4l2.23-3.13 2.78 2.26-.61.87z" class="U"/><path d="M182.63 229.43l-2.53-3.69.45-.88 3.73.62-1.65 3.95z" class="b"/><g class="S"><path d="M191.81 189.03l-.64 5.82-1.1-.23 1.66-5.66.08.07zm-18.34 5.86l-.33-4.96.64-.1.81 5.04-1.12.02z"/><path d="M193.25 187.13l-1.43 1.9-.09-.07 1.04-2.42.48.59zm-33.04-23.21c.09.25.21.44.2.62-.01.11-.21.21-.33.32-.07-.18-.19-.37-.19-.55.01-.13.19-.24.32-.39z"/><path d="M172.58 187.58l.62 1.1-.41.25-.6-1.03.39-.32zm21.35-1.1l-.68.65-.48-.6.44-.5.72.45z"/></g><path d="M153.6 243.44c.74-4.12 1.41-8.26 2.31-12.34.16-.71 1.28-1.21 1.95-1.81.23.24.47.47.7.71l-3.41 12.71c-.12.42-.86.66-1.32.99l-.23-.26z" class="T"/><path d="M150.76 248.62l-.82 1.17-.56-.51.92-1.11.46.45z" class="Z"/><path d="M153.31 244.52l-.49 1.03-.42-.21.64-1.12.27.3z" class="T"/><path d="M150.84 247.33l.66-.99.42.26-.73 1.11-.35-.38zm7.75-20.86l-.45.31-.05-.76.5.45zm-8.29 21.7l.53-.84.34.38-.43.91-.44-.45z" class="Z"/><path d="M153.83 243.7l-.52.82-.27-.29.57-.79.22.26z" class="T"/><path d="M152.22 234.09l.55-.11-.17.48-.38-.37zm64.41-6.58l-5.58-10.41c-.19-.37.26-1.08.42-1.62l1.14.24 4.8 11.03-.78.76z" class="Z"/><path d="M212.61 215.71l-1.14-.24 2.26-1.15-2.73-5.19.56-.54 4.38 6.22-3.33.9z" class="S"/><path d="M218.99 231.78l-2.36-4.27.78-.78 2.16 4.54-.58.51z" class="Z"/><g class="S"><path d="M211 209.13l-1.28-1.93.52-.39 1.32 1.78-.56.54zm-2.02-3.31l-.75-1.23.3-.33.83 1.17-.38.39z"/><path d="M207.11 202.37l.82 1.15-.17.19-.6-1.4-.05.06zm2.26 3.06l.17.95-.56-.56.39-.39z"/><path d="M208.23 204.6l-.46-.89.17-.19.6.75-.31.33zm-1.07-2.29l-.5-.15.23-.33.22.54.05-.06zm-1.09-1.37c-.05-.08-.15-.16-.14-.23s.12-.12.19-.18c.05.08.15.16.14.23s-.12.12-.19.18zm-60.86 18.09l2.61-4.32.89.52-2.84 4.56-.66-.76zm4.9-7.7l1.65-2.36.2.23-1.39 2.58-.46-.45z"/></g><path d="M145.21 219.03l.66.77-.93 1.6-.78-.66 1.05-1.71z" class="Z"/><g class="S"><path d="M150.11 212.65l-1.1 1.92-.66-.33 1.26-2.06.5.47zm2.31-4.35l.2-1.12.43.18-.59.99c0-.01-.04-.05-.04-.05z"/><path d="M149.62 212.17l.49-.84a4.78 4.78 0 0 1 .45.45l-.45.87-.49-.48zm2.84-3.83l-.51.86-.2-.23.67-.67.04.04z"/></g><g class="Z"><path d="M155.76 196.37l.73-.71-.73.71z"/><path d="M156.43 195.71l.73-.72-.73.72zm59.35 52.57l.72.72-.72-.72zm-3.33-3.32l.71.72-.71-.72z"/><path d="M211.78 244.29l.71.71-.71-.71zm2.66 2.66l.72.72-.72-.72z"/><path d="M211.11 243.62l.71.71-.71-.71zm4 3.99l.72.72-.72-.72zm-1.33-1.33l.72.72-.72-.72z"/><path d="M213.11 245.62l.72.72-.72-.72zm-4.68-54.63l1.39 1.38-1.39-1.38zm3.35 3.32l1.37 1.37-1.37-1.37zm-2.01-2l.72.72-.72-.72z"/><path d="M211.11 193.65l.72.71-.72-.71z"/><path d="M210.44 192.98l.72.72-.72-.72zm10-14.64l1.39.69-1.39-.69z"/></g><path d="M339.84 249.23l-7.19-7.58 6.92-7.04 7.95 7.37-7.68 7.25z" class="b"/><path d="M302.08 248.25l-7.18-6.59 7.95-6.93 6.56 7.22-7.33 6.3z" class="a"/><path d="M328.7 241.85l-7.23 7.04-7.26-7.37 7-7.4 7.49 7.73z" class="Z"/><path d="M325.15 142.35l3.21 4-3.59 1.71-.81-.22.41.64-1.22 1.89-2.67.73c-1.51-1.93-3.22-3.42-5.93-2.81.06-1.06.01-2.13.21-3.16.29-1.49.77-2.94 1.27-4.79l3.78.34.22.59.48-.61 3.42 1.34-.17 2.29-1.93 1.41-2.03.88.26.5 1.76-.69.3.14-.27-.17-.01-.65 2.04-1.28 1.27-2.08zm-6.42 1.99c.1.16.16.41.29.44.14.04.34-.11.51-.18l-.38-.61-.42.35zm10.59 70.21l4.75-5.92 4.88 5.78-4.75 6.05-4.88-5.91zm-3.29-.06l-4.73 5.99-4.81-6.02 4.75-5.82 4.79 5.85zm-22.35-.12l4.79-5.72 4.76 5.73-4.75 5.92-4.8-5.93z" class="U"/><path d="M349.54 243.29l6.16 6.79h-12.63l6.47-6.79z" class="b"/><path d="M305.72 250.11l6.16-6.46 6.68 6.46h-12.84z" class="a"/><path d="M314.55 148.29c2.71-.61 4.43.88 5.93 2.81l.01 1.41-.18 1.29c-.25 3.99-3.62 2.35-5.78 3.17-1.48-2.91-1.24-5.79.02-8.68zm3.35 6.82l.37.08.1-.83c0-.02-.28-.05-.42-.07l-.05.82z" class="W"/><path d="M293.51 244.09l5.53 5.99h-12.23l6.7-5.99z" class="b"/><path d="M358.14 248.17l-6.44-6.6 6.44-5.75v12.35z" class="U"/><path d="M337.13 250.2h-12.94l6.7-6.45 6.24 6.45zm-.44-16.91l-6.38 6.06-6.42-6.06h12.8z" class="b"/><path d="M299.38 233.17l-6.28 6.6-5.42-6.6h11.7zm56.63-.1l-6.35 6.29-6.09-6.29h12.44zm-37.29.09l-6.8 6.29-6.4-6.29h13.2z" class="a"/><path d="M284.53 248.32v-13.43l6.4 6.72-6.4 6.71z" class="b"/><path d="M327.81 212.64l-4.25-5.22h8.23l-3.98 5.22z" class="S"/><path d="M317.1 171.98c-3.44-4.15-3.44-4.15.27-8.33.26.54.46 1.07.76 1.53l1.89 2.77-2.92 4.03zm8.63-.26c-3.73-2.77-2.96-5.27-.09-7.98l2.94 4.02-2.85 3.96zm-7.32 18.32l2.77-3.78c3.37 3.69 3.37 3.69.03 8l-2.8-4.22zm-5.84 4.19l-2.85-4.03 2.75-3.98c3.27 3.76 3.27 3.76.1 8.01zm17.29-8.19c3.25 4.02 3.25 4.02.14 7.93l-1.6-1.92c-.45-.61-.83-1.27-1.32-2.03l2.78-3.98z" class="U"/><path d="M318.96 207.43l-4.03 5.04-4.18-5.04h8.21z" class="S"/><path d="M297.81 207.24h8.32l-4.04 5.22-4.28-5.22z" class="T"/><path d="M346.09 219.29l-3.94-4.81 3.94-5v9.81z" class="S"/><path d="M336.33 207.22h8.32l-4.13 5.18-4.19-5.18zm8.44 14.25h-8.3l3.91-5.05 4.39 5.05zm-38.73-.04h-7.92l3.93-5.11 3.99 5.11z" class="T"/><path d="M331.89 221.61h-8.25l4.07-5.09 4.18 5.09zm-16.88-5.19l3.8 4.96h-7.88l4.08-4.96z" class="U"/><path d="M324.78 148.06l3.59-1.7 1.99 3.38-.66.66c-1.11-.33-2.74 2.51-3.01-.48l-3.53.46 1.22-1.89.4-.43z" class="W"/><path d="M296.69 210.04l3.66 4.33-3.66 4.65v-8.98z" class="U"/><path d="M320.31 153.79l.18-1.29 5.03.37-.59 3.35c-2.19.21-4.44.93-4.62-2.43z" class="V"/><path d="M323.75 144.29l.17-2.29 1.24.36-1.29 2.07-.12-.14zm-3.25-3.63l-.48.61-.22-.59.7-.02z" class="T"/><path d="M294.73 295.11l-.79 2.29c-.22.47-.53.9-1.11 1.86h6.52c-.81 2.36-1.86 3.22-3.98 3.3-1.43.06-3.09.69-4.17 1.62-1.26 1.08-2.67 2.7-.38 4.37 1.82 1.32 3.1 1.62 5.03-.41 5.77-6.05 14.65-7.12 19.86 1.2-.37.35-.73 1.01-1.14 1.04-5.71.45-7.82 5.37-11.07 8.84-2.59 2.76-4.68 2.6-7.7-.39-1.1-1.08-2.82-1.54-4.26-2.28l-1.03 1.26c.9 1.37 1.91 2.7 2.68 4.14.46.87.57 1.93.84 2.9l-3.07.14c-.09 0-.2-.17-.28-.16-3.59.84-6.84.03-9.97-1.81-.35-.2-1.45.65-2.07 1.17-1.5 1.29-2.82 3.53-4.41 3.72-1.14.14-2.61-2.42-3.98-3.82l-5.86 1.3-1.23-6.69c-.87-.49-2.05-.66-2.77 1.48-.42 1.25-1.19 2.38-1.63 3.62-.28.8-.66 1.98-.3 2.51 3.24 4.69.41 9.82.79 14.73-.32-1.96-1.02-3.95-.86-5.88.25-3.06.47-5.96-1.75-8.44-.07-.08-.15-.23-.12-.3 1.66-3.6 3.17-7.29 5.07-10.76.87-1.59 2.32-3.47 3.87-3.9 1.29-.36 3.13 1.81 4.71 1.79 2.25-.03 4.58-.83 6.65-1.78.7-.32 1.29-2.4.91-3.18-.6-1.23-2.04-2.84-3.15-2.86-2.18-.04-4.4.81-6.54 1.5-1.08.35-2 1.15-2.92 1.71-2.4-2.44-.78-3.73.73-5.25 2.35-2.36 5.42-2.97 8.51-1.56.46.21 1.3-.05 1.8-.36 1.42-.85 3.01-1.62 4.08-2.82 2.2-2.44 4.24-3.94 7.25-1.16.34.31 1.53-.13 2.24-.42 1.46-.56 2.86-1.27 5-2.26zm-5.64 17l-5.13-1.51c-1.68-.5-4.22 1.43-3.33 2.3 1.15 1.13 3.14 1.89 4.77 1.88 1.46-.01 4.41.44 3.69-2.67zm-15.26 7.08l9.11 2.32c-.48-1.22-.58-2.5-1.16-2.78-2.02-.98-4.21-1.61-6.38-2.39l-1.57 2.85zm31.8-8.74c-2.24.43-4.08.64-5.81 1.2-.6.19-1.24 1.23-1.28 1.92-.03.48.86 1.23 1.49 1.47 2.14.82 5.24-1.42 5.6-4.59zm23.54 34.28c-3.26-.86-5.48-1.83-7.68-1.77-.61.02-1.13 3.11-2.01 5.71l-6.93-.46-3.1 7.05c-2.94-1.47.02-7.34-5.6-4.95l.6-4.9c-4.42-1.54-5.39-1.05-7.15 3.46-4.13-2.18-4.18-2.17-5.48 1.79l-8-6.52 6.07-3.02 3.05-1.64c.58-.38 1.21-.95 1.43-1.57l2.39-7.62c.82-2.61 6.35-4.84 8.92-4.63 3.69.3 7.52-.99 10.95 1.5.22.16 1.37-.42 1.56-.87 1.11-2.66 2.58-2.85 4.91-1.3.64.42 2.05-.4 3.12-.52 1.14-.13 2.3-.12 3.45-.17-.68.81-1.3 1.68-2.06 2.41-.54.52-1.27.85-2.04 1.35.75 2.04 1.67 3.23 4.14 2.46 2.1-.66 4.31-.55 6.18-2.28 1.33-1.22 2.76-1.17 3.05 1.61.15 1.43 2.19 2.68 4.02 3.57v4.69c-.45.06-1.09.32-1.26.14-3.44-3.62-6.61-.25-9.57.28l-2.96 6.2zm-15.61-7.55c1.82-2.49 1.04-3.33-.91-3.43-2.07-.11-3.72 2.4-2.94 4.46.7 1.84 1.43 3.67 2.3 5.43.31.63 1.08 1.02 1.84 1.7 1.07-4.19 1.09-4.14 4.53-5.87.64-.32 1-1.21 1.49-1.84-.7-.31-1.4-.86-2.11-.89-1.18-.06-2.36.22-4.2.44zm11.34-7.34c-8-.08-8.73 1.34-7.11 5.08 6.24-.99 7.16-1.64 7.11-5.08zm-23.96 10.2c.87.57 1.72 1.54 2.27 1.4 2.08-.54 4.38-1.13 4.26-4.12-3.09-1.81-4.43.8-6.53 2.72zm26.99-3.26l-.34-1.39-4.85.89c.24.56.57 1.62.71 1.6 1.52-.27 3-.71 4.48-1.1zm-37.55-7.14l-1.35 5.04-6.41 4.06c-3.54-1.1-7.17-2.44-10.91-3.26-1.11-.24-2.49 1.14-3.83 1.42-1.51.32-3.1.23-4.66.31 0-1.94-.24-3.93.15-5.78.11-.5 2.12-.59 3.25-.89l4.56-1.23c.59 2.68 3.13 3.14 5.38 2.05 2.08-1.01 3.6-3.15 5.54-4.95 2.5 1.86 3.83 6.03 8.28 3.23z" class="b"/><path d="M180.08 307.88l.51-.78c1.79-.76 3.52-1.79 5.39-2.21 1.86-.42 3.67-2.09 5.82.48 2.56 3.05 3.53 5.83 1.54 9.58-2.97-1.33-5.03-.49-6.57 2.51-.38.73-2.75 1.19-3.68.72-2.09-1.05-3.93-2.67-5.68-4.27-.34-.31 0-1.62.31-2.35.37-.88 1.05-1.64 1.59-2.45l.77-1.23z" class="a"/><path d="M265.55 292.57c-2.36-.79-3.39 4.08-6.29.77-.19-3.93 4.17-3.93 5.91-6.62-3.57-3.57 2.33-4.62 2.17-7.62l7.31 4.54c.54.41.47 2.07.18 3-.23.73-1.16 1.37-1.92 1.74-.52.25-1.32.04-1.96-.1-4.36-.98-4.76-.71-5.4 4.29zm12.59-4.2c1.57.88 2.97 1.38 3.96 2.31.69.65 1.2 1.96 1.04 2.85-.1.59-1.5 1.26-2.36 1.32-1.02.07-2.1-.41-3.13-.76-3.4-1.15-4.85.16-6.27 3.34-.72 1.62-3.58 2.3-5.51 3.32-.03.02-.99-1.13-.85-1.47.57-1.47 1.3-3.98 2.13-4.04 2.73-.2 3.81-1.85 5.37-3.63 1.31-1.53 3.66-2.17 5.62-3.24zm-14.37 52.21l6.43-3.41c1.49-.84 5.09.61 6.82 2.96-1.79.2-3.62.06-5.15.66-2.27.89-4.32 2.33-6.5 3.49-.87.46-1.83.77-2.74 1.16l-.11-2.96c.05-.86.29-1.71.45-2.56l.8.66zm-6.91-29.72c-.73-1.75-1.38-2.89-1.67-4.12-.22-.94.07-1.98.02-2.98-.26-5.05-.27-5.05 5.98-5.97-5.93 3.23-.6 8.71-4.33 13.07z" class="U"/><path d="M238.28 309.49l-8.94-4.35-.17-.75c2.34-.39 5.04-1.66 6.91-.9 1.49.61 1.98 3.68 2.92 5.66l-.72.34zm24.41 61.95l9.32 7.18c-2.61.84-3.48.63-5.65-1.44-.61-.58-1.36-1.2-2.14-1.37-2.99-.66-2.61-2.3-1.53-4.37z" class="T"/><path d="M260.61 365.49l-.83-11.1c4.15 3.59 1.59 7.43.83 11.1z" class="S"/><path d="M231.32 371.72c-2.81 3.04-5.59 4.17-9.63 2.96-3.98-1.19-8.27-1.34-12.99-2.03l2.11-10.73c.41-2.28.57-4.6 1.06-6.86.17-.8.97-1.47 1.49-2.2.48.66 1.27 1.26 1.39 1.98l2.66 17.23 1.13-11.46c2.91 4.13-.58 8.84 2.31 12.24l1.36-.07-.01-10.32c-.01-.66-.44-1.43-.21-1.95.56-1.3 1.38-2.48 2.09-3.7.96 1.05 2.91 2.38 2.71 3.11-1.46 5.16 1.4 8.55 4.53 11.8z" class="a"/><path d="M178.06 357.76c.89-6.51 5.89-10.82 17.98-6.37-1.21.64-2.39 1.74-2.97 1.49-3.01-1.34-4.02.93-5.18 2.66-2.11 3.11-4.5 3.99-8.11 2.68-.51-.2-1.04-.29-1.72-.46z" class="b"/><path d="M201.59 353.5l-2.24-3.4c2.32-2.15 3.5-5.6 7.36-5.43 1.12.05 2.22.53 3.33.82-.43 1.34-.46 3.19-1.38 3.92-2.04 1.62-4.52 2.67-7.07 4.09zm19.83-4.43c-.09.99-.12 2.16-.35 3.28-.08.42-.58.97-.97 1.06-.42.1-1.08-.15-1.41-.47-1.1-1.1-.84-7.23.39-8.18.42-.32 1.23-.33 1.8-.21 1.19.25 2.35.64 3.49 1.07 1.03.39 2.02.89 3.01 1.34v5.23l-5.96-3.12zm10.94 4.5c4.1 4.47 3.57 13.33 0 16.24v-16.24z" class="U"/><path d="M189.71 346.15H182c2.52-2.5 4.86-2.82 7.71 0z" class="S"/><g class="T"><path d="M321.83 145.71l.01.65-.03.03-1.76.69-.26-.5 2.03-.88.01.01z"/><path d="M321.81 145.7l1.93-1.41.12.14-2.04 1.28zm-3.08-1.36l.41-.34.38.61c-.17.07-.37.22-.51.18-.12-.05-.19-.29-.28-.45zm3.11 2.02l.27.17-.3-.14c0-.01.03-.03.03-.03z"/></g><path d="M324.37 148.47l-.41-.64.81.22a3.97 3.97 0 0 1-.4.42z" class="W"/><path d="M317.9 155.11l.04-.82.42.07c-.01.28-.06.55-.1.83l-.36-.08z" class="j"/><path d="M289.09 312.11c.72 3.11-2.23 2.66-3.69 2.67-1.62.01-3.62-.76-4.77-1.88-.89-.87 1.64-2.8 3.33-2.3l5.13 1.51z" class="f"/><path d="M273.83 319.19l1.56-2.85 6.38 2.39c.58.28.68 1.56 1.16 2.78l-9.1-2.32z" class="X"/><path d="M305.63 310.45c-.36 3.17-3.46 5.41-5.6 4.58-.63-.24-1.51-.99-1.49-1.47.04-.68.67-1.72 1.28-1.92 1.73-.55 3.57-.76 5.81-1.19z" class="g"/><path d="M313.56 337.18c1.84-.22 3.02-.5 4.19-.45.72.03 1.41.57 2.11.89-.49.63-.85 1.52-1.49 1.84-3.43 1.73-3.46 1.68-4.53 5.87-.76-.67-1.53-1.07-1.84-1.7-.87-1.76-1.61-3.59-2.3-5.43-.78-2.06.87-4.57 2.94-4.46 1.96.11 2.74.95.92 3.44zm11.34-7.34c.05 3.44-.87 4.1-7.11 5.08-1.62-3.74-.89-5.16 7.11-5.08zm-23.96 10.2c2.11-1.92 3.44-4.53 6.54-2.72.12 2.99-2.18 3.58-4.26 4.12-.56.15-1.41-.83-2.28-1.4zm26.99-3.26l-4.48 1.1c-.14.02-.47-1.04-.71-1.6l4.85-.89.34 1.39z" class="X"/></svg>