<?xml version="1.0" encoding="utf-8"?>
<!-- Generator: Adobe Illustrator 25.2.0, SVG Export Plug-In . SVG Version: 6.00 Build 0)  -->
<svg version="1.1" id="Layer_1" xmlns="http://www.w3.org/2000/svg" xmlns:xlink="http://www.w3.org/1999/xlink" x="0px" y="0px"
	 viewBox="0 0 205.5 205.5" style="enable-background:new 0 0 205.5 205.5;" xml:space="preserve">
<style type="text/css">
	.st0{fill:#009AC8;}
	.st1{fill:#FEFEFE;}
</style>
<path class="st0" d="M205.5,102.9c0,56.9-45.9,102.7-103,102.7c-56.4,0-103.1-46.1-102.5-104C0.6,45,47.2-1,104.7,0
	C160.8,1,205.8,47.1,205.5,102.9z"/>
<path class="st1" d="M83.6,71.8c11.2-7.6,22-15,32.8-22.4c5.3-3.6,10.5-7.3,16.2-10.4c4.9-2.7,9.8-2.8,14.6,0.3
	c6.8,4.3,12.4,9.7,17.7,15.7c0.6,0.7,1.1,1.5,0.6,2.5c-0.5,0.9-1.4,0.8-2.2,0.7c-3.9-0.4-7.4,0.9-10.5,3.1
	c-7.2,5-14.4,10.2-21.7,15.2c-1.5,1-0.9,1.7-0.2,2.7c10.7,13.9,21.3,27.9,32,41.9c3.8,5,3,11.4-1.9,14.7c-1.5,1-3.1,1.5-4.9,1.5
	c-7,0-14-0.1-21,0c-1.8,0-2.5-0.9-3.3-2.1c-9-12.4-18.1-24.7-27.1-37.1c-1.1-1.5-1.7-1.7-3.2-0.6c-5.3,3.9-10.7,7.7-16.1,11.4
	c-1.3,0.9-1.7,1.8-1.7,3.3c0.1,7.7,0,15.3,0.1,23c0,1.7-0.4,2.3-2.2,2.3c-10.7-0.1-21.3-0.1-32,0c-1.5,0-2-0.4-2-2
	c0-28.1,0-56.1,0.1-84.2c0-3.8,1.6-7.2,4.4-9.8C60.7,33,71.1,27,82.2,22c0.8-0.4,1.8-0.9,2.6-0.1c0.9,0.9,0.3,1.8-0.1,2.8
	c-0.7,1.8-1.2,3.6-1.2,5.6c0,13.2,0,26.5,0,39.7C83.5,70.5,83.5,70.9,83.6,71.8z"/>
<path class="st1" d="M103.5,178c-11.2,0-22.5,0-33.7,0c-7.1,0-13.1-3-18.4-7.4c-7.3-6-13-13.3-18.4-20.9c-0.6-0.8-1.1-1.7-1.2-2.7
	c-0.3-2.3,1.6-3.8,3.6-2.7c2.6,1.4,5.3,1.7,8.2,1.7c26.1,0,52.3,0.1,78.4-0.1c14.3-0.1,28.6,0,42.9-0.1c2.5,0,5-0.2,7.2-1.6
	c0.9-0.6,1.8-0.7,2.8,0.1c1,0.9,1.3,1.9,0.9,3.1c-0.2,0.7-0.6,1.4-1,2c-5.4,7.7-11.2,15.1-18.5,21.2c-6.1,5.1-13,7.7-21.1,7.6
	C124.6,177.9,114.1,178,103.5,178z"/>
</svg>
