<?xml version="1.0" encoding="utf-8"?>
<!-- Generator: Adobe Illustrator 25.2.0, SVG Export Plug-In . SVG Version: 6.00 Build 0)  -->
<svg version="1.1" id="Layer_1" xmlns="http://www.w3.org/2000/svg" xmlns:xlink="http://www.w3.org/1999/xlink" x="0px" y="0px"
	 viewBox="0 0 210.8 212.5" style="enable-background:new 0 0 210.8 212.5;" xml:space="preserve">
<style type="text/css">
	.st0{fill:#FFFFFF;}
	.st1{fill:#8D8E92;}
	.st2{fill:#6E6F72;}
	.st3{fill:#8C8D90;}
	.st4{fill:#8C8E91;}
	.st5{fill:#6D6F72;}
	.st6{fill:#EF846C;}
	.st7{fill:#F59624;}
	.st8{fill:#D4DD2C;}
	.st9{fill:#0587C3;}
	.st10{fill:#FAC513;}
	.st11{fill:#48C1C8;}
	.st12{fill:#924099;}
	.st13{fill:#9CA094;}
	.st14{fill:#81A4CD;}
	.st15{fill:#5477A0;}
	.st16{fill:#FEFEFE;}
</style>
<path class="st0" d="M0,106.2C0,47.7,47.1,0.7,105.9,0.9C164.1,1,211.7,48.6,210.7,108.1c-0.9,57.3-47.5,103.6-105.7,103.6
	C47,211.7,0,164.5,0,106.2z"/>
<path class="st1" d="M148.7,95.5c0,6.2,0,11.9,0,17.6c0,0.9,0.4,2.1-1,2.3c-1.2,0.2-2.5,0.3-2.5-1.6c0-7.6,0-15.3,0-22.9
	c0-0.8-0.1-1.6,1.1-1.8c1-0.1,1.8,0,2.7,1c4.8,5.7,9.1,11.8,13.7,17.6c0.3,0.4,0.6,0.7,1.2,1.5c0-6.2,0-12,0-17.8
	c0-1.3-0.1-2.3,1.8-2.3c1.8,0,1.9,0.9,1.9,2.3c0,7.3,0,14.6,0,21.9c0,0.8,0.6,2.1-1,2.2c-1.2,0.1-2.5,0.4-3.5-1.1
	c-4.1-6.2-8.9-11.9-13.3-17.9C149.6,96.2,149.4,96,148.7,95.5z"/>
<path class="st2" d="M39.4,102.2c0-3.8,0.1-7.6,0-11.5c-0.1-1.9,0.9-1.8,2.2-1.9c1.4,0,2.3,0.1,2.2,1.9c-0.2,2.4,0,4.9-0.1,7.3
	c0,1.3,0.4,1.8,1.8,1.8c2.9-0.1,5.9-0.1,8.9,0c1.6,0.1,1.9-0.6,1.8-2C56,95.5,56.1,93,56,90.6c-0.1-1.7,0.8-1.7,2.1-1.7
	c1.3,0,2.1,0,2.1,1.7c-0.1,7.6-0.1,15.3,0,22.9c0,1.8-0.7,1.9-2.2,1.9c-1.4,0-2-0.3-2-1.9c0.1-2.7,0-5.4,0.1-8.1
	c0.1-1.5-0.3-2.2-2-2.1c-2.9,0.1-5.7,0.1-8.6,0c-1.4,0-2,0.4-1.9,1.9c0.1,2.8-0.1,5.6,0.1,8.3c0.1,2-1.1,1.7-2.3,1.8
	c-1.4,0.1-2-0.2-2-1.8C39.4,109.8,39.4,106,39.4,102.2z"/>
<path class="st3" d="M87.2,102.3c0-3.7,0-7.5,0-11.2c0-1.3,0.4-1.9,1.8-1.8c3.4,0.1,6.8-0.1,10.1,0.1c5.4,0.3,8.1,5.1,5.4,9.8
	c-0.8,1.4-0.7,2.1,0.4,3.2c2.3,2.2,3.2,5,2,8.1c-1.1,3-3.3,4.9-6.6,4.9c-3.8,0.1-7.6,0-11.4,0.1c-1.5,0-1.7-0.8-1.7-1.9
	C87.3,109.8,87.2,106.1,87.2,102.3z"/>
<path class="st4" d="M199.9,115.2c-3.7,1.1-5.6-0.7-7-3.4c-1.6-3.1-4.6-5.2-6.5-8c-0.2-0.3-0.6-0.9-1-0.4c-1.3,1.8-3.9,2.8-3.8,5.6
	c0,1.5,0,3,0,4.4c0.1,1.3-0.1,2.1-1.8,2.1c-1.8,0-1.7-1-1.7-2.2c0-7.4,0-14.7,0-22.1c0-1.3,0.1-2.2,1.8-2.2c1.7,0,1.8,0.8,1.7,2.1
	c0,3.5,0,6.9,0,10.6c1.2-0.3,2.2-1.1,2.8-1.9c2.3-3.1,5.3-5.5,7.7-8.4c1.7-2.1,3.3-2.3,5.9-1.9c-2.8,3.2-5.3,6.2-8.1,8.9
	c-1.5,1.5-1.4,2.4-0.1,4C193.2,106.6,196.4,110.8,199.9,115.2z"/>
<path class="st3" d="M138.2,115.2c-2.7,0.8-4.2,0.1-4.5-2.8c-0.2-2-1.3-3-3.5-2.8c-2.9,0.2-5.7,0.1-8.6,0c-1.8-0.1-2.7,0.3-3.2,2.3
	c-1,3.8-1.2,3.7-4.8,3.3c0.1-1.3,0.8-2.5,1.4-3.6c3.3-6.8,5.6-14.2,9.1-20.9c0.4-0.9,0.7-1.7,2-1.7c1.2,0,1.6,0.6,2.1,1.6
	c3.8,7.7,6.5,15.8,9.9,23.6C138.1,114.5,138.2,114.9,138.2,115.2z"/>
<path class="st5" d="M15.4,102.2c0-3.8,0.1-7.6,0-11.5c0-1.6,0.6-1.8,2-1.9c1.5,0,1.9,0.4,1.9,1.9c-0.1,6.2,0,12.3-0.1,18.5
	c0,2,0.6,2.6,2.5,2.5c3-0.1,6.1,0,9.1-0.1c1.6-0.1,1.8,0.6,1.8,2c0,1.3-0.4,1.8-1.8,1.8c-4.6-0.1-9.2-0.1-13.8,0
	c-1.4,0-1.7-0.5-1.7-1.8C15.4,109.8,15.4,106,15.4,102.2z"/>
<path class="st6" d="M37.7,133.7c-2,0-4,0-6.1,0c-1.4-3.3-1.4-6.5,0-9.8c2,0,4,0,6.1,0C39.2,127.2,39.2,130.4,37.7,133.7z"/>
<path class="st7" d="M54.1,123.9c6.1-0.4,6.1-0.4,6.1,5.4c0,4.6,0,4.6-4.5,4.4c-0.5,0-1-0.1-1.6-0.1
	C52.6,130.4,52.6,127.2,54.1,123.9z"/>
<path class="st8" d="M21.1,133.7c-5.7,0.3-5.7,0.3-5.7-5.2c0-4.7,0-4.7,4.7-4.5c0.3,0,0.7,0.1,1,0.1
	C22.4,127.2,22.4,130.4,21.1,133.7z"/>
<path class="st9" d="M37.7,133.7c0-3.2,0-6.5,0-9.7c1.9,0,3.9,0,5.8,0c1.3,3.2,1.3,6.4,0,9.6C41.6,133.6,39.6,133.6,37.7,133.7z"/>
<path class="st10" d="M43.5,133.6c0-3.2,0-6.4,0-9.6c1.9,0,3.8,0,5.6,0c1.5,3.2,1.5,6.5,0,9.7C47.3,133.6,45.4,133.6,43.5,133.6z"/>
<path class="st11" d="M21.1,133.7c0-3.2,0-6.5,0-9.7c1.6,0,3.1,0,4.7,0c1.2,3.2,1.2,6.5,0,9.7C24.2,133.7,22.6,133.7,21.1,133.7z"/>
<path class="st12" d="M31.6,123.9c0,3.3,0,6.5,0,9.8c-1.6,0-3.2,0-4.8,0c-0.8-3.2-0.8-6.5,0-9.7C28.4,123.9,30,123.9,31.6,123.9z"/>
<path class="st13" d="M49.2,133.6c0-3.2,0-6.5,0-9.7c1.6,0,3.3,0,4.9,0c0,3.2,0,6.5,0,9.7C52.4,133.6,50.8,133.6,49.2,133.6z"/>
<path class="st14" d="M25.8,133.7c0-3.2,0-6.5,0-9.7c0.2,0,0.4,0,0.6,0c0.4,3.2,0.4,6.5,0,9.7C26.2,133.7,26,133.7,25.8,133.7z"/>
<path class="st15" d="M26.4,133.7c0-3.2,0-6.5,0-9.7c0.2-0.1,0.3-0.1,0.5,0c0,3.2,0,6.5,0,9.7c0,0-0.2,0.1-0.2,0.1L26.4,133.7z"/>
<path class="st0" d="M95.5,112.4c-5.4,0-5.4,0-5.4-5.4c0-0.5,0.1-1,0-1.6c-0.3-2,0.5-2.8,2.6-2.6c2.1,0.2,4.1,0,6.2,0.1
	c3.3,0.2,5.3,2,5.3,4.8c0,2.9-1.9,4.6-5.3,4.7C97.7,112.5,96.6,112.4,95.5,112.4z"/>
<path class="st0" d="M95.2,92.6c1.3,0,2.6-0.1,3.9,0c1.9,0.3,3.5,1.1,3.7,3.3c0.1,1.9-1.7,3.8-3.8,3.9c-2.5,0.2-5,0.1-7.6,0.1
	c-0.8,0-1.3-0.3-1.3-1.2c0-1.6,0-3.3,0-4.9c0-1,0.6-1.3,1.5-1.3C92.8,92.5,94,92.5,95.2,92.6C95.2,92.5,95.2,92.5,95.2,92.6z"/>
<path class="st16" d="M125.9,93.9c1.7,4,3.2,7.6,4.8,11.1c0.6,1.2,0.3,1.7-1.1,1.7c-2.5-0.1-5,0-7.5,0c-1.5,0-1.6-0.6-1-1.8
	C122.6,101.5,124.2,97.9,125.9,93.9z"/>
</svg>
