<?xml version="1.0" encoding="utf-8"?>
<!-- Generator: Adobe Illustrator 25.2.0, SVG Export Plug-In . SVG Version: 6.00 Build 0)  -->
<svg version="1.1" id="Layer_1" xmlns="http://www.w3.org/2000/svg" xmlns:xlink="http://www.w3.org/1999/xlink" x="0px" y="0px"
	 viewBox="0 0 500 500" style="enable-background:new 0 0 500 500;" xml:space="preserve">
<style type="text/css">
	.st0{fill:#4E2A81;}
	.st1{fill:#FDAB00;}
</style>
<path class="st0" d="M3.8,263.9c0-9.4,0-18.9,0-28.3c0.9-8,0.8-16.1,1.5-24.1c0.9-11.1,3.6-21.8,6.8-32.3
	c10.4-34.3,27.1-65.2,50.6-92.3c29.7-34.2,66.3-58.4,109.2-73c18.1-6.1,36.5-10.2,55.8-10.2c5,0,10-0.3,15-0.3c5.3,0,10.6,0,16,0
	c25.3-0.6,49.9,2.9,73.7,11.4c29.4,10.6,56.3,25.6,80.1,45.9c23,19.7,41.9,42.9,56.5,69.6c13.7,24.9,23.3,51.3,27.1,79.4
	c2.4,17.9,2.4,36.1,1.6,54.2c-0.4,9.4-0.2,18.9-1.7,28.2c-4.5,28.1-14,54.4-27.9,79.2c-12.1,21.6-27.1,41-45,58.1
	c-15.6,15-32.9,27.6-51.8,38.1c-24,13.2-49.3,22.2-76.2,27.1c-7.6,1.4-15.2,1.6-22.8,1.9c-19.4,0.9-38.9,0.7-58.2-1
	c-11.4-1-22.6-3.9-33.7-7.1c-33.6-9.9-63.7-26.1-90.3-48.7c-23.5-19.9-42.7-43.4-57.4-70.5c-12.7-23.4-21.7-48-26.2-74.2
	c-1.5-8.6-1.4-17.3-1.9-25.9C4.1,267.4,4.7,265.6,3.8,263.9z"/>
<path class="st0" d="M241.6,3.7c0-0.2,0.1-0.5,0.1-0.8c5.9,0,11.8,0,17.7,0c0.1,0.2,0.1,0.5,0.1,0.7C253.6,3.7,247.6,3.7,241.6,3.7z
	"/>
<path class="st1" d="M299.5,395.3c-10.5,0-20.9-0.1-31.4,0c-2.9,0-4.2-0.5-4.2-3.8c0.2-18.1,0.1-36.3,0-54.4c0-3.3,0.6-3.7,3.6-2.3
	c14.3,6.7,29.2,11.9,45.1,13.1c11.4,0.9,22.8,0.4,32.8-6.2c13.1-8.6,18.1-21.9,19.2-36.6c2.7-36.1-4.7-70-23.5-101.1
	c-19.2-31.8-42.6-60-71.7-83.3c-1.6-1.3-3.2-2.6-5-3.7c-15.4-9.8-10.5-10.3-25.7,0.2c-21.5,15-38.8,34.3-54.8,54.8
	c-14.5,18.7-27.6,38.3-35.6,60.7c-8.6,24-12.1,48.9-9.4,74.3c1.5,13.7,6.4,26.1,18.4,34.3c10.2,6.9,21.8,7.5,33.6,6.6
	c15.6-1.3,30.2-6.2,44.3-12.8c3.7-1.8,4.3-1,4.2,2.8c-0.1,17.8-0.1,35.7,0,53.5c0,3-0.8,4-4,4c-20.6-0.1-41.3-0.1-61.9-0.1
	c-2.6,0-4.9-0.4-7.3-1.5c-27-12.8-54.1-25.5-81.2-38.2c-2.9-1.4-3.6-2.7-2.8-5.9c11.3-43.5,22.3-87,33.5-130.5
	c3.8-15,7.7-29.9,11.5-44.9c0.5-2.1,1.6-3.7,3.1-5.1c39.6-35.8,79.1-71.6,118.6-107.4c2.2-2,3.3-1.6,5.3,0.2
	c39.2,35.6,78.4,71.1,117.6,106.5c2.1,1.9,3.5,4.1,4.2,7c14.8,58.2,29.7,116.4,44.6,174.5c0.8,3,0.3,4.3-2.6,5.7
	c-27.2,12.7-54.4,25.5-81.6,38.3c-2.2,1-4.4,1.4-6.8,1.4C319.9,395.3,309.7,395.3,299.5,395.3z"/>
<g id="Layer_2_1_">
</g>
</svg>
