<?xml version="1.0" encoding="utf-8"?>
<!-- Generator: Adobe Illustrator 25.2.0, SVG Export Plug-In . SVG Version: 6.00 Build 0)  -->
<svg version="1.1" id="Layer_1" xmlns="http://www.w3.org/2000/svg" xmlns:xlink="http://www.w3.org/1999/xlink" x="0px" y="0px"
	 viewBox="0 0 500 500" style="enable-background:new 0 0 500 500;" xml:space="preserve">
<style type="text/css">
	.st0{fill:#F26F23;}
	.st1{fill:#FEFEFE;}
	.st2{fill:#040707;}
	.st3{fill:#F26F21;}
	.st4{fill:#F26507;}
	.st5{fill:#676767;}
</style>
<path class="st0" d="M497.9,250.1c0,136.9-111.1,247.8-248.3,247.8C112.8,497.9,2,386.7,2.1,249.4C2.2,112.4,113.6,2,251.4,2.1
	C387.2,2.2,497.9,113.7,497.9,250.1z"/>
<path class="st1" d="M184.6,227c-2.9,0-5.3,0-7.8,0c-25.3,0-50.6-0.1-75.9,0.1c-4.1,0-4.7-0.6-3.1-4.6c6.3-16.2,12.8-32,25.1-45
	c17.2-18.3,38.7-28.9,62.5-35.4c23-6.3,46.5-7.7,70.2-7.7c60.6,0.1,121.2,0,181.9,0c5.7,0,5.7,0,3.6,5.3
	c-5.4,13.6-10.6,27.3-20,38.8c-17,21-39.6,33-65,40.4c-5.6,1.6-11.2,2.8-17.2,4.3c1.2,2.2,3.6,2.8,5.4,3.9
	c11,6.7,19.8,15.3,23.8,27.8c5.1,15.9,2,30.9-6.8,44.8c-11.6,18.3-28.1,31.4-46.3,42.4c-33.6,20.3-70.1,32.5-109.1,37.2
	c-25.5,3.1-50.8,3.4-75.8-3.2c-11.2-3-21.8-7.2-30.8-14.6c-20.6-16.9-24.9-42.5-11.3-65.4c9-15.2,21.6-26.9,35.8-37
	c18.2-12.9,37.9-22.7,58.9-30.1C183.1,228.8,184,228.7,184.6,227z"/>
<path class="st2" d="M242.1,230.1c-17.1,6.9-29.4,18.9-37.9,35.2c-6,11.7-12.2,23.2-18.7,34.7c-7.9,14-15.9,28.1-32.9,35.7
	c16.1,1.3,30.7,1.1,45.1-1.6c18.7-3.5,36-10.4,50.7-23c9-7.8,15.3-17.4,20.3-28c6.3-13.4,13.5-26.3,20.9-39.1c1.1-2,2.6-3.9,4-5.8
	c7.5-10.2,10.3-11.2,22.5-8.2c7.5,1.8,14.6,4.4,21.3,8.3c21.7,12.6,26.7,33,13.4,54.3c-10.5,16.8-25.7,28.6-42.4,38.7
	c-25.4,15.4-52.9,25.4-82,31.4c-26.4,5.4-53,7.8-79.9,3.1c-13.2-2.3-25.9-5.9-36.8-14.3c-15.7-12-19.1-29.6-9.4-47
	c10-17.9,25.3-30.3,42.2-40.8c29.1-18,60.8-28.9,94.4-34.6C238.8,228.7,240.9,227.3,242.1,230.1z"/>
<path class="st3" d="M139,213.1c-6,0.1-12,0.1-18,0.3c-3.4,0.1-3.4-1.2-2.2-3.9c8.3-18.3,21.7-31.7,39-41.5
	c20.5-11.6,42.9-16.7,66.2-18.9c18.8-1.8,37.6-1,56.4-1c46.1-0.2,92.3-0.1,138.4-0.1c5.7,0,5.6,0.1,3.1,5.4
	c-12.6,26.2-34.5,41.2-61.1,50.2c-18.4,6.2-37.4,9.6-56.9,9.4c-1.7-1.5-3.8-1-5.7-1c-51.2,0-102.3,0-153.5,0
	C142.8,212,140.7,211.6,139,213.1z"/>
<path class="st4" d="M139,213.1c0.3-2.5,2.2-2.1,3.8-2.1c52.4,0,104.9,0,157.3,0c1.6,0,3.5-0.4,3.8,2c-2.6,0.1-5.3,0.3-8,0.3
	c-50.8,0-101.7,0-152.5-0.1C142,213.3,140.5,213.2,139,213.1z"/>
<path class="st5" d="M242.1,230.1c-1.3-2.2-3.5-0.3-5.1-1.1c3.6-1.3,7.3-2.4,11.6-1.7C246.9,229.9,244.2,229.3,242.1,230.1z"/>
</svg>
