<?xml version="1.0" encoding="UTF-8" standalone="no"?>
<svg
   xmlns:dc="http://purl.org/dc/elements/1.1/"
   xmlns:cc="http://creativecommons.org/ns#"
   xmlns:rdf="http://www.w3.org/1999/02/22-rdf-syntax-ns#"
   xmlns:svg="http://www.w3.org/2000/svg"
   xmlns="http://www.w3.org/2000/svg"
   xmlns:sodipodi="http://sodipodi.sourceforge.net/DTD/sodipodi-0.dtd"
   xmlns:inkscape="http://www.inkscape.org/namespaces/inkscape"
   version="1.1"
   id="svg2"
   xml:space="preserve"
   width="200"
   height="200"
   viewBox="0 0 200 200"
   sodipodi:docname="tisco2.ai"><metadata
     id="metadata8"><rdf:RDF><cc:Work
         rdf:about=""><dc:format>image/svg+xml</dc:format><dc:type
           rdf:resource="http://purl.org/dc/dcmitype/StillImage" /></cc:Work></rdf:RDF></metadata><defs
     id="defs6"><radialGradient
       fx="0"
       fy="0"
       cx="0"
       cy="0"
       r="1"
       gradientUnits="userSpaceOnUse"
       gradientTransform="matrix(145.7511,0,0,147.40756,124.17349,126.6657)"
       spreadMethod="pad"
       id="radialGradient38"><stop
         style="stop-opacity:1;stop-color:#37a7df"
         offset="0"
         id="stop24" /><stop
         style="stop-opacity:1;stop-color:#36a3dc"
         offset="0.2059"
         id="stop26" /><stop
         style="stop-opacity:1;stop-color:#3498d1"
         offset="0.3988"
         id="stop28" /><stop
         style="stop-opacity:1;stop-color:#3185c0"
         offset="0.5866"
         id="stop30" /><stop
         style="stop-opacity:1;stop-color:#2c6aa8"
         offset="0.7711"
         id="stop32" /><stop
         style="stop-opacity:1;stop-color:#264889"
         offset="0.9517"
         id="stop34" /><stop
         style="stop-opacity:1;stop-color:#243e80"
         offset="1"
         id="stop36" /></radialGradient><linearGradient
       x1="0"
       y1="0"
       x2="1"
       y2="0"
       gradientUnits="userSpaceOnUse"
       gradientTransform="matrix(-39.470261,-39.470261,39.470261,-39.470261,122.42063,120.13157)"
       spreadMethod="pad"
       id="linearGradient70"><stop
         style="stop-opacity:1;stop-color:#88181a"
         offset="0"
         id="stop54" /><stop
         style="stop-opacity:1;stop-color:#8f191b"
         offset="0.0159733"
         id="stop56" /><stop
         style="stop-opacity:1;stop-color:#ad1b1f"
         offset="0.0978526"
         id="stop58" /><stop
         style="stop-opacity:1;stop-color:#c51d22"
         offset="0.184"
         id="stop60" /><stop
         style="stop-opacity:1;stop-color:#d61e24"
         offset="0.2753"
         id="stop62" /><stop
         style="stop-opacity:1;stop-color:#e01f26"
         offset="0.3752"
         id="stop64" /><stop
         style="stop-opacity:1;stop-color:#e31f26"
         offset="0.5"
         id="stop66" /><stop
         style="stop-opacity:1;stop-color:#e31f26"
         offset="1"
         id="stop68" /></linearGradient></defs><sodipodi:namedview
     pagecolor="#ffffff"
     bordercolor="#666666"
     borderopacity="1"
     objecttolerance="10"
     gridtolerance="10"
     guidetolerance="10"
     inkscape:pageopacity="0"
     inkscape:pageshadow="2"
     inkscape:window-width="640"
     inkscape:window-height="480"
     id="namedview4" /><g
     id="g10"
     inkscape:groupmode="layer"
     inkscape:label="tisco2"
     transform="matrix(1.3333333,0,0,-1.3333333,0,200)"><g
       id="g12"><g
         id="g14"><g
           id="g20"><g
             id="g22"><path
               d="M 0,75 C 0,33.61 33.516,0 75,0 v 0 c 38.371,0 69.965,28.848 74.449,65.934 v 0 c 0,0 0.551,5.035 0.551,8.977 v 0 c 0,3.937 -0.551,8.972 -0.551,8.972 v 0 C 144.965,121.153 113.371,150 75,150 v 0 C 33.516,150 0,116.391 0,75 M 55.129,55.129 C 39.101,71.152 37.09,95.879 49.176,114.102 v 0 c 18.222,12.09 42.949,10.074 58.972,-5.954 v 0 c 16.028,-16.023 18.044,-40.84 5.954,-58.972 v 0 C 106.321,43.957 97.254,41.391 88.277,41.391 v 0 c -11.996,0 -23.992,4.577 -33.148,13.738"
               style="fill:url(#radialGradient38);stroke:none"
               id="path40" /></g></g></g></g><g
       id="g42"><g
         id="g44"><g
           id="g50"><g
             id="g52"><path
               d="m 55.129,121.43 c -2.289,-2.29 -4.305,-4.672 -5.953,-7.328 v 0 c 18.222,12.09 42.949,10.074 58.972,-5.954 v 0 c 16.028,-16.023 18.044,-40.84 5.954,-58.972 v 0 c 2.566,1.738 5.038,3.664 7.328,5.953 v 0 c 18.312,18.313 18.312,47.984 0,66.301 v 0 c -9.16,9.155 -21.157,13.734 -33.153,13.734 v 0 c -11.996,0 -23.992,-4.579 -33.148,-13.734"
               style="fill:url(#linearGradient70);stroke:none"
               id="path72" /></g></g></g></g></g></svg>
