<?xml version="1.0" encoding="utf-8"?>
<!-- Generator: Adobe Illustrator 25.0.1, SVG Export Plug-In . SVG Version: 6.00 Build 0)  -->
<svg version="1.0" xmlns="http://www.w3.org/2000/svg" xmlns:xlink="http://www.w3.org/1999/xlink" x="0px" y="0px"
	 viewBox="0 0 500 500" style="enable-background:new 0 0 500 500;" xml:space="preserve">
<style type="text/css">
	.st0{fill:#FFFFFF;}
	.st1{fill:#0F6CB5;}
	.st2{fill:#C6303A;}
	.st3{fill:#0F6DB5;}
	.st4{fill:#FEFEFE;}
</style>
<g id="Layer_1">
	<path class="st0" d="M497.9,250.14c-0.01,136.92-111.13,247.8-248.3,247.76C112.78,497.87,2.03,386.66,2.1,249.36
		C2.16,112.45,113.57,1.95,251.39,2.1C387.16,2.24,497.92,113.69,497.9,250.14z"/>
	<path class="st1" d="M297.38,237.64c-2.23,6.48-4.45,12.95-6.68,19.43c-9.44,27.51-18.88,55.02-28.3,82.54
		c-0.3,0.87-0.66,1.21-1.64,1.2c-7.55-0.05-15.1-0.04-22.65-0.01c-0.87,0-1.27-0.2-1.58-1.09c-11.42-33.71-22.87-67.4-34.34-101.09
		c-0.18-0.53-0.26-1.56-0.71-1.45c-0.64,0.16-0.28,1.08-0.28,1.66c-0.02,33.5-0.02,67.01,0.02,100.51c0,1.23-0.33,1.47-1.5,1.47
		c-9.92-0.05-19.85-0.04-29.77,0c-0.99,0-1.23-0.25-1.23-1.23c0.03-48.48,0.03-96.96,0-145.44c0-0.94,0.17-1.27,1.2-1.27
		c14.83,0.04,29.65,0.03,44.48,0c0.89,0,1.29,0.24,1.58,1.12c11.21,33.07,22.45,66.13,33.69,99.19c0.16,0.46,0.13,1.25,0.64,1.27
		c0.54,0.01,0.51-0.78,0.65-1.23c10.64-33.01,21.27-66.03,31.86-99.05c0.32-1,0.75-1.31,1.8-1.3c14.71,0.04,29.41,0.04,44.12,0
		c1.07,0,1.38,0.25,1.38,1.35c-0.03,48.4-0.03,96.8-0.01,145.2c0,1.02-0.18,1.39-1.32,1.39c-9.96-0.05-19.93-0.05-29.89,0
		c-1.08,0-1.36-0.27-1.36-1.35c0.03-33.46,0.03-66.93,0.03-100.39c0-0.47,0-0.94,0-1.42C297.53,237.64,297.45,237.64,297.38,237.64z
		"/>
	<path class="st2" d="M449.1,260.37c2.25,0.76,4.33,1.5,6.32,2.45c10.62,5.08,16.52,13.76,18.84,25.03
		c1.65,8.05,1.5,16.13-1.05,23.99c-3.6,11.1-11.15,18.69-21.65,23.46c-8.44,3.84-17.37,5.44-26.59,5.45
		c-22.97,0.03-45.94,0.01-68.91,0.03c-0.89,0-1.1-0.23-1.1-1.11c0.02-48.56,0.02-97.11,0-145.67c0-0.89,0.22-1.12,1.11-1.12
		c22.3,0.03,44.59-0.01,66.89,0.04c7.64,0.01,15.24,0.64,22.58,2.99c6.49,2.08,12.21,5.34,16.38,10.91
		c3.17,4.23,5.03,8.99,5.84,14.18c0.96,6.14,1.04,12.27-0.45,18.35c-2,8.21-7.07,14.14-14.06,18.59
		C451.95,258.78,450.59,259.5,449.1,260.37z"/>
	<path class="st2" d="M85.75,192.92c19.92,0,39.85,0.01,59.77-0.02c1.1,0,1.46,0.2,1.45,1.39c-0.06,8.22-0.06,16.43,0,24.65
		c0.01,1.2-0.36,1.39-1.45,1.38c-13.99-0.04-27.99-0.01-41.98-0.05c-1.2,0-1.56,0.25-1.56,1.52c0.04,39.15,0.03,78.3,0.03,117.45
		c0,1.79,0.22,1.54-1.6,1.54c-9.84,0.01-19.69-0.02-29.53,0.03c-1.16,0.01-1.41-0.29-1.41-1.43c0.03-39.19,0.03-78.38,0.02-117.57
		c0-1.74,0.19-1.52-1.5-1.52c-14.07-0.01-28.15-0.02-42.22,0.03c-1.08,0-1.28-0.3-1.28-1.31c0.04-8.3,0.04-16.59,0-24.89
		c0-0.99,0.26-1.23,1.24-1.23C45.74,192.93,65.75,192.92,85.75,192.92z"/>
	<path class="st3" d="M214.9,149.87c-0.02,12.93-10.54,23.49-23.41,23.48c-13-0.01-23.46-10.58-23.44-23.69
		c0.02-12.84,10.53-23.25,23.47-23.24C204.47,126.44,214.91,136.9,214.9,149.87z"/>
	<path class="st3" d="M330.82,149.8c0.01,13.03-10.47,23.57-23.43,23.55c-12.91-0.02-23.35-10.51-23.38-23.49
		c-0.03-12.98,10.39-23.42,23.38-23.43C320.4,126.42,330.81,136.8,330.82,149.8z"/>
	<path class="st4" d="M386.48,295.16c0-6.4,0.01-12.8-0.02-19.2c0-0.8,0.08-1.17,1.06-1.16c11.74,0.05,23.48,0.02,35.23,0.07
		c3.02,0.01,5.96,0.6,8.82,1.6c7.22,2.52,11.03,7.69,11.89,15.18c0.39,3.4,0.44,6.79-0.33,10.14c-1.53,6.69-6,10.52-12.36,12.41
		c-3.59,1.07-7.3,1.35-11.02,1.36c-10.67,0.03-21.35,0-32.02,0.03c-0.97,0-1.26-0.23-1.26-1.23
		C386.5,307.96,386.48,301.56,386.48,295.16z"/>
	<path class="st4" d="M404.52,252.73c-5.61,0-11.23-0.01-16.84,0.02c-0.86,0-1.24-0.11-1.23-1.13c0.04-10.78,0.04-21.57,0-32.35
		c0-0.89,0.22-1.11,1.11-1.11c10.04,0.04,20.08,0.02,30.12,0.05c2.77,0.01,5.52,0.35,8.22,1.02c7.48,1.85,11.61,6.87,12.05,14.58
		c0.14,2.58-0.08,5.13-0.76,7.63c-1.61,5.86-5.89,8.82-11.4,10.4c-2.57,0.74-5.22,0.88-7.86,0.89
		C413.45,252.75,408.99,252.73,404.52,252.73z"/>
</g>
<g id="Layer_2">
</g>
</svg>
