<?xml version="1.0" encoding="utf-8"?>
<!-- Generator: Adobe Illustrator 25.0.1, SVG Export Plug-In . SVG Version: 6.00 Build 0)  -->
<svg version="1.1" id="Layer_1" xmlns="http://www.w3.org/2000/svg" xmlns:xlink="http://www.w3.org/1999/xlink" x="0px" y="0px"
	 viewBox="0 0 100 100" style="enable-background:new 0 0 100 100;" xml:space="preserve">
<style type="text/css">
	.st0{fill:#F48220;}
	.st1{fill:#EB1D24;}
	.st2{fill:#FECC02;}
	.st3{fill:#9C0B0F;}
</style>
<path class="st0" d="M63.9,40.9c1.2-3.4,2.5-6.9,3.7-10.3c1-2.9,2-3.6,5-3.6c8.1,0,16.2,0,24.3,0c2.3,0,2.9,0.8,2.1,3
	c-5.3,15.1-10.6,30.2-15.9,45.3c-0.9,2.7-2.1,3.5-4.9,3.5c-9.3,0-18.6,0-27.8,0.1c-0.5,0-0.9,0-1.4,0c0-0.3,0.2-0.5,0.4-0.6
	c1.5-0.9,2.1-2.5,2.6-4c3.7-10.7,7.5-21.4,11.3-32.1C63.4,41.7,63.5,41.2,63.9,40.9z"/>
<path class="st1" d="M18.3,72.4c-2.1,0-3.3-0.9-4-3.2c-2.7-9.1-5.5-18.3-8.2-27.4c-1.7-5.6-3.4-11.3-5.1-16.9
	c-0.1-0.3-0.2-0.6-0.3-0.9C0.4,22,1,21.2,3,21.2c7.9,0,15.8,0,23.6,0c2,0,3.3,0.9,3.8,2.8c1.1,3.5,2.1,7.1,3.2,10.6
	c0.1,0.2,0.2,0.5,0.3,0.7c0.1,0.6-0.4,0.8-0.7,1.3c-1.1,1.9-1.6,4-2.3,6c-3.1,8.8-6.2,17.5-9.2,26.3c-0.1,0.4-0.3,0.9-0.5,1.3
	C20.7,71.3,19.8,72.3,18.3,72.4z"/>
<path class="st2" d="M33.2,36.3c0.3-0.3,0.5-0.6,0.8-1c0.5-0.2,1.1-0.3,1.7-0.3c7.8,0,15.6,0,23.3,0c2.1,0,3.5,1,4.1,3
	c0.3,0.9,0.6,1.9,0.8,2.8c-1.2,3.5-2.3,7-3.6,10.5c-2.1,6.1-4.3,12.1-6.4,18.2c-0.7,1.9-1.4,3.8-2,5.7c-0.5,1.6-1.5,2.7-3,3.5
	c-2.4,0.1-3.7-0.8-4.4-3.1c-0.3-1.1-0.7-2.2-1-3.3c-0.4-0.4-0.5-0.8-0.7-1.3c-3.3-11-6.5-21.9-9.8-32.9
	C32.9,37.5,32.9,36.9,33.2,36.3z"/>
<path class="st3" d="M33.2,36.3c0.1,2.3,1,4.3,1.6,6.4c2.8,9.6,5.7,19.2,8.6,28.9c0.1,0.3,0.1,0.6,0.2,0.8c-8.4,0-16.8,0-25.2,0
	c1.6-0.6,2.5-1.8,3.1-3.4c3.6-10.3,7.2-20.6,10.8-30.8C32.4,37.4,32.7,36.8,33.2,36.3z"/>
</svg>
